<svg version="1.1" xmlns="http://www.w3.org/2000/svg" xmlns:xlink="http://www.w3.org/1999/xlink" width="550.2532" height="355.82071" viewBox="0,0,550.2532,355.82071"><g transform="translate(-81.43295,-117.23229)"><g data-paper-data="{&quot;isPaintingLayer&quot;:true}" fill-rule="nonzero" stroke="none" stroke-linecap="butt" stroke-linejoin="miter" stroke-miterlimit="10" stroke-dasharray="" stroke-dashoffset="0" style="mix-blend-mode: normal"><path d="M246.44766,465.52509l-1.34982,0.44994c-3.74513,1.24838 -7.82833,1.98142 -11.44927,3.50652c-3.52509,1.48473 -6.20679,3.165 -10.16806,3.42561c-3.95373,0.26011 -9.83472,0.22458 -13.72577,-0.54082c-1.04707,-0.20597 -1.84789,-1.12759 -2.88038,-1.39727c-1.46518,-0.3827 -4.49569,-0.30525 -6.15676,-0.30218c-32.29205,0 -65.36369,-3.69822 -97.2352,-9.62555c-0.08952,0.27649 -0.24095,0.5672 -0.47365,0.86833c-1.52862,1.97821 -3.50683,0.44959 -3.50683,0.44959l-3.08571,-2.38442c-0.16757,-0.12948 -0.33552,-0.25851 -0.50379,-0.38719c-0.40576,-0.08036 -0.81129,-0.16107 -1.21659,-0.24212c0,0 -2.6623,-0.53246 -3.00321,-2.95657c-1.88895,-1.46156 -3.72689,-2.98213 -5.39215,-4.7028c-1.35652,-1.40166 -3.17186,-2.49066 -4.0312,-4.24175c-0.77853,-1.58642 -0.4499,-3.50589 -0.63346,-5.26349c-0.36437,-3.48895 -0.22003,-7.04914 0.28998,-10.5198c1.73123,-11.78114 6.72162,-22.76048 11.34868,-33.6477c7.56289,-17.7475 19.74477,-33.75785 31.65361,-48.77686c3.10157,-3.91159 6.07547,-7.91754 9.12161,-11.87081c0.89719,-1.16436 3.42172,-4.45905 4.74405,-5.14387c1.41805,-0.73438 3.08327,-0.83314 4.62491,-1.2497c0,0 1.70757,-0.42688 2.61534,0.86852c1.10464,-0.01243 1.84381,0.8662 2.0266,1.10867c0.27446,-0.05211 0.4638,-0.05211 0.4638,-0.05211l0.00001,-0.00001c4.28066,0.01601 9.48606,-1.61435 13.66563,-0.40921c3.17275,0.91483 5.41316,4.03334 8.11795,5.76485c0.5775,0.36969 1.00298,1.07726 1.67977,1.18741c0.78561,0.12786 1.53457,-0.46137 2.32708,-0.53529c3.08771,-0.28799 5.893,0.68179 8.95869,0.50357c1.20455,-0.07002 2.50867,-0.87214 3.60168,-0.36109c2.79159,1.30524 3.46708,4.51236 5.18514,6.76142c0.46385,-0.35522 1.12882,-0.57257 2.06456,-0.33863c1.27777,0.31944 1.71406,1.14377 1.84087,1.85233c0.0449,0.05872 0.08921,0.12071 0.13283,0.18614c1.38676,2.08012 -0.69336,3.46688 -0.69336,3.46688l-0.09056,0.05579c-2.94064,11.90481 -5.76088,24.85415 -4.31108,37.08022c0.75897,6.40032 3.30753,12.58447 5.46915,18.59356c1.09879,3.05453 1.87114,6.24541 3.28347,9.16823c2.05506,4.25294 5.17058,8.31491 7.6538,12.33862c8.45146,9.40299 17.66004,19.28001 28.87202,25.51553c2.97162,1.65266 6.13333,3.06165 9.25974,4.49476c0.8088,0.02485 1.79719,0.2779 2.54244,1.18188c0.51897,0.2462 1.03521,0.49513 1.54766,0.74807l0.98594,0.48666c0,0 2.24177,1.10655 1.13522,3.34832c-1.10655,2.24178 -3.34832,1.13523 -3.34832,1.13523l-0.66809,-0.32978c-0.64741,0.51852 -1.28897,0.73237 -1.28897,0.73237zM96.1667,451.99117c34.06632,6.81394 69.77394,11.17572 104.55089,11.17572c2.84436,0.00459 5.36079,-0.09572 8.24137,0.59771c0.91898,0.22122 1.5928,1.11324 2.51891,1.30238c1.1093,0.22654 2.26437,-0.14856 3.39528,-0.09458c2.69307,0.12855 5.3828,0.58617 8.07568,0.45364c3.04674,-0.14994 5.09817,-1.74563 7.8296,-2.87357c2.32297,-0.95927 4.78919,-1.63369 7.24957,-2.30993c-1.45464,-0.70018 -2.89007,-1.42698 -4.2837,-2.20683c-11.78241,-6.59321 -21.47553,-16.89162 -30.33716,-26.82749c-2.65977,-4.27297 -5.96373,-8.62891 -8.1529,-13.1594c-0.07513,-0.15548 -3.37354,-9.33758 -3.48634,-9.65116c-2.29632,-6.38355 -4.93178,-12.92999 -5.73313,-19.72848c-1.34679,-11.42593 0.77811,-23.40215 3.4307,-34.70397c-1.08962,0.59863 -2.14951,1.25969 -3.19723,1.91706c-0.79529,-0.85654 -1.34119,-2.04537 -2.38585,-2.56961c-0.38716,-0.19429 -0.55617,0.6916 -0.93388,0.90366c-1.53786,0.86342 -3.02905,1.80801 -4.52255,2.74607c-3.14776,1.97711 -4.92841,3.58551 -8.58414,1.63634c-1.25802,-0.67075 -2.27278,-1.81278 -3.02429,-3.02429c-0.75883,-1.2233 0.33023,-3.42645 -0.86317,-4.23148c-0.45288,-0.3055 -1.09201,0.0382 -1.63827,0.04402c-2.85874,0.03046 -7.51445,0.75439 -10.09235,-0.85582c-1.10862,-0.69247 -1.67888,-2.00507 -2.56285,-2.96795c-3.2304,-3.51877 -4.96429,-7.61693 -7.61667,-11.62902c-0.9486,0.15571 -1.92471,0.23115 -2.78701,0.63869c-1.5205,0.71862 -2.23064,2.52107 -3.25487,3.85496c-3.05101,3.97339 -6.04317,7.9889 -9.15643,11.91523c-11.61687,14.65078 -23.62458,30.29369 -30.96979,47.62604c-4.45969,10.49342 -9.31445,21.07426 -11.00411,32.42338c-0.45817,3.07747 -0.49311,6.2282 -0.2572,9.33063c0.09105,1.19745 -0.35674,2.52455 0.18132,3.59818c0.62021,1.23755 2.04048,1.8715 3.03987,2.82932c1.44563,1.38548 2.96207,2.66494 4.51369,3.90333c0.96547,-0.23307 1.817,-0.06276 1.817,-0.06276zM185.85926,345.15486c-0.21063,-0.47966 -0.2038,-1.22837 -0.69541,-1.40937c-0.48069,-0.17698 -0.88986,0.57149 -1.39766,0.63875c-3.10795,0.41167 -5.94745,-0.72572 -9.03897,-0.49627c-1.23043,0.09132 -2.46065,0.69807 -3.67216,0.46456c-0.36651,-0.07064 -5.55946,-3.07837 -6.07153,-3.48523c-0.54393,-0.43218 -2.83958,-3.24501 -4.12817,-3.56069c-2.91992,-0.71533 -6.60128,0.07045 -9.88193,0.43026c1.32415,2.26952 2.65496,4.4835 4.41312,6.49173c0.5463,0.62401 0.77502,1.5313 1.43665,2.03139c1.11732,0.84452 2.79898,0.1363 4.19957,0.13551c2.01203,-0.00113 6.36262,-0.26321 8.06672,1.05245c2.63805,2.03672 0.70538,5.20373 3.11163,6.74239c1.29771,0.82981 2.45907,-0.67731 3.41428,-1.36325c2.15736,-1.54922 6.531,-5.05625 9.54165,-4.34925c0.9465,0.22227 1.07576,1.61982 1.61364,2.42973c0.44555,-0.63886 1.00901,-1.19382 1.64258,-1.67205c-1.03563,-1.23205 -1.9104,-2.61499 -2.55402,-4.08065z" fill="#000000" stroke-width="0.5"/><path d="M96.12719,452.02185c0,0 -0.85191,-0.17081 -1.81738,0.06226c-1.55162,-1.23839 -3.07,-2.52061 -4.51563,-3.90609c-0.99939,-0.95782 -2.42088,-1.59372 -3.04109,-2.83127c-0.53806,-1.07363 -0.09118,-2.40234 -0.18223,-3.59979c-0.23591,-3.10243 -0.20311,-6.25762 0.25506,-9.33509c1.68966,-11.34912 6.54051,-21.9499 11.0002,-32.44332c7.34521,-17.33235 19.3745,-33.01584 30.99137,-47.66662c3.11326,-3.92633 6.11518,-7.94709 9.16619,-11.92048c1.02423,-1.33389 1.73748,-3.13747 3.25798,-3.85609c0.8623,-0.40754 1.84044,-0.4836 2.78904,-0.63931c2.65238,4.01209 4.39003,8.10935 7.62043,11.62812c0.88397,0.96288 1.4561,2.27514 2.56472,2.96761c2.5779,1.61021 7.2436,0.8857 10.10234,0.85524c0.54626,-0.00582 1.18704,-0.34942 1.63992,-0.04392c1.1934,0.80503 0.10563,3.00829 0.86446,4.23159c0.75151,1.21151 1.77011,2.35408 3.02813,3.02483c3.65573,1.94917 5.44485,0.34308 8.59261,-1.63403c1.4935,-0.93806 2.98769,-1.88143 4.52555,-2.74485c0.37771,-0.21206 0.54714,-1.09776 0.9343,-0.90347c1.04466,0.52424 1.59341,1.71448 2.3887,2.57102c1.04772,-0.65737 2.10915,-1.31757 3.19877,-1.9162c-2.65259,11.30182 -4.75803,23.29869 -3.41124,34.72462c0.80135,6.79849 3.44057,13.38012 5.73689,19.76367c0.1128,0.31358 3.40708,9.50632 3.48221,9.6618c2.18917,4.53049 5.48904,8.89294 8.14881,13.16591c8.86163,9.93587 18.47558,20.17322 30.25799,26.76643c1.39363,0.77985 2.90738,1.56883 4.36202,2.26901c-2.46038,0.67624 -4.9288,1.35327 -7.25177,2.31254c-2.73143,1.12794 -4.78577,2.7266 -7.83251,2.87654c-2.69288,0.13253 -5.38514,-0.32287 -8.07821,-0.45142c-1.13091,-0.05398 -2.28728,0.32215 -3.39658,0.09561c-0.92611,-0.18914 -1.60055,-1.0807 -2.51953,-1.30192c-2.88058,-0.69343 -5.40055,-0.59072 -8.24491,-0.59531c-34.77695,0 -70.55028,-4.3737 -104.6166,-11.18764z" data-paper-data="{&quot;noHover&quot;:false,&quot;origItem&quot;:[&quot;Path&quot;,{&quot;applyMatrix&quot;:true,&quot;segments&quot;:[[[96.1667,388.54941],[0,0],[34.06632,6.81394]],[[200.71759,399.72513],[-34.77695,0],[2.84436,0.00459]],[[208.95896,400.32284],[-2.88058,-0.69343],[0.91898,0.22122]],[[211.47787,401.62522],[-0.92611,-0.18914],[1.1093,0.22654]],[[214.87315,401.53064],[-1.13091,-0.05398],[2.69307,0.12855]],[[222.94883,401.98428],[-2.69288,0.13253],[3.04674,-0.14994]],[[230.77843,399.11071],[-2.73143,1.12794],[2.32297,-0.95927]],[[238.028,396.80078],[-2.46038,0.67624],[-1.45464,-0.70018]],[[233.7443,394.59395],[1.39363,0.77985],[-11.78241,-6.59321]],[[203.40714,367.76646],[8.86163,9.93587],[-2.65977,-4.27297]],[[195.25424,354.60706],[2.18917,4.53049],[-0.07513,-0.15548]],[[191.7679,344.9559],[0.1128,0.31358],[-2.29632,-6.38355]],[[186.03477,325.22742],[0.80135,6.79849],[-1.34679,-11.42593]],[[189.46547,290.52345],[-2.65259,11.30182],[-1.08962,0.59863]],[[186.26824,292.44051],[1.04772,-0.65737],[-0.79529,-0.85654]],[[183.88239,289.8709],[1.04466,0.52424],[-0.38716,-0.19429]],[[182.94851,290.77456],[0.37771,-0.21206],[-1.53786,0.86342]],[[178.42596,293.52063],[1.4935,-0.93806],[-3.14776,1.97711]],[[169.84182,295.15697],[3.65573,1.94917],[-1.25802,-0.67075]],[[166.81753,292.13268],[0.75151,1.21151],[-0.75883,-1.2233]],[[165.95436,287.9012],[1.1934,0.80503],[-0.45288,-0.3055]],[[164.31609,287.94522],[0.54626,-0.00582],[-2.85874,0.03046]],[[154.22374,287.0894],[2.5779,1.61021],[-1.10862,-0.69247]],[[151.66089,284.12145],[0.88397,0.96288],[-3.2304,-3.51877]],[[144.04422,272.49243],[2.65238,4.01209],[-0.9486,0.15571]],[[141.25721,273.13112],[0.8623,-0.40754],[-1.5205,0.71862]],[[138.00234,276.98608],[1.02423,-1.33389],[-3.05101,3.97339]],[[128.84591,288.90131],[3.11326,-3.92633],[-11.61687,14.65078]],[[97.87612,336.52735],[7.34521,-17.33235],[-4.45969,10.49342]],[[86.87201,368.95073],[1.68966,-11.34912],[-0.45817,3.07747]],[[86.61481,378.28136],[-0.23591,-3.10243],[0.09105,1.19745]],[[86.79613,381.87954],[-0.53806,-1.07363],[0.62021,1.23755]],[[89.836,384.70886],[-0.99939,-0.95782],[1.44563,1.38548]],[[94.34969,388.61219],[-1.55162,-1.23839],[0.96547,-0.23307]],[96.16669,388.54943]],&quot;closed&quot;:true,&quot;fillColor&quot;:[0,0,0,1]}]}" fill="#00bfd9" stroke-width="0.5"/><path d="M185.90922,345.1531c0.64362,1.46566 1.51756,2.85958 2.55319,4.09163c-0.63357,0.47823 -1.29402,1.00945 -1.73957,1.64831c-0.53788,-0.80991 -0.57007,-2.18417 -1.51657,-2.40644c-3.01065,-0.707 -7.4015,2.82967 -9.55886,4.37889c-0.95521,0.68594 -2.13439,2.2026 -3.4321,1.37279c-2.40625,-1.53866 -0.50432,-4.70642 -3.14237,-6.74314c-1.7041,-1.31566 -6.08801,-1.09691 -8.10004,-1.09578c-1.40059,0.00079 -3.08236,0.70723 -4.19968,-0.13729c-0.66163,-0.50009 -0.89012,-1.41466 -1.43642,-2.03867c-1.75816,-2.00823 -3.08523,-4.23663 -4.40938,-6.50615c3.28065,-0.35981 6.97179,-1.16045 9.89171,-0.44512c1.28859,0.31568 3.58564,3.1271 4.12957,3.55928c0.51207,0.40686 5.77505,3.415 6.14156,3.48564c1.21151,0.23351 2.45348,-0.35489 3.68391,-0.44621c3.09152,-0.22945 5.93382,0.92034 9.04177,0.50867c0.5078,-0.06726 0.91679,-0.81733 1.39748,-0.64035c0.49161,0.181 0.48515,0.93429 0.69578,1.41395z" data-paper-data="{&quot;noHover&quot;:false,&quot;origItem&quot;:[&quot;Path&quot;,{&quot;applyMatrix&quot;:true,&quot;segments&quot;:[[[185.85926,281.7131],[0,0],[-0.21063,-0.47966]],[[185.16385,280.30373],[0.49161,0.181],[-0.48069,-0.17698]],[[183.76619,280.94248],[0.5078,-0.06726],[-3.10795,0.41167]],[[174.72722,280.44621],[3.09152,-0.22945],[-1.23043,0.09132]],[[171.05506,280.91077],[1.21151,0.23351],[-0.36651,-0.07064]],[[164.98353,277.42554],[0.51207,0.40686],[-0.54393,-0.43218]],[[160.85536,273.86485],[1.28859,0.31568],[-2.91992,-0.71533]],[[150.97343,274.29511],[3.28065,-0.35981],[1.32415,2.26952]],[[155.38655,280.78684],[-1.75816,-2.00823],[0.5463,0.62401]],[[156.8232,282.81823],[-0.66163,-0.50009],[1.11732,0.84452]],[[161.02277,282.95374],[-1.40059,0.00079],[2.01203,-0.00113]],[[169.08949,284.00619],[-1.7041,-1.31566],[2.63805,2.03672]],[[172.20112,290.74858],[-2.40625,-1.53866],[1.29771,0.82981]],[[175.6154,289.38533],[-0.95521,0.68594],[2.15736,-1.54922]],[[185.15705,285.03608],[-3.01065,-0.707],[0.9465,0.22227]],[[186.77069,287.46581],[-0.53788,-0.80991],[0.44555,-0.63886]],[[188.41327,285.79376],[-0.63357,0.47823],[-1.03563,-1.23205]],[[185.85925,281.71311],[0.64362,1.46566],[0,0]]],&quot;closed&quot;:true,&quot;fillColor&quot;:[0,0,0],&quot;strokeWidth&quot;:0.5}]}" fill="#d92a00" stroke-width="0.25"/><path d="M116.91304,380.6891c1.664,0.3328 2.48088,1.23035 2.86992,2.15357c1.3616,-1.21249 2.73298,-2.41228 4.15832,-3.57432c0.91567,-0.74652 1.41146,-2.12945 2.54315,-2.46861c0.2449,-0.07339 0.49157,-0.13769 0.73976,-0.19416l-0.07292,-0.17016l3.06831,-1.31499c0.50486,-0.23007 1.06594,-0.35825 1.65695,-0.35825c2.20914,0 4,1.79086 4,4c0,0.67183 -0.16563,1.30497 -0.45828,1.86083l-1.31384,2.62768l-0.24502,-0.12251l-0.08772,0.6725c-3.78108,3.82767 -6.13919,8.64028 -8.81259,13.21532c-0.43863,0.75064 -1.32065,1.20907 -1.66561,2.00711c-0.64352,1.48875 -0.6264,3.20311 -1.23617,4.706c-1.26447,3.11651 -3.99645,5.06143 -6.17209,7.46352c-0.1357,0.27978 -0.29546,0.59656 -0.46757,0.93202c1.75594,-0.97993 3.55972,-1.86036 5.30254,-2.9851c0.20793,-0.13419 4.30586,-3.21547 5.25046,-3.50869l2.0324,-1.62592c0.68838,-0.56044 1.56679,-0.89643 2.52366,-0.89643c2.20914,0 4,1.79086 4,4c0,0.49741 -0.09079,0.97362 -0.25671,1.41295c1.19117,-0.3615 2.37769,-0.75932 3.55656,-1.21678l1.87496,-1.49997c0.68838,-0.56044 1.56679,-0.89643 2.52366,-0.89643c2.20914,0 4,1.79086 4,4c0,1.10457 -0.44772,2.10457 -1.17157,2.82843l-1.63755,1.63755c0.07157,0.29944 0.10947,0.61196 0.10947,0.93333c0,1.59681 -0.93567,2.97509 -2.28865,3.61646l-2.45381,1.2269c-0.69332,0.46552 -5.48356,3.68854 -5.59908,3.69925c-0.18273,0.01694 -0.36537,0.02848 -0.54793,0.03518l0.05543,0.16629l-2.61107,0.87036c-0.42272,0.15198 -0.87843,0.23479 -1.35349,0.23479c-2.11669,0 -3.84938,-1.64411 -3.99069,-3.72495c-3.03444,0.96569 -6.0084,2.07294 -9.15868,2.7445c-2.25219,0.48011 -4.56886,0.64205 -6.81369,1.14796c-0.33471,0.30614 -0.6981,0.59907 -1.09506,0.87725c-1.98977,1.3944 -5.50908,3.31666 -8.43425,4.41386c-0.67745,0.52684 -1.52883,0.84058 -2.45348,0.84058c-0.1327,0 -0.26389,-0.00646 -0.39328,-0.01909c-1.72444,0.38769 -3.57721,0.94816 -5.19307,0.31852c-2.10671,-0.8209 -4.46681,-2.3745 -5.01395,-4.5683c-1.25003,-5.01211 4.80291,-12.37676 6.9583,-16.68551l1.27893,-2.98417c0.37196,-0.92543 1.07988,-1.67967 1.97279,-2.11174c-0.00249,-0.90881 -0.01019,-1.81002 -0.01019,-2.69649v-1.79977c0,0 0,-4 4,-4v-0.00001c1.49257,0 2.4282,0.55694 3.0147,1.25519c0.10225,-0.12352 0.20362,-0.24776 0.30397,-0.37281l1.36647,-0.62094c0.45743,-1.70544 2.01396,-2.96108 3.86375,-2.96108c0.34454,0 0.67891,0.04356 0.99789,0.12548c-0.03194,-0.20361 -0.04853,-0.41232 -0.04853,-0.6249c0,-0.25 0.02293,-0.49464 0.06681,-0.73193l0.43755,-2.62532l0.10216,0.01703c-0.0023,-0.16114 -0.00085,-0.32251 0.00479,-0.48414c0.04538,-1.30091 1.00791,-2.40037 1.51187,-3.60056l0.2042,-1.4585c0,0 0.78446,-3.92232 4.70679,-3.13786zM115.85713,396.18773c-0.58341,0.33262 -1.25864,0.52264 -1.97826,0.52264c-0.34454,0 -0.67891,-0.04356 -0.99789,-0.12548c0.03194,0.20361 0.04853,0.41232 0.04853,0.6249c0,0.18962 -0.01319,0.37615 -0.03871,0.55873l-0.02719,0.21755c0.45373,-0.17871 0.94801,-0.27686 1.4652,-0.27686c0.37114,0 0.73048,0.05055 1.0715,0.14513c0.1315,-0.56307 0.2731,-1.12231 0.45683,-1.66662z" fill="#ff0000" stroke-width="0.5"/><path d="M132.286,367.79073c-0.02114,0.12684 -0.04228,0.25368 -0.06342,0.38052c0,0 -0.6576,3.94558 -4.60317,3.28798c-3.94558,-0.6576 -3.28798,-4.60317 -3.28798,-4.60317c0.14998,-0.89988 0.29996,-1.79977 0.44994,-2.69965l7.22394,-1.72089c0,0 2.63083,2.63083 0.28068,5.35521z" fill="#ff0000" stroke-width="0.5"/><path d="M160.27233,400.80932c0,-2.20914 1.79086,-4 4,-4c2.20914,0 4,1.79086 4,4c0,2.20914 -1.79086,4 -4,4c-2.20914,0 -4,-1.79086 -4,-4z" fill="#ff0000" stroke-width="0.5"/><path d="M430.45179,135.2837c-0.39451,1.53646 -1.76726,2.45162 -1.76726,2.45162c-0.56403,0.18641 -1.34215,0.07921 -1.6921,0.55923c-0.23742,0.32566 0.42722,0.71219 0.4733,1.11257c0.11433,0.99344 0,2 0,3c0,3.59822 0.40031,7.17765 -0.71865,10.55306c0.07347,-0.18677 0.21512,-0.48484 0.35938,-0.50141c1.77483,-0.2039 3.57291,-0.07417 5.35927,-0.05165c1.38745,0.01749 2.83132,-0.23114 4.15914,0.17163c1.1501,0.34887 1.83891,1.68967 3,2c1.23811,0.33091 2.55954,-0.14676 3.84086,-0.17163c12.65654,-0.24571 25.34129,0 38,0c14.66667,0 29.33333,0 44,0c4.33333,0 8.66667,0 13,0c2.41464,0 4.89236,0.62202 7.24357,0.07217c1.7479,-0.40876 3.23894,-1.65231 5,-2c1.77468,-0.35038 3.62528,0.10832 5.42651,-0.05855c2.01894,-0.18703 3.98048,-0.81932 6,-1c4.46418,-0.39939 9.26847,0.69728 13.68919,0.03802c2.5428,-0.3792 5.06997,-1.02304 7.64073,-1.05165c4.77329,0 10.65542,0.88402 15.35927,0.05165c2.20688,-0.39052 4.39962,-1.0365 6.64073,-1.05165c3.29045,-0.02224 8.84856,1.04047 11.89708,-0.4026c1.20051,-0.56828 1.90398,-5.64967 2.30819,-6.86231c1.5335,-4.6005 2.94714,-9.35672 3.8142,-14.12924c0.12718,-0.70001 0.89794,-2.57682 -0.5502,-2.91033c-1.45512,-0.33512 -2.97606,0.30448 -4.46927,0.30448c-2.59141,0 -5.81187,-0.50242 -8.35927,-0.05165c-3.68031,0.65125 -7.39337,1.61369 -11.152,2.02168c-4.67139,0.50706 -9.49065,-0.45982 -14.15881,0.01634c-5.33559,0.54424 -10.61893,1.51845 -15.93577,1.99416c-3.98408,0.35647 -8.01699,-0.36824 -12,0c-3.79703,0.35104 -7.58093,1.01348 -11.39415,1.01947c-3.48175,0.00547 -7.01346,-0.62675 -10.4452,-0.03866c-2.39184,0.40988 -4.60029,1.63908 -7,2c-0.32243,0.04849 -10.39509,0.03866 -11.5548,0.03866c-18,0 -36,0 -54,0c-5.24841,0 -11.19454,-0.82186 -16.35927,-0.05165c-1.04256,0.15548 -1.95888,0.83512 -3,1c-3.3074,0.52377 -5.33992,-0.23346 -8.52238,0.89213zM425.48555,130.53197c0.41639,-2.35702 3.01003,-3.00543 3.01003,-3.00543l3.85179,-0.95991c3.42075,-1.08975 6.12615,-0.51481 9.47762,-1.10787c1.03797,-0.18367 1.95575,-0.85627 3,-1c6.61767,-0.91084 13.94456,-0.05165 20.64073,-0.05165c17,0 34,0 51,0c3.48176,0 7.00589,0.58069 10.4452,0.03866c2.39712,-0.37778 4.60467,-1.61104 7,-2c0.32343,-0.05252 11.51385,-0.03873 11.5548,-0.03866c3.55035,0.00596 7.06962,-0.66414 10.60585,-0.98053c3.98408,-0.35647 8.01699,0.36824 12,0c5.36054,-0.49559 10.68239,-1.47774 16.06423,-2.00584c4.56444,-0.44789 9.29249,0.53476 13.84119,0.01634c3.66587,-0.4178 7.25424,-1.4092 10.848,-1.97832c3.01488,-0.47745 6.57959,-0.05165 9.64073,-0.05165c5.52437,0 9.57586,-0.87885 12.69552,5.46927c0.87206,1.77454 0.42657,3.95271 0.28502,5.92488c-0.4536,6.31991 -3.33159,12.70164 -5.14005,18.7242c-1.27731,4.25371 -0.67388,5.70428 -4.73756,8.28425c-3.65223,2.31875 -8.05541,1.5974 -12.10292,1.5974c-2.11983,0 -4.27187,-0.42103 -6.35927,-0.05165c-1.03797,0.18367 -1.95888,0.83512 -3,1c-5.24508,0.83063 -11.34135,0.05165 -16.64073,0.05165c-2.14295,-0.03295 -4.23609,0.65612 -6.35927,0.94835c-4.69425,0.6461 -9.60059,-0.3974 -14.31081,0.03802c-2.01898,0.18664 -3.9804,0.82018 -6,1c-1.51861,0.13522 -3.07929,-0.36156 -4.57349,-0.05855c-1.75924,0.35677 -3.24411,1.62707 -5,2c-0.43507,0.0924 -7.92551,0.07217 -8.75643,0.07217c-4.33333,0 -8.66667,0 -13,0c-14.66667,0 -29.33333,0 -44,0c-9.33333,0 -18.66667,0 -28,0c-4.88867,0 -11.42585,0.95063 -16.15914,-0.17163c-1.16943,-0.27727 -1.87567,-1.57535 -3,-2c-2.6451,-0.99904 -5.71861,0.72045 -8.48159,0.11998c-2.01366,-0.43762 -4.41053,-0.9298 -5.60424,-2.60951c-1.23264,-1.7345 -0.58355,-4.21788 -0.75503,-6.33884c-0.31142,-3.85193 -0.23153,-8.14167 0,-12c0.09804,-1.63383 -0.34162,-3.46796 0.4733,-4.88743c0.915,-1.5938 2.87193,-2.29385 4.3079,-3.44077c0,0 0.49866,-0.33244 1.23863,-0.54694z" fill="#000000" stroke-width="0.5"/><path d="M434.53417,134.24452c3.18246,-1.12559 5.21504,-0.36922 8.52244,-0.89299c1.04112,-0.16488 1.9575,-0.8453 3.00007,-1.00077c5.16473,-0.77021 11.11099,0.05048 16.3594,0.05048c18,0 36.01147,-0.02639 54.01147,-0.02639c1.15971,0 11.28777,-0.00483 11.6102,-0.05332c2.39971,-0.36092 4.62678,-1.57805 7.01861,-1.98793c3.43173,-0.58809 6.9729,0.05782 10.45466,0.05235c3.81322,-0.00599 7.5993,-0.66296 11.39633,-1.014c3.98301,-0.36824 8.01707,0.36052 12.00116,0.00405c5.31684,-0.47571 10.60051,-1.44849 15.93609,-1.99273c4.66816,-0.47616 9.48778,0.49262 14.15917,-0.01444c3.75862,-0.40799 7.47167,-1.37051 11.15198,-2.02176c2.5474,-0.45077 5.76798,0.05241 8.3594,0.05241c1.49321,0 3.01418,-0.63941 4.4693,-0.30429c1.44814,0.33351 0.67758,2.21181 0.5504,2.91181c-0.86706,4.77252 -2.28036,9.53594 -3.81385,14.13644c-0.40421,1.21263 -1.10791,6.29776 -2.30842,6.86604c-3.04852,1.44308 -8.60673,0.38133 -11.89718,0.40357c-2.24111,0.01515 -4.43401,0.66235 -6.64089,1.05287c-4.70385,0.83237 -10.58627,-0.04986 -15.35956,-0.04986c-2.57076,0.02861 -5.09839,0.67471 -7.64119,1.05392c-4.42073,0.65926 -9.22604,-0.43363 -13.69022,-0.03424c-2.01952,0.18068 -3.98246,0.81685 -6.0014,1.00389c-1.80123,0.16686 -3.65335,-0.28846 -5.42803,0.06192c-1.76106,0.34769 -3.25623,1.59811 -5.00413,2.00687c-2.35121,0.54985 -4.83601,-0.06423 -7.25065,-0.06423c-4.33333,0 -8.69959,0.01295 -13.03293,0.01295c-14.66667,0 -29.38144,-0.03424 -44.04811,-0.03424c-12.65871,0 -25.34524,-0.25271 -38.00178,-0.007c-1.28132,0.02487 -2.60281,0.50226 -3.84091,0.17135c-1.16109,-0.31033 -1.85011,-1.6525 -3.00022,-2.00137c-1.32781,-0.40278 -2.77174,-0.15455 -4.15919,-0.17203c-1.78636,-0.02252 -3.58448,-0.15258 -5.35932,0.05132c-0.14426,0.01657 -0.28588,0.31487 -0.35935,0.50164c1.11896,-3.37542 0.71823,-6.96013 0.71823,-10.55835c0,-1 0.11432,-2.00809 -0.00002,-3.00153c-0.04608,-0.40038 -0.71072,-0.78747 -0.4733,-1.11313c0.34995,-0.48002 1.12807,-0.37312 1.69211,-0.55953c0,0 1.37279,-0.91648 1.7673,-2.45293z" data-paper-data="{&quot;noHover&quot;:false,&quot;origItem&quot;:[&quot;Path&quot;,{&quot;applyMatrix&quot;:true,&quot;segments&quot;:[[[305.68049,142.03281],[0,0],[-0.39451,1.53646]],[[303.91323,144.48444],[0,0],[-0.56403,0.18641]],[[302.22113,145.04367],[0.34995,-0.48002],[-0.23742,0.32566]],[[302.69443,146.15623],[-0.04608,-0.40038],[0.11433,0.99344]],[[302.69443,149.15623],[0,-1],[0,3.59822]],[[301.97578,159.7093],[1.11896,-3.37542],[0.07347,-0.18677]],[[302.33516,159.20788],[-0.14426,0.01657],[1.77483,-0.2039]],[[307.69443,159.15623],[-1.78636,-0.02252],[1.38745,0.01749]],[[311.85356,159.32787],[-1.32781,-0.40278],[1.1501,0.34887]],[[314.85356,161.32787],[-1.16109,-0.31033],[1.23811,0.33091]],[[318.69443,161.15623],[-1.28132,0.02487],[12.65654,-0.24571]],[[356.69443,161.15623],[-12.65871,0],[14.66667,0]],[[400.69443,161.15623],[-14.66667,0],[4.33333,0]],[[413.69443,161.15623],[-4.33333,0],[2.41464,0]],[[420.938,161.22841],[-2.35121,0.54985],[1.7479,-0.40876]],[[425.938,159.22841],[-1.76106,0.34769],[1.77468,-0.35038]],[[431.36451,159.16986],[-1.80123,0.16686],[2.01894,-0.18703]],[[437.36451,158.16986],[-2.01952,0.18068],[4.46418,-0.39939]],[[451.0537,158.20788],[-4.42073,0.65926],[2.5428,-0.3792]],[[458.69443,157.15623],[-2.57076,0.02861],[4.77329,0]],[[474.0537,157.20788],[-4.70385,0.83237],[2.20688,-0.39052]],[[480.69443,156.15623],[-2.24111,0.01515],[3.29045,-0.02224]],[[492.5915,155.75363],[-3.04852,1.44308],[1.20051,-0.56828]],[[494.89969,148.89132],[-0.40421,1.21263],[1.5335,-4.6005]],[[498.71389,134.76208],[-0.86706,4.77252],[0.12718,-0.70001]],[[498.16369,131.85175],[1.44814,0.33351],[-1.45512,-0.33512]],[[493.69443,132.15623],[1.49321,0],[-2.59141,0]],[[485.33516,132.10458],[2.5474,-0.45077],[-3.68031,0.65125]],[[474.18316,134.12626],[3.75862,-0.40799],[-4.67139,0.50706]],[[460.02435,134.14261],[4.66816,-0.47616],[-5.33559,0.54424]],[[444.08858,136.13677],[5.31684,-0.47571],[-3.98408,0.35647]],[[432.08858,136.13677],[3.98301,-0.36824],[-3.79703,0.35104]],[[420.69443,137.15623],[3.81322,-0.00599],[-3.48175,0.00547]],[[410.24923,137.11757],[3.43173,-0.58809],[-2.39184,0.40988]],[[403.24923,139.11757],[2.39971,-0.36092],[-0.32243,0.04849]],[[391.69443,139.15623],[1.15971,0],[-18,0]],[[337.69443,139.15623],[18,0],[-5.24841,0]],[[321.33516,139.10458],[5.16473,-0.77021],[-1.04256,0.15548]],[[318.33516,140.10458],[1.04112,-0.16488],[-3.3074,0.52377]],[[309.81278,140.99672],[3.18246,-1.12559],[0,0]]],&quot;closed&quot;:true}]}" fill="#9b9b9b" stroke-width="0.5"/></g></g></svg>