<svg version="1.1" xmlns="http://www.w3.org/2000/svg" xmlns:xlink="http://www.w3.org/1999/xlink" width="573.16287" height="353.9891" viewBox="0,0,573.16287,353.9891"><g transform="translate(-43.53772,-36.03848)"><g data-paper-data="{&quot;isPaintingLayer&quot;:true}" fill-rule="nonzero" stroke="none" stroke-linecap="butt" stroke-linejoin="miter" stroke-miterlimit="10" stroke-dasharray="" stroke-dashoffset="0" style="mix-blend-mode: normal"><path d="M225.51486,67.21695c0.16363,-0.02038 0.33033,-0.03088 0.49949,-0.03088c0.06363,0 0.12691,0.00149 0.18981,0.00442c1.0262,-0.44088 2.16725,-0.70607 3.18498,-1.15948c2.22105,-0.98951 4.46202,-1.88682 6.67081,-2.85128c0.98722,-0.63428 2.26823,-1.21492 3.53586,-1.73322c0.46894,-0.61704 0.86306,-1.33929 1.57745,-1.50436c0.21593,-0.04989 0.43269,-0.09377 0.65018,-0.13232l-0.10021,-0.20042l2.92762,-1.46382c0.55586,-0.29265 1.18901,-0.45828 1.86084,-0.45828c2.20914,0 4,1.79086 4,4c0,0.34525 -0.04374,0.68029 -0.12598,0.99987c0.08224,0.31958 0.12598,0.65462 0.12598,0.99987c0,1.74771 -1.12086,3.23362 -2.68295,3.77811l-3.91206,1.46701l-0.06114,-0.16304c-1.85519,1.58372 -3.80872,3.07517 -5.80776,4.28026c-0.28031,0.47869 -0.59622,0.92306 -1.0316,1.25684c-1.1614,0.89039 -2.72774,1.06164 -4.08105,1.6186c-1.72137,0.70844 -3.44225,1.40768 -5.16918,2.09103c-0.33222,0.46271 -0.76077,0.85159 -1.2563,1.13731l-2.43681,1.46209l-0.07927,-0.13211l-0.20127,0.28553c-3.69846,1.49747 -7.33094,2.76767 -11.04895,3.8717c-0.42856,1.09623 -1.32684,1.9571 -2.44734,2.33513c-0.33597,0.47995 -0.77462,0.88275 -1.28408,1.1765l-2.43681,1.46209l-0.10547,-0.17578c-0.18319,0.17337 -0.37299,0.34022 -0.57047,0.49947c-0.17451,0.14072 -6.61993,1.16246 -7.05138,1.23257l-0.32991,-0.10083v0.11446h-3.61129c-0.01186,0.3793 -0.08329,0.75316 -0.22966,1.11777c-1.60948,4.00911 -8.30818,2.8361 -11.04205,2.2827c-1.96356,-0.39748 -4.11447,-1.5307 -6.07862,-2.0186c-4.21284,-1.04649 -9.01734,-1.29876 -12.92764,-3.35817c-0.44366,-0.23366 -1.1252,-0.70524 -1.88536,-1.32345c-4.1104,-0.12504 -7.55874,-5.40043 -6.54037,-8.88577c0.72679,-2.48741 2.82654,-3.91374 5.32265,-4.73013c0.01095,-0.77473 0.2019,-1.34756 0.2019,-1.34756c0.5354,-1.50286 0.71184,-2.89736 0.60436,-4.2336c-1.73938,-1.61767 -2.46522,-4.76436 -3.45821,-6.86104c-0.26013,-0.54925 -0.55789,-1.08438 -0.86887,-1.61433c-1.2557,-1.00641 -2.6239,-1.67285 -3.10731,-3.83406c-0.22321,-0.99793 -0.21364,-2.01661 -0.12378,-3.04244l-0.43071,-1.07677c-0.20585,-0.48197 -0.31978,-1.01257 -0.31978,-1.56979c0,-2.20914 1.79086,-4 4,-4c0.72847,0 1.41146,0.19473 1.99975,0.53498c0.58829,-0.34025 1.27128,-0.53498 1.99975,-0.53498c0.84052,0 1.62049,0.25925 2.26431,0.70214l2.95409,1.9694l-0.03869,0.05803c0.08413,0.03026 0.16797,0.06162 0.25149,0.09412c1.66499,0.64784 2.62523,2.43045 4.03542,3.52738c1.62915,1.26725 3.36197,2.63438 5.16689,3.92087c0.49581,-0.36389 1.07858,-0.61626 1.71133,-0.72015c1.44435,-0.83953 3.77978,-0.4539 5.54649,-0.53348c2.21012,-0.09955 3.53103,0.46153 4.521,1.46113l0.08331,-0.10414l0.52221,0.41777c0.61944,-0.08413 1.23616,-0.19022 1.85232,-0.31194c0.41607,-0.36234 0.90778,-0.64004 1.44831,-0.80627l2.91209,-0.97069c1.93602,-1.44115 4.56414,-1.57392 6.81891,-2.43478c2.76268,-1.05478 5.17398,-2.55269 7.94509,-3.64294l0.53353,0.14919l-0.03063,-0.24506l3.9369,-0.49211c0.18258,-0.02552 0.36912,-0.03871 0.55873,-0.03871c1.8637,0 3.42971,1.27458 3.87388,2.99961h0.12561c2.20914,0 4,1.79086 4,4c0,1.79936 -1.1881,3.32123 -2.8226,3.8239l-2.91212,0.9707c-0.71889,0.23684 -1.4179,0.48944 -2.10529,0.75048c0.24656,0.31696 0.44646,0.672 0.5894,1.05482l0.28134,0.70335l0.00055,-0.0002c0.06805,0.12585 0.1361,0.2517 0.20414,0.37755c0.05962,0.04023 0.11809,0.08203 0.17537,0.12534c0.03892,-0.00321 0.07905,-0.00423 0.12044,-0.00295c0.48151,0.01491 0.90719,0.17807 1.29832,0.43293l1.05582,-0.63349c0.61343,-0.38272 1.33807,-0.60386 2.11437,-0.60386c2.20914,0 4,1.79086 4,4c0,0.20068 -0.01478,0.3979 -0.0433,0.59065zM206.78848,64.34996c0.00835,0.02354 0.01648,0.04718 0.02439,0.07092c0.18281,-0.06289 0.36356,-0.12436 0.54163,-0.18457c0.01833,-0.02362 0.03692,-0.04702 0.05576,-0.07021c-0.20558,0.06293 -0.41278,0.12427 -0.62178,0.18387z" fill="#00bfd9" stroke-width="0.5"/><path d="M241.07986,105.12691c0.93121,-3.20369 4.33453,-5.11944 6.00449,-8.0077c2.76853,-4.78829 3.87769,-11.27327 7.12866,-15.69932c4.11716,-5.60533 9.50422,-8.80824 15.48857,-11.80274c0.65017,-0.32534 1.28858,-0.65417 1.91897,-0.98418c-0.07362,-0.30343 -0.11263,-0.62039 -0.11263,-0.94646c0,-1.71696 1.08178,-3.18127 2.60094,-3.74851l2.37933,-0.95174c2.1436,-0.91781 3.93891,-1.5818 5.6798,-2.08705c0.78995,-0.26453 1.43475,-0.46588 1.67531,-0.53879l-0.12555,-0.25111l3.92752,-1.96376c0.55585,-0.29265 1.189,-0.45828 1.86083,-0.45828c0.52217,0 1.02097,0.10005 1.47827,0.28204c0.00751,-0.02992 0.01453,-0.05896 0.02104,-0.08709v-2.6941c0,-2.20914 1.79086,-4 4,-4c1.68216,0 3.12179,1.03836 3.71291,2.50909l0.85106,1.98585l1.07422,-0.53711c0.55585,-0.29265 1.189,-0.45828 1.86083,-0.45828c2.20914,0 4,1.79086 4,4c0,0.46527 -0.07944,0.91199 -0.22549,1.32734c0.3967,-0.17736 0.79455,-0.35211 1.19393,-0.52344l0.05433,0.00455l-0.00917,-0.02293l2.41545,-0.96618c0.48197,-0.20585 1.01258,-0.31979 1.56979,-0.31979c2.16791,0 3.933,1.72464 3.99814,3.87675c4.56406,-0.58437 9.12501,-1.1271 13.70867,-1.58075c0.68621,-0.2015 1.37516,-0.32989 2.0733,-0.23142c0.04541,0.00641 0.09076,0.01308 0.13604,0.02003c0.0072,-0.00066 0.0144,-0.00133 0.02159,-0.00199l-0.00609,-0.04266l3.43145,-0.49021c0.20643,-0.03286 0.41812,-0.04993 0.6338,-0.04993c0.9078,0 1.74498,0.30241 2.41627,0.81199c1.29487,-0.03688 2.51669,0.00904 3.58291,0.18787c2.10204,0.35256 4.68623,0.08379 6.19305,1.59123c0.92006,0.92043 -0.99932,2.54347 -0.77809,3.82595c0.0853,0.49448 0.90326,-1.03481 1.31021,-0.74124c0.10988,0.07927 0.21778,0.16855 0.32166,0.26611c0.33025,-0.48111 0.75767,-0.80016 1.29288,-0.77094c3.21401,0.17549 8.45489,5.48076 11.5828,7.32105c1.24988,0.73536 2.66305,1.32325 3.62011,2.41273c4.2033,4.78484 3.64311,12.11431 1.83667,17.55586c-0.37417,1.45134 -0.11461,3.24474 -1.12251,4.35402c-0.24608,0.27083 -0.51378,0.51487 -0.79785,0.73874c-0.00355,0.02545 -0.00734,0.05083 -0.01137,0.07612l-0.49019,3.43144l-0.1137,-0.01624c0.01742,0.12284 0.03309,0.24603 0.04689,0.3696c0.06377,0.57071 -1.13786,3.52263 -2.01065,5.54936c1.26019,0.67333 2.11765,2.00168 2.11765,3.53031c0,1.10458 -0.44772,2.10458 -1.17159,2.82844l-2.99964,2.99961c-1.30289,2.58465 -3.98063,4.21317 -6.14358,6.1366c-0.01263,0.01123 -0.02526,0.02246 -0.03788,0.03369c0.83024,0.73294 1.35386,1.80518 1.35386,2.99972c0,1.59682 -0.93568,2.97509 -2.28867,3.61647l-2.8476,1.42379c-2.22964,1.27373 -4.55486,2.3925 -6.69058,3.81804c-1.91593,1.27884 -3.39882,3.35808 -5.59329,4.05844c-0.10639,0.03395 -0.21307,0.06648 -0.32003,0.09766l0.03104,0.06207l-4.92736,2.4637c-0.55586,0.29265 -1.189,0.45828 -1.86084,0.45828c-0.94368,0 -1.81104,-0.32679 -2.49508,-0.87337c-1.17148,0.4829 -2.29825,1.03294 -3.31451,1.72078c-3.10649,2.10261 -2.61587,3.01491 -6.30662,4.40553c-1.92666,0.72593 -3.82375,0.49444 -5.74156,1.08038c-7.15627,2.18644 -13.70504,3.69316 -21.24297,3.6459c-1.32419,0.27662 -4.49068,0.97178 -5.56349,1.00571c-1.62219,0.05131 -3.36154,0.33191 -4.8603,-0.29085c-5.95614,-2.47487 -7.00113,-10.4286 -7.44915,-15.79975c-0.32361,-3.87967 0.24911,-5.43117 -2.08581,-7.39327c-0.27368,-0.0045 -0.54068,-0.03649 -0.79836,-0.09333l-2.41868,-0.48374l0.01437,-0.07186c-0.08541,0.0061 -0.17093,0.01129 -0.25657,0.01554c-1.03124,0.05108 -1.93548,-0.73328 -2.93713,-0.98381c-3.10618,-0.7769 -7.78868,-0.87466 -10.55875,-2.43178c-0.94774,-0.53275 -1.19589,-1.86658 -2.05511,-2.53275c-1.00933,-0.78255 -5.96499,-0.36215 -6.81349,-0.43627c-3.27161,-0.28579 -4.64549,-1.32513 -7.93338,-2.7616l-0.09421,-5.50292c0,0 0.14162,-0.70813 0.6054,-1.46245c-0.02648,-0.1859 -0.04018,-0.37591 -0.04018,-0.56913c0,-0.60878 0.136,-1.18579 0.37927,-1.70231l1.82149,-4.10358l0.0976,0.04332c0.03849,-0.15894 0.0805,-0.31728 0.12634,-0.47498z" fill="#00bfd9" stroke-width="0.5"/><path d="M95.41023,61.32354c0.14179,-1.51434 1.2421,-2.61465 1.2421,-2.61465c2.03281,-1.91225 4.54906,-3.47278 7.24398,-4.19831c5.15672,-1.38829 12.36646,-2.5778 16.86048,1.49866c1.18079,1.07108 1.01079,3.2842 2.33287,4.17502c1.35358,0.91204 4.27217,2.19219 5.11107,3.29224c1.22783,1.61004 1.90953,7.15842 3.69397,8.62417c0.72144,0.5926 1.55633,1.02975 2.43439,1.38093c2.01513,-0.57124 4.22153,-1.15193 6.09635,-0.64627h4.49941c2.20914,0 4,1.79086 4,4c0,1.7477 -1.12086,3.23361 -2.68294,3.7781l-3.51209,1.31704l-0.1176,-0.3136l-0.57319,0.50409c-2.52453,0.04747 -5.125,0.01099 -7.62069,-0.43709c-0.67684,0.19495 -1.35754,0.37017 -2.05305,0.47132c-0.27411,0.03987 -7.84027,0.02997 -8.13773,0.02997c-4.53708,0 -8.97207,0.44524 -13.49825,0.44994c-0.91774,0.00095 -7.19332,0.04015 -7.81686,-0.14514c-6.32037,-1.8782 -9.09318,-9.58611 -10.07691,-15.34568l-0.05442,-2.00742c0,0 0,-3.02386 2.62913,-3.81331z" fill="#8f592b" stroke-width="0.5"/><path d="M73.96376,74.44931c4.89143,0.60925 7.92118,7.15678 9.63628,10.9157c0.83187,-0.3489 1.90569,-0.41686 3.22145,0.24102c3.57771,1.78885 1.78885,5.36656 1.78885,5.36656l-2.88826,1.98019c-0.07943,0.89334 -0.36477,1.6817 -1.04186,2.22928c-4.7522,3.84316 -12.01133,-3.68533 -15.00252,-6.19792l-0.15326,-0.39215l-0.11365,0.09092l-1.97984,-2.4748c-0.56044,-0.68838 -0.89643,-1.56679 -0.89643,-2.52366c0,-0.54454 0.10881,-1.06367 0.30588,-1.53682l-1.63396,-1.63395c-0.72386,-0.72386 -1.17158,-1.72386 -1.17158,-2.82844c0,-2.20914 1.79086,-4 4,-4c0.16915,0 0.33585,0.0105 0.49948,0.03088l4.44166,0.49351l-0.01897,0.17072c0.33529,0.00519 0.67086,0.02713 1.00674,0.06896z" fill="#f0e5ad" stroke-width="0.5"/><path d="M146.90584,119.44504c0.2069,-0.44292 0.47244,-0.83371 0.87326,-1.10423c0.18196,-0.12281 0.36714,-0.23957 0.55517,-0.35097l-0.13862,-0.13862l2.49967,-2.49967c0.72386,-0.72386 1.72386,-1.17157 2.82843,-1.17157c2.20914,0 4,1.79086 4,4c0,0.77629 -0.22114,1.50092 -0.60385,2.11435l-1.33107,2.21846c0.22024,2.49619 -2.27595,3.74431 -2.27595,3.74431l-0.35863,-0.51982l-1.46211,2.43681c-0.69092,1.19828 -1.98511,2.00486 -3.46768,2.00486c-2.20914,0 -4,-1.79086 -4,-4c0,-0.74346 0.20283,-1.43956 0.55618,-2.03595c-0.7554,-2.52271 1.61881,-4.21858 1.61881,-4.21858c0.23546,-0.15978 0.47093,-0.31957 0.70639,-0.47935z" fill="#f0e5ad" stroke-width="0.5"/><path d="M196.94279,119.1499l-1.0614,0.75814c-0.66205,0.48544 -1.47896,0.77212 -2.36283,0.77212c-0.37402,0 -0.73605,-0.05133 -1.07943,-0.14734c-3.10409,1.71843 -6.1545,3.69357 -10.13844,2.25877c-0.58037,-0.20902 -1.03424,-0.59203 -1.41307,-1.07325c-0.55738,0.29474 -1.19279,0.46163 -1.86718,0.46163c-0.25631,0 -0.50699,-0.02411 -0.7499,-0.07018c-0.24291,0.04607 -0.49359,0.07018 -0.7499,0.07018c-2.20914,0 -4,-1.79086 -4,-4c0,-0.59101 0.12818,-1.15209 0.35825,-1.65694l1.46496,-3.41828l0.46806,0.2006c0.01675,-0.02548 0.03387,-0.05107 0.0513,-0.07673l0.03051,-1.04293c0.27986,-0.10368 0.55972,-0.20737 0.83958,-0.31105l0.06954,-0.2434l-0.1351,-0.18576l0.23753,-0.17275l0.74443,-2.6055c0.44885,-1.71819 2.01154,-2.98614 3.87039,-2.98614c1.022,0 1.95448,0.38328 2.66154,1.01395c0.11146,-0.00933 0.22421,-0.01409 0.33808,-0.01409c1.1691,0 2.22105,0.50155 2.95243,1.30123l1.75788,-0.87894l0.01915,0.0383l0.06256,-0.078c1.97261,-0.78963 3.8046,-2.58649 5.91719,-2.37353l0.67467,-0.4048c0.48377,-0.30183 1.03671,-0.50316 1.62961,-0.57478c1.36349,-1.70689 3.3059,-2.95281 5.20503,-2.83786c3.04961,0.18459 4.22138,1.40419 4.40553,2.99737c0.32889,0.19289 0.62743,0.42444 0.88128,0.69539c2.53545,2.70631 3.42982,6.70116 1.12054,9.30092c-0.06891,0.1481 -0.14662,0.29128 -0.23246,0.42887l-0.40171,0.66953c0.0038,0.07143 0.00572,0.14335 0.00572,0.21573c0,0.98361 -0.35503,1.8843 -0.94393,2.58091l-2.46333,2.95599c-0.7336,0.89307 -1.84649,1.46272 -3.09243,1.46272c-1.60139,0 -2.98299,-0.94104 -3.62196,-2.3003c-0.49784,-0.22966 -0.98983,-0.46516 -1.45269,-0.72977z" fill="#f0e5ad" stroke-width="0.5"/><path d="M260.02746,165.5293c-0.60518,1.34936 -2.38065,1.57485 -3.89697,2.04922c-0.47338,0.75805 -1.03317,1.42588 -1.79106,1.87358c-0.22792,0.13464 -0.46121,0.25586 -0.69914,0.36546l0.08953,0.1343l-2.95409,1.96941c-0.64382,0.4429 -1.4238,0.70214 -2.26432,0.70214c-2.20914,0 -4,-1.79086 -4,-4c0,-0.84052 0.25924,-1.62049 0.70214,-2.26431l1.96941,-2.95412l0.22162,0.14775l0.13131,-0.60247c0.87118,-0.7373 1.54656,-2.05914 2.45477,-2.68591c-0.34056,-0.25166 -0.75178,-0.46811 -1.08045,-0.71231c-0.16992,0.75092 -0.44961,1.45054 -1.05953,1.81768c-1.347,0.81081 -6.88171,0.82487 -8.83801,0.75504c-1.67877,-0.05993 -3.53928,0.46928 -5.0303,-0.30448c-3.0465,-1.58098 -4.20887,-3.40001 -4.34178,-5.36282c-0.68715,-0.69017 -1.25188,-1.45296 -1.70377,-2.26852c-0.64286,-0.16653 -1.24307,-0.43302 -1.76166,-0.81818c-6.94424,-5.1575 0.15827,-12.69812 3.85776,-16.41129c1.19805,-1.20248 1.97076,-3.15418 3.61119,-3.59039c1.40884,-0.37463 2.66893,-0.38099 3.77892,-0.10745c0.61392,-0.30555 1.09323,-0.51175 1.33954,-0.56313c1.61484,-0.33689 3.28324,0.32428 4.92487,0.48641l0.10082,0.06174l0.0083,-0.04148l2.42706,0.4854c1.86956,0.33578 3.28821,1.97065 3.28821,3.93686c0,1.277 -0.59841,2.41424 -1.53011,3.14659l-1.84028,1.47219c0.14209,0.14195 0.27194,0.29955 0.38778,0.47508c2.07697,3.14716 -2.55252,9.47193 -5.76545,11.3585c0.90673,-0.00183 1.64239,0.02574 1.74842,0.04498c0.32908,0.05972 0.47335,1.03203 0.66079,0.75504c0.53034,-0.7837 -0.10431,-2.24131 0.69148,-2.75335c1.68343,-1.08318 3.83475,-1.60945 5.82958,-1.44255c1.92727,0.16125 4.34228,1.92373 6.26231,3.97238l2.18829,-0.43765c0.27869,-0.06147 0.56828,-0.09387 0.86544,-0.09387c2.20914,0 4,1.79086 4,4c0,1.70427 -1.06585,3.15961 -2.56733,3.73578c-0.05458,0.29339 -0.14119,0.57553 -0.25605,0.84264c0.21,0.97988 0.23564,1.94567 -0.15923,2.8261z" fill="#f0e5ad" stroke-width="0.5"/><path d="M181.16961,268.99921c-1.09877,2.19414 -2.04476,4.46617 -2.90326,6.76498c0,0 -1.40448,3.74532 -5.1498,2.34084c-3.74532,-1.40448 -2.34084,-5.1498 -2.34084,-5.1498c0.1531,-0.40675 0.3083,-0.81288 0.46604,-1.21811c-0.75266,-0.72734 -1.22067,-1.74736 -1.22067,-2.87669c0,-0.10823 0.0043,-0.21547 0.01274,-0.32153c-0.01379,-0.66664 0.1067,-1.14857 0.1067,-1.14857l0.11609,-0.46277l0.30463,-2.13238l0.08827,0.01261c-0.01796,-0.07195 -0.03591,-0.1439 -0.05387,-0.21585l0.14207,-0.17689l-0.09724,-0.02431l0.97958,-3.91832c0.40423,-1.78128 1.99726,-3.11103 3.90086,-3.11103c2.08137,0 3.79144,1.58969 3.98229,3.62115c1.734,0.438 3.0173,2.00833 3.0173,3.87839c0,0.55721 -0.11393,1.0878 -0.31977,1.56976l-0.96616,2.41544l-0.06039,-0.02416z" fill="#f0e5ad" stroke-width="0.5"/><path d="M198.77928,270.05869c-0.13313,-1.2731 -0.25808,-2.55081 -0.26189,-3.89792c-0.00551,-1.95288 0.38666,-3.9345 0.05165,-5.85843c-0.4666,-2.6796 -1.03812,-4.92125 -1.36121,-7.51263c-0.51325,0.23951 -1.08577,0.37327 -1.68952,0.37327c-2.20914,0 -4,-1.79086 -4,-4c0,-0.5572 0.11393,-1.08779 0.31977,-1.56975l0.96616,-2.41547l0.44485,0.17793l0.43736,-0.65605l0.00327,-0.86478c0.26486,-0.12995 0.52971,-0.2599 0.79457,-0.38985l1.06589,-1.77647c0.69092,-1.19828 1.98511,-2.00486 3.46768,-2.00486c1.79936,0 3.32123,1.1881 3.8239,2.8226l1.47063,4.41191l-0.04697,0.01566c0.03982,0.07396 0.07923,0.14815 0.11823,0.22259c0.08153,0.15561 0.15269,0.31889 0.21472,0.48855c1.05613,-0.37181 2.26105,-0.47785 3.44576,-0.63115c0.08803,-0.10369 0.14379,-0.15944 0.14379,-0.15944l2.67068,-1.61699l2.92526,-0.48756c0.2373,-0.04388 0.48195,-0.06682 0.73195,-0.06682c2.20914,0 4,1.79086 4,4c0,1.48258 -0.80659,2.77677 -2.00489,3.46769l-2.4368,1.46208l-0.1119,-0.1865l-0.27465,0.39058c-1.79667,0.60279 -3.7222,1.12833 -5.60759,0.93677c-0.15405,-0.01565 0.36069,0.03839 0.42942,0.17715c0.24763,0.49995 0.36942,1.05928 0.45601,1.61043c0.24922,1.58641 0.5651,3.18044 0.5489,4.78622c-0.03199,3.17224 -1.69595,7.06243 -2.67569,10.03496c-0.02609,0.07914 -0.04942,0.16119 -0.07057,0.24556c0.11179,1.27444 0.19331,2.55047 0.17708,3.82811l-0.5498,0.59478l0.33588,0.13435l-0.96527,2.41316c-0.56724,1.51916 -2.03154,2.60094 -3.74851,2.60094c-1.96621,0 -3.60108,-1.41865 -3.93686,-3.28821l-0.48539,-2.42701l0.21984,-0.04397c-0.12246,-0.31951 -0.22102,-0.64842 -0.28978,-0.98904c-0.30017,-1.48689 0.60328,-2.91176 1.25403,-4.3524z" fill="#f0e5ad" stroke-width="0.5"/><path d="M231.38682,248.99193c-1.22234,1.21149 -2.4655,2.41726 -3.70468,3.65148l-0.24302,0.05031l0.07412,0.09265l-2.47479,1.97984c-0.68839,0.56044 -1.56679,0.89644 -2.52367,0.89644c-2.20914,0 -4,-1.79086 -4,-4c0,-1.10457 0.44772,-2.10457 1.17157,-2.82843l1.91012,-1.91012c1.32991,-2.74943 4.00594,-4.61297 5.9636,-6.95764l0.19319,-0.06314l-0.06793,-0.06793l1.99975,-1.99975c0.42349,-0.42349 0.9415,-0.75246 1.51967,-0.95256l2.31155,-4.16079l0.01191,0.00662c0.00692,-0.02155 0.0139,-0.04308 0.02094,-0.0646c0.37803,-1.15664 0.97871,-2.21168 1.65213,-3.23351c-0.47959,-0.34017 -0.88097,-0.78337 -1.17189,-1.29733c-0.4166,-0.32447 -0.82171,-0.66245 -1.21364,-1.01358c-0.96767,-0.86691 -2.81125,-1.45799 -2.75601,-2.75601c0.00095,-0.02234 0.00244,-0.04442 0.00446,-0.06624c-0.04642,-0.03061 -0.08543,-0.0563 -0.11634,-0.07648l-0.00732,0.0061l-0.01973,-0.02368c-0.01682,-0.01087 -0.03006,-0.0193 -0.03953,-0.0251l-0.00669,-0.03036l-0.43519,-0.52223l-0.04937,0.0395l-1.97984,-2.47481c-0.56044,-0.68838 -0.89642,-1.56678 -0.89642,-2.52365c0,-2.20914 1.79086,-4 4,-4c1.24595,0 2.35885,0.56966 3.09245,1.46274l1.80328,2.16395c1.20444,0.58573 2.67916,0.69652 3.80596,1.37001c1.84183,-2.11291 4.2607,-4.89738 5.96584,-5.55324c2.61403,-1.00545 4.30164,-1.2988 5.74967,-0.85627c0.61616,-1.84502 1.41246,-4.20836 1.515,-4.40124c0.56468,-1.06204 1.43534,-1.951 2.2189,-2.88314c-0.47706,-0.61727 -0.87869,-1.2911 -1.18121,-1.91318c-1.77115,-3.64204 -1.0625,-7.25746 1.81042,-8.50679c-0.05639,-0.11671 -0.10713,-0.23666 -0.15182,-0.35988c-0.84447,-2.32812 1.78904,-4.70971 3.35279,-6.63011c0.85439,-1.04925 2.40733,-1.23735 3.58955,-1.89557c0.11922,-0.06638 0.24068,-0.135 0.36424,-0.2055c-0.60649,-0.49724 -1.09295,-1.0727 -1.32015,-1.81712c-0.57037,-1.86883 1.30029,-3.68519 1.95044,-5.52779c0,0 2.05801,-3.42996 5.48796,-1.37195c0.81616,0.4897 1.32158,1.05708 1.61795,1.63745l0.35324,-0.08831l0.00115,0.00459c0.15787,-0.0376 0.31789,-0.06914 0.48026,-0.09405c3.96425,-0.60819 6.03716,-0.21767 6.94996,0.79497c0.03315,-0.01931 0.06496,-0.03795 0.09537,-0.05591l0.72514,0.14456l-0.0672,-0.336l2.41868,-0.48373c0.27868,-0.06147 0.56828,-0.09387 0.86544,-0.09387c2.20914,0 4,1.79086 4,4c0,1.24596 -0.56967,2.35886 -1.46275,3.09246l-2.97618,2.48011l-0.05165,-0.06198c-0.06337,0.08402 -0.12763,0.16744 -0.19283,0.25022c-0.77079,0.97878 -1.74614,1.61241 -2.82761,2.04976c-0.15898,2.06353 -1.88375,3.68843 -3.98805,3.68843c-1.09444,0 -2.08621,-0.43954 -2.80843,-1.15172c-0.49422,0.42068 -0.90829,0.72903 -1.16011,0.84724c-0.7976,0.37443 -1.79511,-0.1923 -2.65859,-0.08436c-1.41906,1.3033 -2.67919,3.11138 -3.71829,4.34977c-0.11976,0.14273 -0.20404,0.31933 -0.28039,0.502c1.26554,0.67167 2.12746,2.00294 2.12746,3.53553c0,1.59681 -0.93567,2.97509 -2.28865,3.61646l-0.16871,0.08435c-0.75839,1.609 -1.97788,3.03127 -3.0617,4.62985c0.63405,0.70782 1.01964,1.64284 1.01964,2.66791v2.99962h-0.12698c0.03178,0.23597 0.05326,0.47377 0.0628,0.71371c0.04125,1.03817 -0.12182,2.04537 -0.44289,3.0153c0.00877,0.23549 0.01018,0.46652 0.00632,0.68882c-0.05077,2.92702 -0.29885,5.13826 -1.55615,7.0971c-0.19072,0.39402 -0.41423,0.82164 -0.67318,1.28789c-0.73577,1.32479 -2.43984,1.80114 -3.71134,2.62557c-0.51885,0.33642 -1.23481,0.79754 -2.03887,1.24418c-0.76517,0.48334 -1.56088,0.8748 -2.35956,1.15397c-0.58581,0.20476 -1.18702,0.33334 -1.79821,0.41365c-0.61171,0.43315 -1.25879,0.79163 -1.99821,0.98945c-1.98069,1.50367 -4.76763,1.33373 -6.79368,2.90289c-2.10522,3.2802 -4.63403,6.09091 -7.31267,8.80907c-0.23939,0.55338 -0.51151,1.09212 -0.82366,1.61244zM248.4945,221.41311c0.09139,-0.11495 0.18287,-0.22984 0.27437,-0.34471c0.00629,-0.03119 0.01349,-0.06191 0.02163,-0.09211c0.08144,-0.30233 -0.07272,0.00888 -0.296,0.43682zM246.68851,224.09584l0.61682,-1.02802c-0.35506,0.37361 -0.71603,0.74155 -1.08083,1.1058c0.02096,0.05208 0.04085,0.1047 0.05965,0.15784l0.21676,-0.12386c0.0629,-0.03745 0.12543,-0.0747 0.1876,-0.11176z" fill="#f0e5ad" stroke-width="0.5"/><path d="M100.03018,229.66549c0,-2.20914 1.79086,-4 4,-4c0.84052,0 1.62049,0.25924 2.26431,0.70214l0.20524,0.13683c-0.08081,-0.22223 -0.18164,-0.43539 -0.30962,-0.63621c-1.19459,-1.87439 -2.98405,-2.11877 -4.64789,-2.67999c-0.28557,-0.01718 -0.56724,-0.03111 -0.84159,-0.03502c-4.49342,-0.06395 -8.73181,-2.36391 -11.92316,-5.48566h-3.24488c-2.20914,0 -4,-1.79086 -4,-4c0,-2.20914 1.79086,-4 4,-4c0.16665,0 3.33289,0 3.49954,0c0.83322,0 1.66645,0 2.49967,0c0,0 3.27587,0 3.89849,2.96456c0.33279,0.16318 0.66345,0.33044 0.98856,0.50836c0.60979,0.33371 1.23895,0.63046 1.87976,0.90225c1.44208,-3.21567 4.76941,-5.76232 8.63666,-3.89229c3.0762,1.48751 3.20599,4.82486 2.23231,7.73132c0.24423,0.18748 0.47907,0.37216 0.70097,0.53978c2.42175,1.82939 3.4878,3.32764 4.31761,6.00141c0.65839,-0.47641 1.46759,-0.75723 2.34238,-0.75723c1.10458,0 2.10459,0.44772 2.82844,1.17159l2.49967,2.4997l-0.31062,0.31061c0.58004,0.44751 1.06093,0.98844 1.39151,1.67101c0.81898,1.69097 0.09812,3.7478 -1.01127,5.53766l0.5189,0.29651c0.50206,0.27469 0.93875,0.65391 1.28082,1.10839c0.41302,-0.03404 0.825,-0.05688 1.23137,-0.07391c0.26079,-0.01093 0.50645,0.05911 0.74554,0.16684l4.53476,-2.2674l0.05942,0.11884c0.17648,-0.12294 0.35533,-0.24277 0.53678,-0.35919c1.1527,-0.73953 2.70446,-0.42645 4.05974,-0.63163l2.90014,-0.48337c0.2373,-0.04388 0.48195,-0.06682 0.73195,-0.06682c2.20914,0 4,1.79086 4,4c0,0.67183 -0.16563,1.30498 -0.45828,1.86084l-0.38467,0.76934c0.32703,0.20983 0.6215,0.46596 0.87416,0.75916c2.22271,-0.27804 4.4843,-0.06774 4.68698,-0.00197c0.296,0.09606 1.3386,1.43603 2.48853,3.02401c0.73306,0.03634 1.54714,0.32349 2.39504,1.05026c0.44683,0.383 0.77156,0.77538 1.00047,1.16611c1.15041,-0.37973 2.31874,-0.72813 3.51776,-1.03176l0.10245,0.02711l-0.00938,-0.04688l2.41868,-0.48375c0.2787,-0.06147 0.56831,-0.09388 0.86548,-0.09388c2.20914,0 4,1.79086 4,4c0,1.41045 -0.73002,2.6504 -1.83282,3.36261l-2.948,1.96533l-0.08018,-0.12027c-0.12387,0.13116 -0.25084,0.2597 -0.38121,0.38532c-1.39384,1.34305 -5.72649,2.03882 -9.14638,1.92465c-0.19257,0.07733 -0.38546,0.15446 -0.5788,0.23126c-1.25674,2.43114 -4.27564,3.54148 -6.62751,4.99594l-0.67551,-0.11051l0.05736,0.28681l-2.41868,0.48375c-0.2787,0.06147 -0.56831,0.09388 -0.86548,0.09388c-2.20914,0 -4,-1.79086 -4,-4c0,-0.9836 0.35502,-1.88429 0.94392,-2.5809l0.05508,-0.06609c-1.19715,0.03014 -2.56473,-0.32934 -3.71936,-0.41766c-3.46825,-0.2653 -5.67421,-1.07857 -6.98097,-3.98528c-0.79735,-0.73122 -1.29724,-1.78162 -1.29724,-2.94878c0,-0.63009 0.14569,-1.22615 0.40521,-1.75634c0.04936,-0.42004 0.13718,-0.82452 0.25616,-1.21659c-0.03032,-0.01656 -0.0606,-0.03301 -0.09086,-0.04932c-0.10743,-0.0579 -0.03162,-0.47917 -0.06166,-0.36089c-1.65989,6.5353 -9.87279,6.52134 -15.29,5.87325c-1.56034,-0.18667 -3.40252,0.39643 -4.68684,-0.50913c-3.40643,-2.40186 -4.85517,-7.31252 -2.47805,-10.98177l-1.87915,-5.82607c0.30073,-0.17768 0.59423,-0.39643 0.88418,-0.63534c-0.3532,-0.59631 -0.55593,-1.29225 -0.55593,-2.03554z" fill="#f0e5ad" stroke-width="0.5"/><path d="M102.45184,148.75462c3.07866,0.56147 3.07866,3.92087 3.07866,3.92087l-2.00972,1.54381c0.32472,0.57824 0.5099,1.24536 0.5099,1.95574c0,0.25631 -0.02411,0.507 -0.07018,0.7499c0.04607,0.24291 0.07018,0.49359 0.07018,0.7499c0,0.47722 -0.08357,0.93493 -0.23688,1.35927c1.96284,-1.96418 4.98293,-2.77651 8.14621,-3.32158c-0.56679,-0.27451 -1.08327,-0.60838 -1.53182,-1.0151c-1.43389,-1.30018 -2.21339,-3.24918 -2.77198,-5.10241c-0.07655,-0.25395 -0.11261,-0.51856 -0.12179,-0.78985c-0.61348,-0.70299 -0.98509,-1.62251 -0.98509,-2.62883c0,-0.83375 0.25509,-1.60792 0.69147,-2.24872c-0.95509,-1.24635 -2.12897,-2.31524 -3.18212,-3.48206l3.99186,-5.39166c0,0 2.37672,-1.90139 4.64229,-0.31373c1.49447,0.22346 3.10176,1.00374 4.45884,1.5344c0.97826,0.38253 1.97856,1.22148 2.96844,2.21706c0.65264,-0.31252 1.28532,-0.63439 1.85671,-0.99331c0.92038,-0.57813 2.02502,-0.79035 3.03754,-1.18553l0.49185,0.07652l-0.02457,-0.172l1.39606,-0.19944l1.70115,-2.83524c0.69092,-1.19829 1.98511,-2.00488 3.46769,-2.00488c1.33382,0 2.51516,0.65284 3.24191,1.65642l0.39656,-0.19828c0.55585,-0.29265 1.18899,-0.45827 1.86082,-0.45827c2.20914,0 4,1.79086 4,4c0,1.3253 -0.64454,2.50007 -1.63725,3.22794l-3.35151,2.51362c0.5231,3.16431 -1.24584,5.03593 -3.46435,6.33951c0.24623,0.11646 0.49533,0.23048 0.74217,0.34696l0.72708,-0.56551c0.6823,-0.54123 1.54535,-0.86448 2.4839,-0.86448c2.20914,0 4,1.79086 4,4c0,0.95687 -0.33598,1.83526 -0.89641,2.52364l-1.97981,2.4748l-0.08712,-0.0697c-0.01862,0.07954 -0.03723,0.15908 -0.05585,0.23861l-0.58208,0.27066c-0.00347,0.21886 -0.02009,0.43761 -0.05091,0.65579c-0.66174,4.68512 -2.35304,5.7289 -4.27229,5.58019c-0.3264,2.66347 -0.79596,5.08646 -3.15582,6.63225c-0.34489,1.68023 -1.74339,2.9762 -3.47476,3.16717l-3.94685,0.49336l-0.02206,-0.17647c-0.20453,0.07351 -0.41116,0.14194 -0.62013,0.20469c-0.3328,0.09993 -0.68941,0.13907 -1.06285,0.1281c-1.25738,0.71138 -2.43495,1.55212 -3.84788,2.10512c-0.99145,0.38804 -4.90259,0.97944 -6.06203,1.17106c-1.16542,0.19262 -2.36417,0.75745 -3.53327,0.99247c0.10061,0.35086 0.15449,0.72148 0.15449,1.10468c0,0.21703 -0.01729,0.43003 -0.05055,0.63769c0.06061,-0.01453 0.12133,-0.02887 0.18217,-0.04302c0,0 3.90475,-0.86772 4.77247,3.03702c0.86772,3.90475 -3.03702,4.77247 -3.03702,4.77247c-2.70681,0.56465 -5.18165,1.60303 -7.65199,2.67168c0.00019,-0.00004 0.00038,-0.00008 0.00057,-0.00012l4.86213,3.13338c0,0 0.95782,1.9157 0.0699,3.64437c0.22638,0.50149 0.35237,1.05802 0.35237,1.64399c0,1.59682 -0.93568,2.97509 -2.28867,3.61647l-2.92211,1.46104l-0.2479,-0.49581l-0.94616,0.87362c-2.44643,-0.29243 -6.41776,-1.0991 -8.95288,-0.50711c-0.54063,0.12625 -1.07074,0.28845 -1.59556,0.46895c-1.09896,0.82705 -2.46551,1.54171 -3.85967,2.11755c-0.96047,1.09906 -2.40001,1.38697 -2.40001,1.38697c-1.73904,-0.02977 -3.89827,1.01214 -5.28258,0.07767h-0.5012c-2.20914,0 -4,-1.79086 -4,-4c0,-1.65417 1.0041,-3.07382 2.43604,-3.6827c1.57461,-4.17003 6.68927,-7.36666 11.06829,-5.02258c0.80608,0.43149 1.4996,0.85852 2.0904,1.28c0.83655,-0.18887 1.66572,-0.3443 2.49955,-0.45367l0.69063,-1.6115c-0.93179,0.45963 -1.88073,0.67065 -2.83876,0.35128c-0.06082,-0.02028 -0.12095,-0.04162 -0.1804,-0.06401c-0.3982,0.13289 -0.82426,0.20486 -1.26714,0.20486c-2.20914,0 -4,-1.79086 -4,-4c0,-0.9397 0.32403,-1.80371 0.86646,-2.4864c-0.53111,-2.0623 -0.74102,-4.20277 -0.85873,-5.76395c-0.00102,-0.01353 -0.00203,-0.02702 -0.00304,-0.04047c-0.46429,0.18853 -0.97201,0.29237 -1.50398,0.29237c-2.19489,0 -3.97688,-1.76783 -3.99978,-3.9573c-3.34809,-1.98464 -5.772,-5.2649 -6.87142,-9.03803c-0.12665,-0.43464 -0.21884,-0.94784 -0.27397,-1.51179c-0.00413,-0.00177 -0.00826,-0.00354 -0.01239,-0.00531c-0.11239,0.00949 -0.2261,0.01433 -0.34094,0.01433c-0.41357,0 -0.81248,-0.06276 -1.18772,-0.17929l-3.41071,-0.97449l0.01278,-0.04471c-1.39172,-0.09085 -2.72683,-0.55821 -3.93386,-1.69512c-3.43015,-3.2309 -3.81565,-5.32047 -3.47945,-9.60529c0.02969,-0.37833 0.03393,-0.77496 0.0322,-1.1784c-1.99298,-1.48122 -3.22936,-3.67273 -2.33784,-6.55144c0.76257,-2.46232 4.13029,-3.17597 6.50125,-4.18744c1.06532,-0.45447 2.32018,0.03317 3.47396,-0.06806c3.46129,-0.3037 7.05569,-0.08393 10.48121,-0.57138l2.8532,-4.89121c0.68421,-1.22316 1.99222,-2.05007 3.49335,-2.05007c1.87007,0 3.4404,1.28331 3.8784,3.01731c2.03145,0.19085 3.62115,1.90093 3.62115,3.98229c0,1.45512 -0.77699,2.72877 -1.93872,3.42869l-3.94074,2.46298l-0.08678,-0.13885l-0.26214,0.33341c-0.66904,0.24464 -1.32567,0.53459 -1.98467,0.8159c-0.06522,0.1124 -0.12753,0.22447 -0.18382,0.3364c-0.43317,0.86149 -1.02665,2.06979 -1.71661,3.37103c2.3927,-1.30345 4.93977,-2.26369 7.14779,-1.85366c2.27627,-1.77676 5.62038,-4.28944 6.43378,-4.45245c2.22918,-0.44672 5.43303,-1.48494 6.8129,0.32193c0.33837,0.44309 0.53731,0.93179 0.63854,1.45245zM97.73392,170.68661c0.71306,0.31388 1.38191,0.81799 1.99061,1.57724c0.10262,0.128 0.14705,2.16711 -0.04582,4.43988l1.23324,-1.05569c0.37375,-0.32388 0.80814,-0.57963 1.28387,-0.74793c-0.51023,-0.64861 -0.9855,-1.33268 -1.46492,-1.96537c-0.90684,-1.19673 -1.67863,-2.50625 -2.31442,-3.87404c-0.22583,0.54279 -0.44816,1.08727 -0.68256,1.6259zM69.57741,156.21026c0.03533,-0.07006 0.06954,-0.13981 0.10245,-0.2092l-0.24939,0.03117c0.04872,0.05973 0.0977,0.11908 0.14694,0.17803zM93.1656,193.7276c0.03225,-0.09719 0.06622,-0.19371 0.10201,-0.28952c-0.11381,0.06543 -0.22789,0.1278 -0.34224,0.18657z" fill="#f0e5ad" stroke-width="0.5"/><path d="M114.52915,251.79479c0,2.5 -2.5,2.5 -2.5,2.5h-0.49992c-5.93681,-0.07712 -8.79075,-2.2588 -12.07883,-7.11246c0,0 -1.38675,-2.08011 0.69337,-3.46687c2.08012,-1.38676 3.46688,0.69336 3.46688,0.69336c2.27577,3.48252 3.72027,4.96092 7.91859,4.88597h0.49992c0,0 2.5,0 2.5,2.5z" fill="#000000" stroke-width="0.5"/><path d="M119.76452,239.91448c-1.11801,2.23608 -3.35409,1.11807 -3.35409,1.11807l-1.37204,-0.78447c-3.82756,-0.76605 -6.53998,-0.57279 -9.0958,-4.07485c-0.58863,-0.80656 -0.90299,-1.79812 -1.15238,-2.76498c-0.0993,-0.38498 0.53104,-1.18688 0.13347,-1.18525c-0.43698,0.00179 -0.20262,0.93055 -0.55646,1.18698c-0.55275,0.40058 -1.55894,0.06854 -1.949,0.62876c-0.23789,0.34166 0.62238,0.5531 0.93357,0.82966c0,0 0.92848,2.32119 -1.39271,3.24967c-2.32119,0.92848 -3.24967,-1.39271 -3.24967,-1.39271c-0.3554,-1.38989 -1.59408,-2.83573 -1.06618,-4.16968c0.4689,-1.18486 6.80472,-5.62946 8.49311,-5.1834c3.02249,0.79851 2.84801,4.03366 3.98047,6.04851c1.05789,1.88216 4.04508,1.55319 5.90221,1.92439l2.62745,1.21522c0,0 2.23608,1.11801 1.11807,3.35409z" fill="#000000" stroke-width="0.5"/><path d="M355.1636,131.27749c1.24881,2.16575 -0.91694,3.41456 -0.91694,3.41456l-0.97513,0.56228c-8.439,4.85655 -17.60968,7.99228 -26.71191,11.37285c-9.0032,3.34378 -18.23183,6.88147 -27.65016,8.85948c-5.29114,1.11123 -10.02699,1.67715 -15.35309,0.78619c-1.90366,-0.31844 -3.99585,-0.11938 -5.69816,-1.02903c-5.43716,-2.90542 -6.06176,-9.3648 -7.27912,-14.62768c-0.84837,-3.3169 -0.99274,-7.45871 -3.89823,-9.7873c-4.03828,-3.23647 -9.7309,-3.38538 -15.18248,-3.77397c0.43069,0.20701 0.80755,0.48503 1.09294,0.86907c2.24808,3.02521 -0.82435,3.82623 -0.58485,6.23077c0.22164,2.22516 2.72648,4.22934 1.95195,6.66477c-0.64648,2.0328 -2.57213,3.41324 -4.02527,4.97484c-1.13035,1.21471 -2.46784,2.21869 -3.70137,3.32847c-0.1311,0.11794 -0.25493,0.24671 -0.37713,0.37789c3.63827,-0.96676 8.17221,-0.21559 11.60641,0.34798c2.59553,0.55173 4.24291,0.55854 6.3164,2.691c6.4078,6.59008 -0.64455,17.19351 -7.12716,20.49071c-0.02564,0.01304 -0.12254,0.05224 -0.27714,0.11257c1.13746,0.68287 1.13746,2.16177 1.13746,2.16177v0.49994c-0.01808,2.35914 -0.31568,3.67395 0.72134,5.85236c1.94119,4.07776 7.04386,1.87112 5.67055,8.37033c-0.26742,1.26555 -1.69937,1.95076 -2.52966,2.94259c-2.32004,2.77141 -5.45084,4.0555 -7.87954,6.2377c0.66764,0.75618 0.57493,1.67436 0.42802,2.2249c0.47877,0.22539 0.89363,0.51795 1.15971,0.96691c2.21181,3.73211 -1.52056,9.65402 -2.69805,13.19069c0,0 -0.79055,2.37171 -3.16227,1.58116c-2.37171,-0.79056 -1.58116,-3.16226 -1.58116,-3.16226c0.0007,-0.00207 0.00138,-0.00415 0.00208,-0.00623c-1.95716,1.24556 -2.8861,2.99194 -4.5717,5.21649c-1.00129,1.32145 -1.62057,3.14188 -3.10054,3.88921c-1.16722,0.5894 -2.60983,-0.18647 -3.90708,-0.35059c-1.93994,-0.24544 -5.05335,-0.70261 -6.6238,-2.01752c-1.52112,-1.27361 -1.84389,-3.82106 -3.60395,-4.7365c-0.00291,-0.00151 -0.00582,-0.00302 -0.00873,-0.00452c1.9677,3.17129 3.33607,6.59482 5.64449,9.7422c0.71982,0.98144 2.15042,1.55524 2.40798,2.74478c1.14851,5.30451 -3.20466,10.14547 -6.59609,13.57769c0,0 -1.76777,1.76776 -3.53554,0c-1.76776,-1.76776 0,-3.53554 0,-3.53554c1.46356,-1.44198 6.18342,-6.06869 5.40227,-8.41946c-0.21302,-0.64108 -1.1799,-0.71905 -1.59152,-1.25471c-1.06053,-1.38012 -1.94009,-2.89614 -2.77265,-4.42463c-1.72736,-3.17127 -2.78618,-6.13668 -5.41126,-8.74164l-2.40186,-1.92149c-0.5823,-0.45772 -0.9563,-1.16849 -0.9563,-1.9666c0,-1.38071 1.11929,-2.5 2.5,-2.5c0.15625,0 0.30915,0.01434 0.45746,0.04176l2.95314,0.4922l-0.05571,0.33426c2.18293,-0.03358 4.3507,0.29253 6.32361,1.42732c1.98106,1.13948 2.76328,3.66207 4.39504,5.2622c0.52921,0.51896 4.31265,0.96446 4.37483,0.98211c0.40747,0.11561 0.75075,0.89981 1.09226,0.64927c0.61643,-0.45221 0.50023,-1.45772 0.89896,-2.11003c0.7905,-1.29324 1.66654,-2.54172 2.64962,-3.69537c1.58021,-1.85438 3.73107,-3.26394 5.9784,-4.2048l1.92833,-0.17881c0,0 0.09749,0 0.25395,0.01925c0.26268,-0.66132 0.52725,-1.32397 0.79073,-1.99151c0.14553,-0.36872 0.63373,-0.81683 0.38472,-1.12526c-0.28484,-0.35281 -0.90532,-0.0535 -1.35798,-0.08025l-0.18976,-3.35363c-0.29981,-0.09005 -0.61612,-0.25311 -0.9434,-0.51493c-1.95219,-1.56171 -0.39047,-3.5139 -0.39047,-3.5139c0.82078,-0.98191 1.45563,-2.15557 2.46234,-2.94575c1.57584,-1.23689 3.82474,-1.47862 5.2994,-2.83455c1.15864,-1.06536 2.15821,-2.29375 3.29622,-3.38111c0.72082,-0.68875 -1.91323,-0.69188 -2.67852,-1.33087c-1.08227,-0.90365 -2.00513,-2.04308 -2.64955,-3.29713c-1.59802,-3.10974 -1.25787,-4.88548 -1.27835,-8.1458v-0.49994c0,0 -0.00001,-0.33147 0.12069,-0.75301c-2.25388,0.83822 -4.62174,1.70706 -4.65616,1.69499c-7.21936,-2.53048 -2.95136,-8.56717 -0.27357,-11.98372c0.17051,-0.21755 -0.39089,0.44859 -0.66279,0.49831c-0.70953,0.12976 -1.4579,-0.1296 -2.1638,0.01861c-2.76085,0.57969 -6.16261,2.39792 -9.14867,2.00973c-5.90082,-0.76711 -3.02098,-4.07193 -6.64245,-6.43204c-0.70633,-0.46032 -1.6197,-0.46872 -2.42956,-0.70308c-1.09364,-0.48712 -2.43656,-0.61261 -3.28092,-1.46138c-4.01965,-4.04063 -4.22073,-11.65685 -2.21879,-16.70872c2.05097,-5.17563 6.71119,-7.99783 7.38424,-13.52716l-0.02513,-0.64633c0,0 0,-2.5 2.5,-2.5c2.5,0 2.5,2.5 2.5,2.5l-0.02513,1.35342c-0.02509,0.15847 -0.0463,0.31799 -0.06499,0.47819c3.90347,-0.63589 7.73274,-1.60784 11.63756,-2.29091c0.44867,-0.07849 0.8954,-0.22696 1.34244,-0.35205c-1.04102,-0.17996 -2.0468,-0.41419 -3.00123,-0.7309c-4.4912,-1.49032 -7.81614,-2.48234 -8.87575,-7.9794c-0.12163,-0.63101 3.06619,-9.21144 3.20301,-9.50248c3.02407,-6.43243 7.65524,-12.46176 11.81835,-18.18144c0.86206,-1.18439 1.51157,-2.54608 2.23943,-3.83642c-0.29805,-0.17812 -0.59017,-0.44984 -0.85668,-0.84961c-1.38675,-2.08012 0.69338,-3.46688 0.69338,-3.46688l4.13181,-2.75454c0.40238,-0.2768 0.88986,-0.43883 1.41519,-0.43883c1.38071,0 2.5,1.11929 2.5,2.5c0,0.21873 -0.02809,0.43091 -0.08086,0.63312l-0.64793,2.71975l-0.04558,-0.01085c-0.01713,0.11716 -0.03751,0.23405 -0.06148,0.35066c-0.34493,1.67836 -4.43161,6.97711 -5.24361,8.09448c-3.16999,4.36213 -6.11949,8.72959 -8.95871,13.30743c-1.65841,2.67396 -2.82885,5.62946 -4.00265,8.54881c-0.32595,0.81068 -1.22073,1.49556 -1.13102,2.36471c0.26731,2.5898 3.72593,3.23692 5.40835,3.73348c4.79922,1.41645 9.57749,1.23496 14.45926,2.05474c5.75158,0.96586 11.09557,2.77612 13.88636,8.37033c0.32753,0.65654 1.75839,6.34343 2.18421,8.00877c0.72797,3.16239 1.10461,9.70107 4.71925,11.36893c1.27514,0.58838 2.78985,0.32778 4.17946,0.53059c6.30257,0.91985 12.09123,-0.34807 18.22967,-2.01681c9.1553,-2.48888 18.05117,-5.81656 26.93996,-9.11811c7.29254,-2.70866 14.51741,-5.37563 21.2681,-9.27629l0.97514,-0.56228c0,0 2.16575,-1.24881 3.41456,0.91694zM232.01728,134.25896c-0.46437,0.7006 -1.00174,1.36296 -1.495,2.03996c-0.77503,1.06374 -1.77249,1.95745 -2.51256,3.04579c-2.51844,3.70366 -5.74272,13.7017 0.36435,15.61488c2.44169,0.88692 4.9119,2.39215 6.29947,4.58831c0.7575,1.1989 -0.08452,2.3778 1.62624,2.27474c3.9033,-0.23513 7.69295,-3.20036 11.68452,-1.97113c1.59434,0.49099 3.77952,0.9256 4.33666,2.49804c0.6305,1.77949 -0.83909,3.69489 -1.51827,5.45637c-0.43884,1.13813 -1.27184,2.08563 -1.81152,3.17955c-0.05632,0.11415 -0.05066,0.44619 0.05658,0.37764c3.00197,-1.91889 7.23958,-2.96955 9.47536,-6.07477c3.12203,-4.33613 4.21518,-9.39767 -1.96345,-10.5216c-3.27177,-0.55516 -6.25415,-0.18333 -9.54737,-0.45897c-2.32304,-0.19444 -5.21924,0.66488 -6.93335,-0.91502c-1.29152,-1.19039 -0.34151,-3.60315 0.22908,-5.26431c1.24783,-3.63275 7.3304,-4.92487 8.75564,-8.32942c0.24893,-0.59464 -0.69314,-1.09699 -0.92417,-1.6988c-0.19694,-0.51301 -1.78883,-4.67872 -1.02018,-6.52631c-0.3829,0.07574 -0.77473,0.12326 -1.15675,0.19582c-0.99587,0.18915 -2.00225,0.31899 -2.99964,0.49994c-3.39896,0.61662 -6.66786,1.52268 -10.09582,2.01557c0,0 -0.37286,0.05327 -0.84981,-0.02627z" fill="#000000" stroke-width="0.5"/><path d="M255.58484,209.69384c0.60634,-2.42535 3.0317,-1.81902 3.0317,-1.81902l2.08021,0.52148c0.01346,0.00784 0.02691,0.01597 0.04034,0.02439c1.04663,-0.36333 1.79636,-0.05576 2.29541,0.36811c0.08938,-0.45852 0.04863,-1.03299 0.17282,-1.45896c1.05313,-3.61239 0.30316,-6.56871 2.9212,-9.67339c3.02913,-3.59219 7.53947,-4.03304 10.81928,-6.80617c0,0 1.95218,-1.56174 3.51391,0.39044c1.56173,1.95218 -0.39044,3.5139 -0.39044,3.5139c-1.00182,0.77121 -1.87911,1.73938 -3.00546,2.31361c-2.36951,1.20802 -7.39815,1.93705 -8.14542,5.40039c-0.72809,3.3745 -0.05926,8.82128 -3.67861,11.20928c0.25916,0.99372 0.38199,2.01791 0.22587,3.08784c-0.14979,1.02651 -1.22226,1.71527 -1.5466,2.70065c-0.66357,2.01599 0.95184,2.51055 1.07279,4.53444c0.30928,5.17536 -3.79292,12.48978 -8.33736,15.01883c-3.48492,1.93941 -6.3684,-0.57345 -9.80627,0.63293c-3.6019,1.26394 -5.17837,3.94858 -7.36484,6.68165c-1.24989,1.56234 -2.76063,2.9413 -3.77848,4.66382c-0.619,1.16508 -0.95128,2.53593 -1.85698,3.49522c-2.73621,2.89811 -5.29821,1.55364 -7.79484,4.27136l-2.75195,1.67304c0,0 -2.14372,1.28625 -3.42998,-0.85747c-1.28626,-2.14373 0.85748,-3.42997 0.85748,-3.42997l2.24739,-1.32662c0.79811,-0.75071 1.41695,-1.75687 2.39432,-2.25212c1.03437,-0.52414 3.78593,-0.19026 4.80897,-1.47545c0.57138,-0.7178 0.76171,-1.66934 1.14256,-2.50401c1.17651,-1.93838 2.80401,-3.56425 4.2205,-5.33486c2.7095,-3.38686 5.15953,-6.87563 9.63298,-8.31642c1.39993,-0.45088 2.89455,-0.61496 4.36501,-0.64383c0.83029,-0.01631 3.68274,1.00379 4.82622,0.27691c2.46692,-1.56814 6.02975,-6.87531 5.66081,-9.97791c-0.25703,-2.16153 -1.42036,-4.34407 -0.9269,-6.46416c0.20549,-0.88286 1.24067,-1.41743 1.45294,-2.29869c0.09064,-0.37634 -0.30741,-1.51755 -0.69827,-2.50579c-0.17846,-0.04982 -0.35594,-0.09207 -0.53199,-0.12336l-1.91929,-0.4784c0,0 -2.42536,-0.60634 -1.81902,-3.03169z" fill="#000000" stroke-width="0.5"/><path d="M282.12519,187.03957c-2.23608,1.11801 -3.35408,-1.11807 -3.35408,-1.11807l-0.90749,-1.8315c-1.15962,-1.96449 -2.99914,-5.02665 -5.34053,-5.83287c-1.35048,-0.46502 -2.62333,1.13527 -3.89614,1.78334c0,0 -2.23607,1.11802 -3.35409,-1.11806c-1.11802,-2.23607 1.11806,-3.3541 1.11806,-3.3541c1.8503,-0.91129 4.80712,-2.77754 7.10249,-2.21613c3.8888,0.95113 6.74328,5.01639 8.65765,8.1653l1.0922,2.16799c0,0 1.11801,2.23608 -1.11807,3.35409z" fill="#000000" stroke-width="0.5"/><path d="M216.51558,250.79525c-2.5,0 -2.5,-2.5 -2.5,-2.5l0.02513,-0.1464c-0.08082,-0.57837 -0.23232,-1.15503 -0.34229,-1.73269c-0.77982,0.89392 -1.67656,1.67552 -2.78159,1.84715c-2.21757,0.34442 -5.99443,-2.67195 -7.56706,-4.10444c-0.91916,-0.83725 -1.68195,-2.8445 -2.84687,-2.40997c-3.27972,1.22341 -2.38847,5.79879 -3.57517,8.21357c-0.01914,0.03895 -0.03857,0.07773 -0.05828,0.11634l0.0207,0.0069l-0.98164,2.94491c-0.31418,1.02156 -1.26534,1.76411 -2.38994,1.76411c-1.22887,0 -2.25065,-0.88664 -2.46053,-2.0551l-0.49087,-2.45426l1.05639,-0.21129l0.52318,-1.56952l2.7466,0.91554l0.57673,-0.11535l0.06591,0.32957l1.33347,0.44449c-0.88863,1.74071 -2.34384,3.13686 -3.50622,4.71108l-2.79606,-4.50453c0,0 -0.45231,-2.26144 1.68397,-2.87468c-0.6202,-3.90105 3.85321,-9.72759 7.28143,-10.56673c3.6752,-0.89959 4.93704,1.61853 7.1518,3.58927c0.69714,0.62033 1.46646,1.15501 2.17975,1.7567c0.43103,0.36359 0.70843,1.28877 1.25178,1.13794c0.68295,-0.18958 0.5831,-1.35177 1.13236,-1.79974c1.31599,-1.07333 2.71739,-3.1599 4.3419,-2.66508c2.75154,0.83811 3.08317,6.40067 3.40028,8.57871l0.02513,0.85349c0,0 0,2.5 -2.5,2.5z" fill="#000000" stroke-width="0.5"/><path d="M212.01637,264.29342c-0.52889,0.39667 -1.02282,0.54858 -1.46328,0.55744c0.14847,2.23781 0.07831,4.45295 -0.76858,6.4522c-2.08689,4.92651 -6.33164,12.45084 -12.21682,6.55287c-0.94938,-0.95144 -0.94765,-2.51558 -1.42148,-3.77337c0,0 -0.79057,-2.37171 1.58114,-3.16228c2.37171,-0.79057 3.16228,1.58114 3.16228,1.58114c0.19276,0.74196 0.36286,1.49017 0.57827,2.22587c0.05919,0.20214 0.08969,0.7261 0.2441,0.58284c1.63613,-1.51782 2.50267,-3.72519 3.39407,-5.77119c1.38432,-3.17741 -0.07842,-8.72809 -0.08079,-11.95115l0.10664,-0.19128l-0.08114,-0.01353l0.49319,-2.95906c0.179,-1.20503 1.21791,-2.12953 2.47274,-2.12953c1.22888,0 2.25068,0.88665 2.46054,2.05513l0.49084,2.45426l-0.39396,0.07879c0.41515,0.96858 0.73627,1.96778 0.90844,3.0001l1.03381,0.91072c0,0 1.5,2 -0.5,3.5z" fill="#000000" stroke-width="0.5"/><path d="M184.1002,262.90641c1.38675,2.08013 -0.69338,3.46688 -0.69338,3.46688l-2.57704,1.64483c-2.34107,4.01461 -3.22557,8.91656 -6.87506,12.35814c-1.49213,1.40713 -3.22124,3.84933 -5.196,3.29543c-4.05772,-1.13816 -1.67378,-8.94227 -1.18855,-11.36993c0,0 0.09559,-0.47792 0.41338,-0.96952c-0.61091,-0.85277 -0.42791,-1.95078 -0.42791,-1.95078l0.50687,-3.03933c0.52719,-2.56829 0.68714,-5.19432 0.97108,-7.7946c0.1344,-1.23077 -0.29847,-2.5673 0.17813,-3.70996c0.48627,-1.16584 1.69445,-1.87387 2.54168,-2.8108c0,0 1.76777,-1.76776 3.53554,0c1.76776,1.76776 0,3.53554 0,3.53554c-2.67889,2.18434 -1.6324,8.22443 -2.30835,11.68123l-0.49298,2.9599c0,0 -0.08756,0.52537 -0.42434,1.0507c0.63912,0.8817 0.4098,2.02824 0.4098,2.02824c-0.02974,0.1486 -0.05536,0.2986 -0.07793,0.44966c0.86781,-1.07824 1.74165,-2.15407 2.31588,-3.3965c0.87912,-1.90213 1.41085,-3.97774 2.50012,-5.76783l3.42219,-2.35466c0,0 2.08012,-1.38675 3.46687,0.69338z" fill="#000000" stroke-width="0.5"/><path d="M169.75802,243.17771c1.11804,2.23606 -1.11802,3.35411 -1.11802,3.35411l-3.29353,1.62214c0.1472,0.10164 0.29545,0.22502 0.44368,0.37326c1.76776,1.76776 0,3.53554 0,3.53554c-2.98617,2.88705 -5.72692,3.24861 -9.45531,4.59638c-3.31758,1.19927 -6.16989,3.51821 -9.59775,4.53109c-3.33416,0.98519 -5.49603,-0.33847 -8.14948,2.0555l-0.29382,0.31548c0,0 -1.01058,1.01064 -2.26769,0.73953c-0.42327,0.61693 -1.21585,1.26556 -2.60614,0.91798c-2.42535,-0.60634 -1.81902,-3.0317 -1.81902,-3.0317c0.32587,-1.30074 0.58086,-2.62133 0.97761,-3.90222c0.15955,-0.51509 0.99592,-1.8783 0.61565,-1.49598c-2.18491,2.19661 -2.09092,3.31218 -6.56744,2.47302c-4.22867,-0.79271 -5.27002,-2.47834 -5.58695,-6.22083c-0.06452,-0.76187 0.77166,-1.5288 0.49196,-2.2404c-0.16778,-0.42687 -0.91874,-0.0449 -1.37597,-0.00862c-1.40194,0.11123 -3.38043,1.59713 -4.19492,0.45064c-0.33105,-0.46598 -0.48336,-0.98898 -0.5293,-1.54591c-0.10437,-0.17565 -0.19724,-0.37803 -0.27486,-0.61091c-0.434,-1.30201 0.08501,-2.12749 0.64149,-2.60727c0.09164,-0.54184 0.16361,-1.0774 0.16369,-1.59003l3.27992,-2.23654c0,0 0.11196,-0.06717 0.30004,-0.14523c-0.0359,-0.59591 0.03824,-2.33722 2.07498,-2.67669c2.46598,-0.41101 2.87699,2.05497 2.87699,2.05497c0.13823,1.39118 0.87865,2.85473 0.41471,4.17354c-0.11075,0.31483 -0.27171,0.59966 -0.4663,0.86439c0.40256,0.2362 0.76852,0.52147 1.08127,0.86668c1.34444,1.48398 -0.75453,4.41915 0.49084,5.9872c2.02594,2.55087 5.61097,-2.08818 6.8443,-1.97674c4.44275,0.4014 5.31562,2.75128 5.05026,5.50685c0.24803,-0.15314 0.50898,-0.28129 0.78916,-0.3722c2.10405,-0.68264 4.49918,0.11038 6.61427,-0.53723c3.33625,-1.02152 6.14641,-3.27871 9.39981,-4.46774c2.90999,-1.06352 5.08154,-0.95384 7.34842,-3.20434c-0.42561,0.01024 -0.83839,-0.04945 -1.22868,-0.23174c-1.77534,-0.82918 -1.38741,-4.32909 -3.26549,-4.88784c-2.98118,-0.88692 -6.07385,1.79008 -8.96875,1.15349c-1.38711,-0.30502 -2.61801,-1.18249 -3.71814,-2.08073c-0.66325,-0.54154 -0.66816,-1.7531 -1.43757,-2.12883c-1.62399,-0.79304 -3.60892,0.24675 -5.41619,0.24675c0,0 -2.5,0 -2.5,-2.5c0,-0.85528 0.2926,-1.41796 0.6776,-1.78814c-0.4202,-0.44727 -0.6776,-1.04928 -0.6776,-1.71141c0,-1.38071 1.11929,-2.5 2.5,-2.5c1.38071,0 2.5,1.11929 2.5,2.5c0,0.35417 -0.07365,0.69114 -0.20647,0.99643c2.1106,0.00516 4.8213,0.04596 5.2886,0.24985c1.64893,0.71946 2.06409,3.52179 3.84313,3.78943c0.54594,0.08213 1.04547,-0.36087 1.5827,-0.48808c2.45094,-0.58033 6.21864,-1.2201 8.44611,-0.35817c1.55323,0.60103 2.64762,2.0883 3.63006,3.43313c0.33051,0.45243 -0.18274,1.19606 0.10354,1.6777c0.14165,0.2383 0.33171,-0.44427 0.49756,-0.6664l2.69292,-1.37121c0,0 2.23606,-1.11804 3.35411,1.11802z" fill="#000000" stroke-width="0.5"/><path d="M79.03377,196.80193c0,2.5 -2.5,2.5 -2.5,2.5l-1.08882,-0.03402c-0.55719,-0.05667 -1.13049,-0.31461 -1.67156,-0.17c-0.19489,0.05209 0.18594,0.35919 0.25619,0.54829c0.22589,0.60802 0.25773,1.3104 0.63133,1.84063c0.19322,0.27423 3.46139,3.3114 3.92866,3.54769c2.8754,1.45403 10.0416,-0.47943 11.7524,2.80914c0.9179,1.76442 -1.43686,3.77384 -2.66429,5.33881c-0.71043,0.90579 -1.93569,1.24954 -2.94179,1.80891c-1.11907,0.62218 -2.11191,1.2464 -3.09991,1.81848c2.19212,-0.47602 4.31067,-0.9563 6.66156,0.3329c1.89808,1.04089 2.31659,3.70129 3.84741,5.23189c0.16646,0.16644 0.25274,-0.39802 0.39701,-0.58402c0.33227,-0.42837 0.76116,-0.79066 1.05716,-1.24129l0.444,-3.99608c0.12362,-1.26521 1.19036,-2.25391 2.48804,-2.25391c1.25483,0 2.29373,0.9245 2.47274,2.12953l0.4932,2.95907c0,0 0.29869,1.7921 -1.14092,2.57546c0.0058,0.09534 0.00124,0.19259 -0.01524,0.29207c-0.39784,2.40118 -5.0074,5.66192 -7.42223,4.96649c-2.47684,-0.71329 -3.06797,-4.2492 -5.15142,-5.76668c-1.11997,-0.81573 -3.7296,0.71316 -4.33362,0.8114c-1.11871,0.18195 -2.26672,0.02152 -3.40008,0.03229h-3.49954c-1.38071,0 -2.5,-1.11929 -2.5,-2.5c0,-0.69036 0.27982,-1.31536 0.73223,-1.76777l3.49955,-3.49954l0.00641,0.00641c0.69634,-0.76181 1.576,-1.48555 2.91364,-2.34423c0.7923,-0.5086 1.58173,-1.05726 2.39878,-1.54345c-0.73854,-0.11849 -1.43149,-0.28815 -1.9734,-0.38574c-1.05317,-0.18967 -2.17512,-0.22205 -3.13357,-0.698c-3.95959,-1.96627 -10.8654,-9.34653 -6.18234,-14.0608c1.05313,-1.06015 2.88509,-0.77991 4.32762,-1.16987l1.91083,-0.03402c0,0 2.5,0 2.5,2.5z" fill="#000000" stroke-width="0.5"/><path d="M132.26288,231.67922c1.11803,2.23607 -1.11803,3.3541 -1.11803,3.3541l-3.30628,1.62841c-1.44081,0.14052 -3.03388,1.08135 -4.32242,0.42155c-3.68452,-1.88666 -2.77046,-4.59067 -2.97625,-7.53923c-0.06396,-0.91652 -0.25484,-2.56945 -1.27697,-3.08942c-2.16367,-1.1007 -5.54233,0.32458 -7.12266,-1.51812c-1.59486,-1.85965 -0.47654,-4.95299 -1.43244,-7.20869c0,0 -0.31102,-0.77757 -0.12301,-1.61264c-0.81437,-0.3325 -1.41412,-1.08214 -1.53373,-1.98342l-1.51169,-0.38027c-3.71147,-0.74229 -7.32055,-0.93327 -11.00824,-1.45126c-1.9195,-0.26962 -4.66898,0.38854 -5.67505,-1.26826c-0.95829,-1.57811 0.79623,-3.66271 1.70482,-5.26995c1.60349,-2.83646 5.7639,-5.02641 8.79588,-5.86835c2.52371,-0.7008 3.30854,0.28952 5.22528,-2.15963c0.64406,-0.82297 0.7663,-1.94453 1.14945,-2.9168c0,0 0.98479,-2.29787 3.28265,-1.31307c2.29787,0.98479 1.31307,3.28266 1.31307,3.28266c-0.61671,1.36076 -0.87231,2.95275 -1.85014,4.08229c-3.39899,3.9263 -5.94043,2.72838 -9.83544,4.67157c-0.80018,0.39921 -1.45294,1.02741 -2.10475,1.65821c0.61798,0.01944 1.2193,0.07243 1.69997,0.10984c2.75405,0.21435 5.57584,0.99839 8.28307,1.53984l2.11578,0.52604c0,0 1.81141,0.45285 1.91198,2.14128c0.87306,0.38995 1.4815,1.26583 1.4815,2.28381c0,0.2131 -0.02666,0.41995 -0.07682,0.61744c0.97879,0.40614 1.39781,1.4537 1.39781,1.4537c0.37786,0.98513 1.03068,1.9053 1.13358,2.95538c0.09395,0.95883 -1.04361,1.99741 -0.56625,2.83426c0.33375,0.5851 1.32186,-0.3877 1.99321,-0.33267c1.31789,0.10802 2.76938,0.10046 3.88245,0.81429c1.31499,0.84333 2.25973,2.22469 3.00066,3.59998c0.69482,1.28968 -0.04274,7.44164 1.42202,6.19027l2.69291,-1.37118c0,0 2.23606,-1.11804 3.3541,1.11803z" fill="#000000" stroke-width="0.5"/><path d="M207.97354,125.62117c-1.38297,0.58797 -5.60387,-1.27792 -7.26469,-1.94384c-2.80639,-0.8069 -4.1145,-1.3742 -7.19027,-1.3654c-4.59384,0.01315 -8.62392,1.88729 -13.08724,2.46565c-1.38645,0.17965 -2.82041,0.76613 -4.17356,0.41469c-0.78932,-0.205 -0.7613,-1.66431 -1.54226,-1.8992c-0.4708,-0.1416 -0.60532,0.77484 -0.90798,1.16226l-3.78624,-2.64367c0,0 0,-2.5 2.5,-2.5c0.06496,0 0.12823,0.00168 0.18986,0.00498c0.10805,-0.06821 0.21618,-0.13596 0.32462,-0.20211c0.01128,-0.18085 0.03368,-0.29282 0.03368,-0.29282c1.10206,-5.50672 2.15379,-10.94231 4.65815,-16.00735l0.94978,-2.37444c0.35452,-0.94948 1.26971,-1.62559 2.34282,-1.62559c1.38071,0 2.5,1.11929 2.5,2.5c0,0.18573 -0.02026,0.36674 -0.05868,0.54093l-0.32914,1.64565c0.52472,0.76498 1.34954,1.31647 2.04549,1.94155c3.0026,2.69682 3.78454,0.63488 6.86458,-1.6464c3.14455,-2.32906 4.87177,-3.77 8.87708,-4.72661c1.61195,-0.38499 3.5274,-1.18583 4.95941,-0.3516c1.28778,0.75021 1.27093,2.72108 1.60224,4.17415c0.16366,0.71777 -0.48804,1.55061 -0.14805,2.20359c0.18425,0.35385 0.77609,-0.26422 1.17385,-0.23348c0.61142,0.04726 1.16814,0.48838 1.78081,0.46186c1.32627,-0.0574 2.84814,-1.49312 3.91899,-0.70855c1.40358,1.02834 1.78295,3.15949 1.80106,4.89937c0.03193,3.06575 -3.72594,9.29411 -5.25516,11.91512c-0.28422,0.48714 -0.51716,1.04669 -0.7599,1.59976c0.3124,-0.14035 0.65883,-0.21843 1.0235,-0.21843c1.38071,0 2.5,1.11929 2.5,2.5c0,1.38071 -1.11929,2.5 -2.5,2.5c-1.38071,0 -2.5,-1.11929 -2.5,-2.5c0,-0.00357 0.00001,-0.00715 0.00002,-0.01072c-0.16408,0.12774 -0.34386,0.2361 -0.54278,0.32067zM177.75432,120.41998c0.00971,0.00373 0.01949,0.00733 0.02933,0.01081c0.60247,0.21313 1.20229,-0.44454 1.82568,-0.58518c1.94717,-0.43931 3.87001,-0.98027 5.80759,-1.46009c5.85395,-1.44967 11.17655,-1.06871 16.90931,0.56063c0.85029,0.33933 1.74887,0.57646 2.55086,1.01798c0.4595,0.25297 0.7232,1.29002 1.18302,1.03764c0.53222,-0.29211 0.00364,-1.24086 0.22044,-1.80794c0.53225,-1.39225 1.33257,-2.66662 1.99974,-3.99948c0.48083,-0.96059 1.00256,-1.90169 1.44427,-2.88088c0.30902,-0.68506 0.50482,-1.4255 0.77534,-2.12734c-2.16848,0.53506 -6.20208,-0.93084 -6.79904,-1.65448c-1.04595,-1.26792 -0.98913,-3.15953 -1.1479,-4.79551c-0.03289,-0.33897 0.87916,-1.02367 0.6024,-0.8252c-1.51125,1.08372 -3.30032,1.71528 -4.93786,2.59663c-3.91702,2.1082 -7.03534,7.40695 -12.22265,6.25005c-1.38664,-0.30925 -3.46646,-1.84724 -5.15247,-3.52917c-1.35989,3.73001 -2.08521,7.64713 -2.87002,11.57382c0,0 -0.05451,0.27255 -0.21805,0.61771z" fill="#000000" stroke-width="0.5"/><path d="M221.51495,119.31166c2.5,0 2.5,2.5 2.5,2.5l-1.70943,0.12797c0.99986,0.33329 1.99973,0.66658 2.99959,0.99988c0,0 2.3717,0.79057 1.58113,3.16228c-0.79057,2.3717 -3.16228,1.58113 -3.16228,1.58113c-0.99986,-0.33329 -1.99973,-0.66658 -2.99959,-0.99987l-1.70942,-4.87139c0,0 0,-2.5 2.5,-2.5z" fill="#000000" stroke-width="0.5"/><path d="M106.26191,181.03599l1.99972,-1.99974c0,0 0.02641,-0.02641 0.076,-0.06955c-0.97791,0.03471 -1.9658,-0.02664 -2.97503,-0.25282c-1.10062,-0.24666 -1.93172,-1.17043 -2.94324,-1.66948c-0.95696,-0.47213 -5.86963,-2.1734 -6.08116,-2.39966c-2.25119,-2.40797 -3.11175,-6.40876 -1.56266,-9.41702c2.33576,-4.53593 7.51895,-8.02195 11.66673,-11.56099c-1.01741,-0.99912 -1.2732,-2.87628 -2.09113,-4.13245c-2.38467,-3.66235 -6.58928,-9.90799 -1.97546,-14.09883c4.11417,-3.737 4.21129,-0.25412 7.32121,0.46478c1.17788,0.27229 2.42121,0.01934 3.62588,-0.08219c3.02519,-0.25497 5.81262,-1.51726 8.80458,-1.97599c1.95276,-0.2994 4.02962,-0.37248 5.78869,-1.2717c2.31481,-1.18331 4.30317,-2.96828 6.56076,-4.2213c2.11748,-1.17525 4.68649,-1.28875 6.90444,-2.26116c0.78844,-0.34567 2.2185,-3.08437 2.45199,-3.47952c0.68992,-1.38052 3.13523,-6.46467 4.13752,-7.72189c1.18456,-1.48585 2.1658,-3.715 4.04129,-4.02076c9.08897,-1.48176 3.83684,7.65959 7.91826,9.61299l2.82827,0.94275c1.02156,0.31418 1.76412,1.26534 1.76412,2.38994c0,1.0731 -0.67611,1.9883 -1.62559,2.34282l-4.58831,1.83532l-0.16365,-0.40911c-5.54517,3.01134 -11.27447,5.5402 -16.62637,9.18753c-1.98221,1.35088 -3.80199,2.94025 -5.53599,4.59774c-0.65936,0.63026 -1.95883,0.9238 -2.03171,1.83301c-0.05009,0.62494 1.24481,0.15122 1.8657,0.23812c1.43683,0.2011 3.03516,-0.07172 4.30728,0.62586c1.41622,0.77659 2.93975,1.97246 3.30167,3.54657c0.46448,2.02022 -0.45906,4.14628 -1.07809,6.12462c-0.67728,2.16447 -3.04498,4.37539 -4.31835,6.06877c-2.26569,3.013 -3.54385,7.05948 -6.2064,9.74207c-1.11573,1.12412 -2.56166,1.86332 -3.84248,2.79498l-3.49954,2.49967c0,0 -2.03433,1.4531 -3.48743,-0.58124c-1.4531,-2.03433 0.58125,-3.48743 0.58125,-3.48743l3.49954,-2.49966c4.45738,-3.11277 5.75323,-7.1885 8.94868,-11.45986c1.75727,-2.34894 4.3862,-4.59276 4.60223,-7.80398c0.09994,-1.48554 -3.04127,-0.19518 -4.38948,-0.82695c-1.92087,-0.90011 -4.68123,-1.68879 -5.13339,-3.76135c-0.62394,-2.86001 4.33147,-7.84288 6.32775,-9.53351c1.1172,-0.94615 2.4006,-1.98439 3.80082,-3.03502c-0.81569,0.20532 -1.60946,0.46016 -2.3338,0.87391c-2.62837,1.50137 -4.13881,3.03717 -6.75915,4.32532c-3.81853,1.87717 -8.87758,2.24981 -13.05949,3.19878c-2.59801,0.58954 -6.19796,0.97458 -8.71613,0.47043c-1.00875,-0.20196 -2.22146,-2.45712 -2.67753,-1.53497c-1.49665,3.02615 2.03433,5.72043 3.02388,7.89834c0.32886,0.72379 -0.50953,1.98418 0.18099,2.37813c0.58381,0.33307 0.66224,-1.42729 1.32836,-1.51703c0.11043,-0.01487 0.22089,-0.02646 0.3314,-0.03506l-0.01034,-0.05171l2.44907,-0.48981c0.17418,-0.03842 0.35518,-0.05867 0.54091,-0.05867c1.38071,0 2.5,1.11929 2.5,2.5c0,0.62635 -0.23034,1.1989 -0.61093,1.63757l-2.99054,3.48897l-0.01874,-0.01606l-0.0451,0.08771c-4.08211,4.08722 -9.8825,7.58009 -13.07699,12.37785c-1.66926,2.50704 0.96519,3.54028 2.6038,4.07339c1.70842,0.55581 3.06019,2.01723 4.80681,2.43786c1.4223,0.34252 4.49907,-0.31529 5.92075,-0.55663c0,0 2.46599,-0.411 2.87698,2.05499c0.41099,2.46598 -2.05499,2.87698 -2.05499,2.87698c-0.71372,0.11703 -1.42215,0.24698 -2.12971,0.36312c0.16137,0.10695 0.32411,0.23973 0.48686,0.40247c1.76778,1.76776 0.00001,3.53554 0.00001,3.53554l-0.79444,0.79444c0.6037,0.80296 1.03542,1.90141 1.67035,2.65071l-1.64352,4.78598c0,0 -1.49999,2.00001 -3.5,0.50002c-0.80259,-0.60194 -1.04155,-1.2844 -1.04,-1.88582c-1.50132,0.77882 -3.22321,1.14868 -4.67267,2.02954c0,0 -1.14216,0.6853 -2.25932,0.22178c-0.15759,1.37926 -1.59799,1.95542 -1.59799,1.95542l-2.404,0.95928c-3.44266,1.72273 -6.95987,3.23132 -10.40476,4.95482c0,0 -2.23606,1.11804 -3.3541,-1.11803c-1.11804,-2.23607 1.11804,-3.35411 1.11804,-3.35411c3.50785,-1.75288 7.08679,-3.29241 10.59255,-5.04388l2.59533,-1.04047c0,0 0.96262,-0.38504 1.89601,-0.03931c0.17065,-1.13788 1.24578,-1.78296 1.24578,-1.78296c1.7926,-1.06418 3.76319,-1.79909 5.68715,-2.60174c0.30977,-0.12923 0.61194,-0.30423 0.91027,-0.4997c-1.02078,-1.58089 0.42008,-3.02175 0.42008,-3.02175zM147.19463,126.74894c2.81877,-1.46408 5.73119,-2.56866 8.49331,-2.92013c-0.49517,-0.30043 -0.93769,-0.65234 -1.24727,-1.1342c-0.82645,-1.28635 -0.6683,-2.98701 -0.88784,-4.50013c-0.11913,-0.82107 0.06843,-3.02249 -0.51708,-2.43468c-1.99459,2.00243 -3.59363,6.80405 -4.81951,9.25463c-0.34752,0.57259 -0.67734,1.15938 -1.02161,1.73451zM107.72384,188.20559l0.66178,0.38381c0.03182,-0.44894 0.51816,-1.50134 0.09546,-1.34681c-0.39005,0.14258 -0.56885,0.55432 -0.75724,0.963z" fill="#000000" stroke-width="0.5"/><path d="M77.3883,128.68584c0.84085,2.35435 -1.51351,3.1952 -1.51351,3.1952l-2.29038,0.81799c-1.0871,0.38788 -2.17982,0.78019 -3.2714,1.18377c0.49153,0.31038 1.88963,1.3974 0.95779,3.26107c-1.11804,2.23607 -3.3541,1.11803 -3.3541,1.11803l0.11816,-0.236c-1.92131,-0.00446 -4.70285,0.22505 -6.97763,-0.244c-1.43502,0.59442 -3.15602,1.18242 -1.27499,2.45397c1.33055,0.89944 3.14704,0.78606 4.75308,0.78898c6.53615,0.0119 13.02741,-5.51488 18.05353,-9.03962c2.25114,-1.57869 6.72644,-5.12161 9.86248,-2.06069c1.78615,1.74337 -1.19276,6.01076 -1.45141,8.00154c-0.17604,1.35497 0.02152,2.73264 0.03229,4.09896c0,0 0,2.5 -2.5,2.5c-2.5,0 -2.5,-2.5 -2.5,-2.5c0.01076,-1.63329 -0.18797,-3.28147 0.03228,-4.89987c0.07596,-0.5582 0.18282,-1.12429 0.34232,-1.67208c-0.3154,0.19761 -0.63074,0.39555 -0.93008,0.61383c-1.36964,0.99875 -2.6536,2.11775 -4.07057,3.04811c-4.89463,3.21375 -10.85522,6.90191 -16.87082,6.90981c-2.27617,0.00299 -5.95075,-0.52249 -8.3366,-2.20471c0.55466,1.4384 1.2529,2.81396 2.09857,4.63697c0.49506,1.06719 3.13613,6.1483 2.73811,8.12552c-0.44383,2.2048 -0.72376,4.92666 -2.54246,6.24972c-0.00198,0.00144 -0.00397,0.00288 -0.00596,0.00431c5.88655,2.47261 11.72182,5.30565 16.55123,9.19845c3.99486,3.2201 6.93383,7.87805 9.61476,12.15931c0,0 1.325,2.12 -0.795,3.44499c-2.12,1.32499 -3.445,-0.79501 -3.445,-0.79501c-2.35979,-3.78343 -4.961,-8.07599 -8.50573,-10.91096c-6.95361,-5.5613 -16.13857,-8.80851 -24.29993,-12.09039l-2.444,-0.97758c-0.94949,-0.35452 -1.62561,-1.26971 -1.62561,-2.34283c0,-1.0731 0.67611,-1.9883 1.62559,-2.34282l2.44563,-0.97824l0.16234,0.40586c1.12869,-0.58548 2.31441,-0.9964 3.55952,-1.07608c1.45497,-0.09311 2.98465,-0.36263 4.37308,0.08219c0.57883,0.18544 0.3214,1.84887 0.87565,1.5994c0.55671,-0.25057 -0.3837,-1.15982 -0.54271,-1.74926c-0.54635,-2.02525 -1.36944,-3.97403 -2.26129,-5.87266c-2.06325,-4.39245 -4.69895,-9.00609 -4.23826,-14.10558c0.13135,-1.45395 0.04709,-3.32984 1.21312,-4.20824c5.28977,-3.98491 6.24191,-1.67569 10.06043,0.13735c1.20278,-0.535 2.33658,-0.97859 3.17624,-1.34794c2.5912,-1.13982 5.25005,-2.12345 7.91566,-3.07633l2.29037,-0.81799c0,0 2.35435,-0.84084 3.1952,1.51351zM54.32334,135.77496c-0.24404,0.12263 0.159,0.52346 0.21328,0.79113c0.01739,0.08576 0.03478,0.17151 0.0521,0.2573c0.32361,-0.53228 0.7621,-1.02646 1.27783,-1.48542c-0.42768,-0.00069 -0.9239,0.1258 -1.54321,0.43699z" fill="#000000" stroke-width="0.5"/><path d="M79.04116,98.0279c-1.82291,1.43921 -3.38899,-0.35059 -3.38899,-0.35059c-5.82448,-6.66349 -12.20314,-13.79295 -16.77369,-21.38018l-0.00599,-0.0272l-0.00732,0.00418l-1.97796,-3.46142c-0.22304,-0.37408 -0.35118,-0.81131 -0.35118,-1.27847c0,-1.38071 1.11929,-2.5 2.5,-2.5c0.59805,0 1.14706,0.20999 1.57729,0.56027l2.48412,1.98731l-0.12402,0.15503c4.22742,1.68492 8.423,3.30473 13.10909,3.30179c0.22973,-1.14357 1.23976,-2.00492 2.45098,-2.00492c0.92661,0 1.73548,0.50411 2.1673,1.25305l1.45511,2.42516c0.11463,0.18372 0.20606,0.38341 0.27021,0.59496l0.16464,0.28812c1.27318,0.73905 1.81842,2.34031 2.90307,3.339c3.03386,2.79344 5.4484,2.20927 4.97158,7.67247c-0.08829,1.01161 -1.80089,1.25707 -2.06819,2.23671c-0.27179,0.99613 0.56623,2.00225 0.63041,3.0328c0.15934,2.55849 0.29326,7.63281 -4.28868,7.64618c-2.22795,0.0065 -3.80069,-2.32175 -5.69778,-3.49423zM66.2955,78.49942c3.45676,4.86254 7.53037,9.52156 11.42591,13.95604c0.21679,-0.51421 0.66101,-1.00903 1.52134,-1.29581c2.37171,-0.79057 3.16228,1.58114 3.16228,1.58114l0.63914,2.30494c0.42745,0.49782 0.78797,1.06203 1.28235,1.49344c0.11965,0.10441 -0.08439,-0.30735 -0.10377,-0.46497c-0.07715,-0.62749 -0.13445,-1.25741 -0.18547,-1.88757c-0.13396,-1.65455 -0.74475,-3.34919 -0.36943,-4.96616c0.19707,-0.84904 1.53775,-0.98508 1.9313,-1.76278c0.66769,-1.31943 -2.3561,-1.79507 -3.44145,-2.79942c-1.35836,-1.257 -2.92492,-2.47628 -3.66062,-4.17449c-0.01869,-0.04315 -0.03696,-0.08643 -0.05483,-0.12982l-2.60465,-0.32558c-3.26032,-0.02156 -6.43966,-0.56511 -9.54209,-1.52895z" fill="#000000" stroke-width="0.5"/><path d="M367.87781,86.26867c-2.23608,-1.11801 -1.11807,-3.35409 -1.11807,-3.35409l0.23636,0.16063c-0.02474,-2.46916 0.23143,-4.76461 -1.02499,-7.07504c-1.00972,-1.85678 -3.78769,-1.90318 -5.78298,-2.6003c-3.22433,-1.12653 -7.07455,-0.78908 -9.98517,-2.72688c-1.5295,-1.01829 -2.97794,-2.20542 -4.17498,-3.59948c-1.07912,-1.25674 -1.35888,-4.01403 -3.20971,-4.8342c-2.33346,-1.03404 -6.16417,-0.61771 -8.49677,-0.55387c-9.29865,0.77193 -17.80413,4.29896 -26.82795,6.38924c-2.80408,0.64954 -9.52956,2.00712 -12.10062,0.3709c-4.54834,-2.89456 2.5582,-9.34486 -1.49773,-11.66922c-0.63385,-0.36324 -1.35276,0.56732 -2.06187,0.74306c-1.51213,0.37474 -3.08261,0.49334 -4.5853,0.90428c-6.18891,1.69248 -11.31331,6.0811 -16.15626,10.04604c0,0 -1.93489,1.58309 -3.51799,-0.35181c-1.58309,-1.9349 0.35181,-3.51798 0.35181,-3.51798c6.92111,-5.65918 13.94457,-10.81723 23.05987,-12.00812c1.69845,-0.2219 3.7023,-1.24154 5.13015,-0.29539c2.01896,1.33785 3.18912,3.85493 3.78446,6.20261c0.44319,1.7477 -0.48768,3.57595 -0.85727,5.34067c-0.06097,0.29114 -0.72216,0.76215 -0.42554,0.78438c3.78998,0.2841 8.86559,-1.74364 12.42366,-2.76592c7.60897,-2.18614 15.10112,-4.48672 23.00929,-5.16539c3.67378,-0.07934 7.63772,-0.58129 11.12953,1.1393c3.85825,1.90114 4.10139,6.2178 7.61344,8.56412c1.52396,1.01811 3.56914,0.83483 5.22546,1.19315c3.491,0.75522 9.95929,2.15948 12.00207,5.47809c1.07736,1.75025 1.48115,3.8557 1.88228,5.87143c0.26364,1.32482 0.06158,2.70088 0.09238,4.05132l-0.76348,2.16038c0,0 -1.11801,2.23608 -3.35409,1.11807z" fill="#000000" stroke-width="0.5"/><path d="M139.75753,91.79958c-1.76776,-1.76777 0.00001,-3.53554 0.00001,-3.53554l3.03613,-3.03538c0.0755,-0.06958 0.36685,-0.3381 0.78946,-0.72759c-6.83709,2.09771 -13.74636,2.87032 -20.99726,3.03072c-7.1061,0.1572 -14.5818,-0.25918 -20.74013,-4.31991c-7.21109,-4.75491 -8.71043,-12.11678 -9.3081,-19.99934c-0.06069,-0.80048 0.00741,-6.72811 0.18401,-7.13315c1.39925,-3.20915 5.3539,-4.23376 8.06894,-5.48316c3.1196,-0.6958 7.83061,-2.05729 11.09078,-1.48682c3.69116,0.64588 6.21168,2.84319 9.09989,4.89249l1.66468,0.79812c0,0 2.23607,1.11803 1.11804,3.3541c-1.11803,2.23607 -3.3541,1.11805 -3.3541,1.11805l-2.33482,-1.20161c-1.94763,-1.40169 -4.54761,-3.61046 -7.04749,-4.0346c-2.10846,-0.35773 -6.72702,0.87791 -8.65232,1.3025c-1.73183,0.7743 -4.46637,0.84428 -5.03421,2.65434c-0.67518,2.15225 0.53881,6.23707 0.68393,8.36484c0.34417,5.0463 1.92152,9.6942 6.55078,12.66532c5.34959,3.43344 11.7747,3.65112 17.89395,3.51017c7.85647,-0.18097 15.2896,-1.05656 22.67719,-3.84097c0,0 2.3104,-0.86641 3.20128,1.41764c0.32428,-0.29878 0.6039,-0.55638 0.81529,-0.75109c-0.09035,-0.25841 -0.13948,-0.53618 -0.13948,-0.82542c0,-1.38071 1.11929,-2.5 2.5,-2.5c0.46117,0 0.89319,0.12487 1.26407,0.34265c0.03513,-0.04768 0.06921,-0.09632 0.10217,-0.14597c0.62256,-0.93798 0.47188,-2.20157 0.70782,-3.30236c0,0 0.36647,-1.46589 1.66923,-1.8335c-0.71071,-2.09075 -1.54677,-4.10971 -2.15677,-6.40506c-0.67723,-2.54832 -0.74028,-5.22159 -1.06699,-7.83805c-0.03449,-0.27623 -0.96135,-7.98727 -0.71798,-8.50469c0.4549,-0.96715 2.17942,-0.64576 2.84212,-1.48428c0.83745,-1.05964 0.17831,-3.14873 1.35014,-3.82026c4.80041,-2.75088 10.19414,1.61895 14.06873,3.65253c7.68348,4.03269 14.35595,5.89227 23.05848,4.70322c8.95356,-1.1501 17.5258,-5.6027 23.84605,-11.84469l1.35673,-2.26127c0.43182,-0.74895 1.2407,-1.25308 2.16732,-1.25308c1.38071,0 2.5,1.11929 2.5,2.5v4.99935h-0.45316c0.37734,3.17788 0.4617,6.26908 0.45316,10c-0.00258,1.12362 -0.36327,6.83088 0.72602,8.21064c1.31251,1.66249 4.49484,1.37188 6.12778,0.87119c4.7201,-1.44727 7.99571,-5.26719 12.53803,-7.04559c2.04048,-0.79888 4.52771,-2.9256 6.34854,-1.70644c4.46246,2.98787 1.04852,9.27154 -0.62861,12.00041c-6.16672,10.03391 -15.75532,17.02884 -26.0904,22.19452c-21.20332,7.8601 -46.64092,13.91438 -65.4229,-2.44146l-0.23659,-0.20702c0,0 -1.88144,-1.64627 -0.23517,-3.5277c1.64627,-1.88143 3.5277,-0.23517 3.5277,-0.23517l0.23659,0.20702c17.07121,15.01659 40.93061,8.7057 60.14208,1.61666c8.27423,-4.13883 15.2006,-9.17842 20.92057,-16.52788c1.68723,-2.16788 3.40411,-4.3684 4.58161,-6.85032c0.28909,-0.60934 1.39054,-1.85037 0.71738,-1.89187c-0.81367,-0.05016 -0.95463,1.35859 -1.61504,1.83653c-3.69101,2.6712 -9.06869,6.24209 -13.49391,7.40908c-1.68449,0.44422 -3.5027,0.85663 -5.20398,0.48181c-8.19616,-1.80575 -7.92504,-7.55374 -7.93969,-14.3944c-0.00619,-2.88966 -0.36123,-5.48261 0.00169,-7.96159c-1.4385,1.41423 -2.97979,2.82877 -4.16543,3.57472c-5.52299,3.47479 -13.59817,6.31686 -20.04554,7.2027c-7.5045,0.97844 -14.68669,0.5614 -21.56759,-2.94341c-2.97459,-1.51512 -5.92508,-3.07749 -8.86763,-4.65393c-0.80572,-0.43166 -1.57257,-0.94843 -2.4222,-1.28556c-0.60999,-0.24204 -1.47087,-0.91611 -1.91962,-0.43725c-0.73953,0.78914 0.00467,2.31767 -0.64961,3.17882c-0.44726,0.58868 -1.64486,-0.01752 -2.15722,0.51547c-0.27841,0.28962 0.68086,0.53415 0.77214,0.92538c0.34814,1.49207 0.31939,3.04782 0.50961,4.56811c0.29882,2.38822 0.3103,4.83505 0.93276,7.16001c0.77892,2.90939 1.87708,5.46821 2.68341,8.22899c0.55182,0.45857 0.90315,1.15008 0.90315,1.92365c0,0.35243 -0.07292,0.68783 -0.20451,0.99193c0.07096,0.39196 0.13317,0.79076 0.18521,1.19767c0,0 0.31007,2.48069 -2.17062,2.79077c-0.80894,0.10111 -1.38706,-0.09454 -1.79888,-0.40415c-0.10425,0.25189 -0.22784,0.49511 -0.37739,0.72673c-1.03355,1.60072 -2.82071,2.56238 -4.2259,3.84922c-2.23108,2.04318 -4.44966,4.09995 -6.67478,6.14963l-2.96311,2.96384c0,0 -1.76777,1.76776 -3.53553,-0.00001z" fill="#000000" stroke-width="0.5"/><path d="M144.97661,72.54361c0.49042,2.45143 -1.961,2.94185 -1.961,2.94185l-2.74302,0.53633c-2.01233,-0.0387 -4.1361,0.5454 -6.03698,-0.11611c-5.30965,-1.84779 -6.73241,-6.82814 -8.94453,-11.25238c0,0 -1.11803,-2.23607 1.11804,-3.3541c2.23607,-1.11803 3.3541,1.11803 3.3541,1.11803c1.24889,2.49778 2.78571,7.7343 6.05354,8.74503c1.26256,0.39051 2.64202,-0.07742 3.96302,-0.11612l2.255,-0.46354c0,0 2.45142,-0.49041 2.94184,1.96101z" fill="#000000" stroke-width="0.5"/><path d="M140.72491,268.49265c0,-2.07107 1.67893,-3.75 3.75,-3.75c1.5376,0 2.85906,0.9254 3.43781,2.24963c0.18619,0.0013 0.38654,0.02166 0.60204,0.06476c2.45146,0.49027 1.96118,2.94173 1.96118,2.94173c-0.36034,1.80058 -0.67031,3.61096 -0.98535,5.42001c-0.08928,0.51267 -0.13437,1.03769 -0.21992,1.55188c1.17817,-0.64639 3.2397,-0.78407 4.38028,-0.38346c3.90477,1.37151 4.60814,4.6386 6.80554,7.33426c1.25915,1.54466 2.76996,2.86883 4.23336,4.22156c0.85441,0.78981 1.84366,2.30738 2.93159,1.89477c4.33543,-1.64424 7.5153,-5.50683 12.25716,-6.44769c1.37074,-0.27198 2.95092,-1.02963 4.17699,-0.35907c0.93827,0.51316 1.46892,1.47942 1.97065,2.47785c0.40624,-0.78751 1.06333,-1.47456 1.52235,-2.24093l2.20249,-2.22898c0,0 1.76776,-1.76776 3.53553,0c1.19586,1.19586 0.77376,2.39173 0.37549,3.04033c2.04727,0.9818 1.17781,3.15546 1.17781,3.15546c-2.33134,5.50148 -1.29597,13.15043 -1.32101,19.08006c-0.04735,11.20981 0.53149,23.11853 3.833,33.88547c0.82358,2.68588 1.23286,5.53085 2.44329,8.06602c2.79091,5.84537 7.24648,10.59144 11.46919,15.39046c3.03167,3.45511 6.44668,6.30001 9.90421,9.32552l0.86557,0.72617c2.75633,-0.58136 5.51219,-1.19336 8.29921,-1.59209l1.42059,-0.37567c0,0 3.63803,-0.90951 4.54754,2.72853h-0.00001c0.90951,3.63803 -2.72853,4.54754 -2.72853,4.54754l-2.17894,0.52422c-4.86889,0.69448 -9.63799,2.04548 -14.48663,2.7414c-4.99764,0.71731 -10.05973,0.8845 -15.07805,1.43889c-9.10586,0.95687 -18.21013,1.64974 -27.3013,2.58949c-10.93401,1.13024 -22.21944,0.46546 -33.20193,0.46697c-10.80371,0.00149 -21.48171,0.52627 -32.26291,0.8975c-4.18663,0.14416 -8.37078,-0.06254 -12.54535,-0.00878c-0.06847,0.71378 -0.43506,1.56378 -1.67132,1.99011l-0.00001,0.00002c-2.36341,0.81504 -3.17845,-1.54837 -3.17845,-1.54837l-0.07582,-0.21986c-0.66533,0.05647 -1.33035,0.12572 -1.99502,0.21025c0,0 -3.72104,0.46513 -4.18617,-3.25591c-0.46513,-3.72104 3.25591,-4.18617 3.25591,-4.18617c0.04316,-0.00531 0.08632,-0.01057 0.12947,-0.01576c-0.96114,-2.49836 -1.82617,-5.02198 -2.22991,-7.43118c-1.02752,-6.13128 0.35166,-12.50646 1.60668,-18.46502c1.11937,-5.31448 2.06188,-9.89712 4.32317,-14.85718c2.09479,-4.55926 3.96702,-9.37784 6.3454,-13.79439c6.41278,-11.90822 15.86507,-21.99889 23.39889,-33.1531c5.38824,-7.97757 9.21053,-17.26649 16.68434,-23.55221c0,0 0.81711,-0.68092 1.82952,-0.6215c-0.01954,-0.1551 -0.02961,-0.31314 -0.02961,-0.47354zM144.47491,272.24265c-0.5121,0 -1.00022,-0.10265 -1.44491,-0.28849c-0.20071,0.88851 -0.90408,1.47465 -0.90408,1.47465c-7.07094,5.82913 -10.68206,15.01842 -15.74182,22.50966c-7.4456,11.0236 -16.83856,20.99744 -23.16474,32.77049c-2.31674,4.31146 -4.13572,9.0175 -6.17959,13.46592c-2.13265,4.60169 -2.93096,8.84854 -3.9739,13.8002c-1.12195,5.32674 -2.48769,11.12085 -1.5681,16.6081c0.4264,2.54437 1.4246,5.23444 2.48103,7.87286c4.92917,-0.17431 9.85854,0.09522 14.81706,-0.07602c10.86894,-0.37535 21.63722,-0.90077 32.52867,-0.90227c10.73776,-0.00148 21.80139,0.6868 32.48954,-0.43291c9.06163,-0.94932 18.13499,-1.62325 27.21114,-2.58032c4.89451,-0.54016 9.83213,-0.69729 14.7072,-1.39032c-2.87393,-2.51271 -5.66643,-5.01786 -8.22177,-7.91447c-4.55446,-5.17605 -9.27724,-10.3175 -12.26972,-16.62977c-1.29519,-2.73203 -1.78971,-5.77609 -2.67072,-8.66838c-3.43055,-11.2622 -4.10077,-23.64808 -4.05125,-35.36901c0.01826,-4.32106 -0.29697,-9.06587 0.10961,-13.58704c-0.27801,0.23536 -0.60083,0.41435 -0.98202,0.52024c-1.75057,0.48629 -3.07574,-1.93487 -4.61361,-2.90229c-0.34955,-0.91388 -0.3979,-2.01095 -1.04864,-2.74163c-0.23111,-0.25952 -0.50398,0.50149 -0.82235,0.64077c-0.83486,0.36522 -1.76857,0.47451 -2.59662,0.85491c-3.2596,1.49743 -6.60797,5.01594 -10.14297,5.69572c-4.48808,0.86306 -9.3442,-4.85095 -11.83256,-7.88183c-0.43732,-0.53266 -3.34252,-5.34963 -4.19304,-5.66406c-0.78056,-0.28857 -1.46322,0.86867 -2.28342,1.00942c-1.47117,0.25245 -3.26465,1.02331 -4.47548,0.15042c-2.58597,-1.86422 -1.71457,-6.68249 -0.83406,-10.35877c-0.10837,0.00942 -0.21806,0.01422 -0.32888,0.01422z" fill="#000000" stroke-width="0.5"/><path d="M144.8117,272.2778c-0.88051,3.67628 -1.76866,8.39597 0.81731,10.26019c1.21083,0.87289 3.00932,0.10139 4.48049,-0.15106c0.8202,-0.14075 1.50549,-1.29812 2.28605,-1.00955c0.85052,0.31443 3.76089,5.13154 4.19821,5.6642c2.48836,3.03088 7.36209,8.74964 11.85017,7.88658c3.535,-0.67978 6.88988,-4.19455 10.14948,-5.69198c0.82805,-0.3804 1.76321,-0.48866 2.59807,-0.85388c0.31837,-0.13928 0.59148,-0.90011 0.82259,-0.64059c0.65074,0.73068 0.70119,1.8294 1.05074,2.74328c1.53787,0.96742 2.86722,3.39247 4.61779,2.90618c0.38119,-0.10589 0.70423,-0.28465 0.98224,-0.52001c-0.40658,4.52117 -0.08407,9.27585 -0.10233,13.59691c-0.04952,11.72093 0.62354,24.1499 4.05409,35.4121c0.88101,2.89229 1.37232,5.94292 2.66751,8.67495c2.99248,6.31227 7.7119,11.45876 12.26636,16.63481c2.55534,2.89661 5.34732,5.40243 8.22125,7.91514c-4.87507,0.69303 -9.81766,0.85561 -14.71217,1.39577c-9.07615,0.95707 -18.16591,1.64134 -27.22754,2.59066c-10.68815,1.11971 -21.78086,0.43352 -32.51862,0.435c-10.89145,0.0015 -21.68043,0.51675 -32.54937,0.8921c-4.95852,0.17124 -9.89303,-0.10318 -14.8222,0.07113c-1.05643,-2.63842 -2.05772,-5.33222 -2.48412,-7.87659c-0.91959,-5.48725 0.44133,-11.28921 1.56328,-16.61595c1.04294,-4.95166 1.83799,-9.207 3.97064,-13.80869c2.04387,-4.44842 3.86102,-9.16559 6.17776,-13.47705c6.32618,-11.77305 15.73574,-21.78664 23.18134,-32.81024c5.05976,-7.49124 8.69372,-16.69215 15.76466,-22.52128c0,0 0.70443,-0.58636 0.90514,-1.47487c0.44469,0.18584 0.93404,0.28827 1.44614,0.28827c0.11082,0 0.23665,0.09389 0.34502,0.08447z" data-paper-data="{&quot;noHover&quot;:false,&quot;origItem&quot;:[&quot;Path&quot;,{&quot;applyMatrix&quot;:true,&quot;segments&quot;:[[[144.4749,272.24265],[0.11082,0],[-0.5121,0]],[[143.02999,271.95416],[0.44469,0.18584],[-0.20071,0.88851]],[[142.12591,273.42881],[0,0],[-7.07094,5.82913]],[[126.38409,295.93847],[5.05976,-7.49124],[-7.4456,11.0236]],[[103.21935,328.70896],[6.32618,-11.77305],[-2.31674,4.31146]],[[97.03976,342.17488],[2.04387,-4.44842],[-2.13265,4.60169]],[[93.06586,355.97508],[1.04294,-4.95166],[-1.12195,5.32674]],[[91.49776,372.58318],[-0.91959,-5.48725],[0.4264,2.54437]],[[93.97879,380.45604],[-1.05643,-2.63842],[4.92917,-0.17431]],[[108.79585,380.38002],[-4.95852,0.17124],[10.86894,-0.37535]],[[141.32452,379.47775],[-10.89145,0.0015],[10.73776,-0.00148]],[[173.81406,379.04484],[-10.68815,1.11971],[9.06163,-0.94932]],[[201.0252,376.46452],[-9.07615,0.95707],[4.89451,-0.54016]],[[215.7324,375.0742],[-4.87507,0.69303],[-2.87393,-2.51271]],[[207.51063,367.15973],[2.55534,2.89661],[-4.55446,-5.17605]],[[195.24091,350.52996],[2.99248,6.31227],[-1.29519,-2.73203]],[[192.57019,341.86158],[0.88101,2.89229],[-3.43055,-11.2622]],[[188.51894,306.49257],[-0.04952,11.72093],[0.01826,-4.32106]],[[188.62855,292.90553],[-0.40658,4.52117],[-0.27801,0.23536]],[[187.64653,293.42577],[0.38119,-0.10589],[-1.75057,0.48629]],[[183.03292,290.52348],[1.53787,0.96742],[-0.34955,-0.91388]],[[181.98428,287.78185],[0.65074,0.73068],[-0.23111,-0.25952]],[[181.16193,288.42262],[0.31837,-0.13928],[-0.83486,0.36522]],[[178.56531,289.27753],[0.82805,-0.3804],[-3.2596,1.49743]],[[168.42234,294.97325],[3.535,-0.67978],[-4.48808,0.86306]],[[156.58978,287.09142],[2.48836,3.03088],[-0.43732,-0.53266]],[[152.39674,281.42736],[0.85052,0.31443],[-0.78056,-0.28857]],[[150.11332,282.43678],[0.8202,-0.14075],[-1.47117,0.25245]],[[145.63784,282.5872],[1.21083,0.87289],[-2.58597,-1.86422]],[[144.80378,272.22843],[-0.88051,3.67628],[-0.10837,0.00942]]],&quot;closed&quot;:true,&quot;fillColor&quot;:[0,0,0],&quot;strokeWidth&quot;:0.5}]}" fill="#00bfd9" stroke-width="0.25"/><path d="M159.53063,172.79881c-3.94558,0.6576 -4.60317,-3.28798 -4.60317,-3.28798l-0.44994,-2.69965c0,0 -0.6576,-3.94558 3.28798,-4.60317c3.94558,-0.6576 4.60317,3.28798 4.60317,3.28798l0.44994,2.69965c0,0 0.02947,0.17679 0.0385,0.46177c0.28114,-0.27841 0.56298,-0.55445 0.8365,-0.83284c6.25775,-6.36912 14.48667,-7.34937 22.05322,-4.94553c0.12143,-0.33327 0.23492,-0.66883 0.33595,-1.00794c0.87557,-2.93887 0.81612,-6.10512 1.5659,-9.07164c-1.04495,-0.72164 -1.72968,-1.92772 -1.72968,-3.29372v-2.5082c-1.08431,-0.71552 -1.79977,-1.94472 -1.79977,-3.34104c0,-0.67183 0.16563,-1.30497 0.45828,-1.86083l1.24315,-2.48629c0.30606,-0.81931 0.60475,-1.61334 0.90554,-2.39152c0.46765,-5.40085 0.87513,-10.80356 1.46697,-16.20016c0,0 0.44173,-3.97553 4.41726,-3.53381c0.68212,0.07579 1.2342,0.25562 1.68078,0.50154c1.91658,0.03127 3.64371,1.47054 4.92872,3.17529c1.04145,0.71194 2.20551,1.99914 3.50708,4.02735c1.72902,2.69429 -2.04343,8.37073 -2.60675,11.09919c-0.77983,3.77713 -0.79097,7.71213 -1.84313,11.42262c-0.67444,2.37844 -1.97816,4.53996 -2.74136,6.89143c-1.02857,3.16907 -0.8501,6.63632 -1.78055,9.83557c-0.21379,0.73509 -0.52178,1.4435 -0.84004,2.14806c2.26343,1.46037 4.35954,3.2186 6.19309,5.20219c1.54278,1.66903 3.10832,3.37261 4.22314,5.35327c4.4891,7.97564 0.70709,17.83556 -6.79906,22.4051c-5.11729,3.11527 -9.22315,3.20626 -15.1137,4.27586c-4.37814,-0.18195 -8.93441,0.62993 -13.13053,-0.63252c-1.43963,-0.43312 -2.89961,-0.93261 -4.25286,-1.61012c-1.44629,7.37472 -5.30868,13.71817 -8.82327,20.28406c-1.50067,2.80351 -4.71134,5.60321 -4.99173,8.69016l0.05442,0.69223c0,0 0,4 -4,4c-4,0 -4,-4 -4,-4l0.05442,-2.00742c0.24769,-1.2243 0.22825,-2.53482 0.74307,-3.67289c1.0176,-2.2495 2.64822,-3.07611 3.88264,-5.02439c3.90064,-6.15635 8.17361,-13.74984 9.32248,-20.99886c0,0 0.26601,-1.59606 1.47477,-2.58874c-4.39334,0.03982 -8.82946,-0.40267 -13.27715,-0.40267c-5.69926,0 -11.39852,0 -17.09778,0c-2.12667,0 -5.36638,-0.60245 -7.41626,-0.05869c-3.42478,0.90848 -6.70613,2.33831 -10.16362,3.11303l-3.96525,0.88117c-0.3051,0.07448 -0.62391,0.11397 -0.95194,0.11397c-2.20914,0 -4,-1.79086 -4,-4c0,-0.19739 0.0143,-0.39144 0.04191,-0.58116c-1.82156,-0.37389 -3.1915,-1.98609 -3.1915,-3.91825c0,-1.48258 0.80659,-2.77677 2.00488,-3.46769l2.10815,-1.26489c4.07671,-4.76704 11.24758,-4.37129 16.7362,-4.65899c0.07597,-0.00398 0.15197,-0.00807 0.22801,-0.01226c0.99394,-0.29684 1.99809,-0.52206 3.0064,-0.39806c0.0591,0.00727 0.11812,0.01495 0.17705,0.02302l-0.0051,-0.04591l3.99171,-0.44352c0.16363,-0.02038 0.33033,-0.03088 0.49949,-0.03088c1.14478,0 2.17724,0.48091 2.90637,1.25172c3.78762,0.96881 7.40052,2.94715 11.14096,3.82441c4.51802,1.05963 9.25827,0.77312 13.84904,0.77312h1.34982c0,0 0.0663,0 0.18182,0.00854c-0.44875,-3.17743 0.04515,-6.31641 2.32893,-8.84221c0.33464,-1.98847 0.92258,-3.94669 1.7084,-5.80215c-0.13142,0.03221 -0.26866,0.06044 -0.41197,0.08432zM183.22797,170.29357c-2.78087,-0.90453 -5.76025,-1.12041 -8.84501,-0.2976c-2.03411,0.54256 -3.9828,1.86852 -5.44912,3.58127c0.76107,-0.27379 1.51569,-0.53094 2.26614,-0.77063c0.58894,-0.6742 1.51498,-1.20425 2.97107,-1.20425c0.27108,0 0.52379,0.01837 0.75938,0.05262c1.591,-0.86295 3.44569,-1.24222 5.24944,-1.3919c0.8911,-0.07394 1.93512,-0.0659 3.0481,0.03049zM169.23387,194.85126c0.28704,0.09877 0.59355,0.18518 0.92141,0.25853c1.03428,0.2314 2.1198,0.02627 3.17879,0.06872c2.5154,0.10085 5.02908,0.24077 7.54361,0.36116c4.25343,-0.77463 7.70678,-0.90395 11.42681,-3.08573c2.97002,-1.74189 4.42411,-4.03702 4.70841,-6.47576c-1.36668,2.68987 -3.45811,5.05245 -5.79182,6.46179c-5.91452,3.57179 -12.73575,2.4604 -19.29974,2.4604c-0.84428,-0.12652 -1.79221,-0.03154 -2.68747,-0.04911zM164.27287,187.8138c0.01796,-0.27403 0.04799,-0.54927 0.0892,-0.82522c-0.09894,0.03518 -0.20157,0.06837 -0.30804,0.09945c0.0234,0.0748 0.04643,0.14928 0.0687,0.2233c0.05081,0.1689 0.10074,0.33643 0.15014,0.50247zM186.27565,186.08487c-3.30957,0.47951 -6.61853,0.86754 -9.94815,1.0513c3.46387,0.23767 7.26793,0.38951 9.94815,-1.0513z" fill="#ff0000" stroke-width="0.5"/><path d="M168.05583,225.70675c-0.32347,0.80863 -0.61817,1.62865 -0.88864,2.45385c0,0 -1.26491,3.79473 -5.05964,2.52982c-3.79473,-1.26491 -2.52982,-5.05964 -2.52982,-5.05964c0.92279,-2.73033 2.05358,-5.40949 3.47135,-7.91871l7.47297,4.23426c0,0 0,2.89762 -2.46622,3.76042z" fill="#ff0000" stroke-width="0.5"/><path d="M234.86369,185.95101c0,4 -4,4 -4,4l-2.36973,-0.01363c-0.79066,0.13638 -1.58132,0.27276 -2.37198,0.40915c0,0 -3.94558,0.6576 -4.60317,-3.28798c-0.6576,-3.94558 3.28798,-4.60317 3.28798,-4.60317c1.00911,-0.16358 2.01822,-0.32716 3.02732,-0.49074l3.02957,-0.01363c0,0 4,0 4,4z" fill="#ff0000" stroke-width="0.5"/><path d="M242.61164,182.80142c0,-2.20914 1.79086,-4 4,-4c2.20914,0 4,1.79086 4,4c0,2.20914 -1.79086,4 -4,4c-2.20914,0 -4,-1.79086 -4,-4z" fill="#ff0000" stroke-width="0.5"/><path d="M242.72192,173.02911l0.41897,0.45231c-0.96515,0.85885 -1.60609,2.49461 -2.89544,2.57655c-0.4458,0.02833 -0.88974,0.02614 -1.3322,-0.00025l0.04117,0.37057l-3.99171,0.44352c-0.16363,0.02038 -0.33033,0.03088 -0.49949,0.03088c-2.20914,0 -4,-1.79086 -4,-4c0,-1.41045 0.73002,-2.6504 1.83282,-3.36261l2.64803,-1.76535l0.13567,0.20351l0.32572,-0.46857c1.06405,-0.36712 2.1281,-0.73424 3.19214,-1.10136c0,0 3.79473,-1.26491 5.05964,2.52982c0.67066,2.01199 -0.08103,3.3128 -0.93534,4.09097z" fill="#ff0000" stroke-width="0.5"/><path d="M155.32391,159.55475c-2.4,3.2 -5.6,0.8 -5.6,0.8l-2.37294,-1.87397c-4.1775,-4.64384 -9.69206,-9.02767 -10.7863,-15.57786c-0.35146,-2.10388 -1.17558,-4.50697 -0.18571,-6.39641c2.15465,-4.11278 5.2584,-4.5043 8.35322,-3.32368c0.30497,-0.90822 1.0136,-1.81532 2.5273,-2.31989c3.79473,-1.26491 5.05964,2.52982 5.05964,2.52982c0.97998,2.95709 1.52766,5.33216 2.71698,7.87812c0.87351,0.67431 1.84207,1.28455 2.13256,2.29649c0.06063,0.2112 0.11294,0.42372 0.15792,0.6374l0.17482,-0.08741l1.31384,2.62768c0.29265,0.55585 0.45828,1.189 0.45828,1.86083c0,2.20914 -1.79086,4 -4,4c-1.24595,0 -2.35884,-0.56966 -3.09244,-1.46273l-2.23015,-2.67618l0.1163,-0.09692l-0.30455,-0.14756c-0.20431,-0.34552 -0.39774,-0.68325 -0.58148,-1.01452c-0.30436,-0.45095 -0.58766,-0.95398 -0.91085,-1.30403c-1.5926,-1.72502 -1.79807,-2.43382 -3.08832,-3.50456c0.36577,1.28738 0.61024,2.71025 0.89573,3.20369c1.20997,2.09137 6.06261,6.24107 7.21958,7.52601l1.22659,0.82568c0,0 3.2,2.4 0.8,5.6z" fill="#ff0000" stroke-width="0.5"/><path d="M90.16076,181.58037c-2.82843,2.82843 -5.65685,0 -5.65685,0l-1.34982,-1.34982c-3.46968,-3.53891 -3.9726,-6.77879 -5.79043,-11.13505c-0.38777,-0.92925 -1.26738,-1.64523 -1.49137,-2.62691c-0.45249,-1.98318 -0.68016,-4.03865 -0.6284,-6.07433c-3.68513,1.95189 -9.93611,0.31551 -12.08966,-3.06847c-0.22557,-0.35445 -0.6162,-6.99782 -0.83698,-8.15014c-0.34309,-1.7907 -2.36797,-3.8198 -1.31616,-5.3091c6.05239,-8.56985 10.19393,-4.71374 10.97579,2.29212c0.1529,1.37009 -0.46841,2.67741 -1.00685,3.99145c-0.00643,0.96556 -0.18449,1.92041 -0.49852,2.6249c1.26081,-0.15918 2.54574,-0.15928 3.81252,-0.0702c2.37681,0.16713 5.13016,-0.41447 7.08492,0.94792c2.49089,1.73605 1.64379,8.13956 2.12543,10.38609c0.15572,0.72633 0.92294,1.18666 1.20828,1.8725c1.44682,3.47752 1.35612,5.98927 4.10828,8.66237l1.34982,1.34982c0,0 2.82843,2.82843 0,5.65685z" fill="#ff0000" stroke-width="0.5"/><path d="M98.63034,169.75311c0,-4 4,-4 4,-4l-0.58655,0.27863c3.93448,-1.83942 6.96725,-2.09056 11.38515,-2.0784c2.44997,0.00674 5.09254,0.95508 7.34994,0.00297c0.2931,-0.12362 -0.50936,-0.46944 -0.54128,-0.78594c-0.15205,-1.50761 -0.12132,-3.03568 0.00357,-4.54578c0.2978,-3.60092 2.8719,-5.73438 3.1606,-9.11216c0.10464,-1.2243 -0.30315,-2.43877 -0.45473,-3.65815c0,0 -0.39801,-3.98015 3.58213,-4.37816c3.98015,-0.39801 4.37816,3.58213 4.37816,3.58213c0.14839,1.78023 0.65335,3.56645 0.44516,5.34068c-0.30322,2.58404 -1.9526,4.82329 -2.92136,7.23798c-0.75764,1.88846 0.07684,4.08665 -0.21366,6.10057c-0.27119,1.88004 -0.04569,4.22455 -1.44117,5.51325c-6.05226,5.58914 -14.87009,0.60568 -21.45723,4.08009l-2.68874,0.42229c0,0 -4,0 -4,-4z" fill="#ff0000" stroke-width="0.5"/><path d="M130.14704,241.12492c-3.88057,0.97014 -4.85071,-2.91043 -4.85071,-2.91043l-0.53848,-3.26605c0.05022,-0.3944 0.09724,-0.78716 0.14041,-1.17862c-1.00417,0.39242 -2.01347,0.73153 -3.07393,0.72245c-1.81197,-0.01551 -3.31438,-1.76203 -5.12577,-1.81045c-6.95524,-0.18592 -13.85829,-0.03792 -20.8183,-0.36808l-4.55116,-0.06857c-2.18484,-0.02822 -3.94729,-1.80812 -3.94729,-3.99966c0,-0.95688 0.33599,-1.83528 0.89643,-2.52366l1.77986,-2.22483l0.06619,0.05295c0.06467,-0.11914 0.1315,-0.23723 0.20072,-0.35418c0.63407,-1.0714 1.93839,-1.56514 2.85886,-2.40339c3.59121,-3.27045 6.82535,-7.11431 11.34323,-9.21467c2.46183,-1.1445 8.63383,-3.0455 11.36349,-0.88318c0.86808,0.68765 2.7568,7.64672 3.65941,9.17958c1.21918,2.0705 3.22732,3.8505 5.29927,5.14009c0.03051,-0.00443 0.06105,-0.00874 0.09162,-0.01295c-0.04607,-0.34815 -0.09909,-0.69725 -0.15951,-1.04754c0,0 -0.6576,-3.94558 3.28798,-4.60317c3.94558,-0.6576 4.60317,3.28798 4.60317,3.28798c0.72899,4.4971 0.57815,8.79218 0.02354,13.30216l0.3614,0.33348c0,0 0.97014,3.88057 -2.91043,4.85071zM100.92529,224.44882c4.02551,0.04521 8.06841,-0.03223 12.08485,0.06776c-0.10275,-0.16329 -0.20375,-0.32928 -0.30296,-0.49806c-0.06916,-0.11765 -2.36608,-3.65389 -2.18449,-5.8783c-0.84856,0.25335 -1.79232,0.28768 -2.59004,0.67645c-1.19828,0.584 -2.26331,1.41905 -3.30826,2.24671c-1.31084,1.03826 -2.50595,2.21042 -3.69911,3.38544z" fill="#ff0000" stroke-width="0.5"/><path d="M231.30272,235.01646c3.57771,1.78885 1.78885,5.36656 1.78885,5.36656l-2.25879,3.33911c-1.35968,0.79416 -2.55238,1.9968 -4.07903,2.38249c-1.25622,0.31737 -2.57593,-0.29193 -3.86899,-0.3745c-2.76305,-0.17644 -6.28388,0.45939 -8.61883,1.11049c-2.51837,0.70225 -5.04321,2.56026 -7.59099,1.97358c-2.03179,-0.46786 -3.78354,-1.66784 -5.55688,-2.82435v1.15321c-0.19913,2.35076 0.77641,5.13437 -0.5974,7.05228c-5.18302,7.23575 -11.87179,-0.52569 -16.88994,-3.02463c0,0 -3.57771,-1.78885 -1.78885,-5.36656c1.78885,-3.57771 5.36656,-1.78885 5.36656,-1.78885c1.2051,0.60476 3.87836,1.8223 5.90963,3.05105v-1.72304c0,0 0,-3.37399 3.09875,-3.92448c-0.08763,-0.67435 0.02238,-1.46228 0.47314,-2.36379c1.78885,-3.57771 5.36656,-1.78885 5.36656,-1.78885c2.1531,1.07905 4.00821,2.71261 6.20199,3.70633c0.81812,0.37058 1.56091,-0.55287 2.36902,-1.16969c-1.40229,0.03094 -2.78141,-0.18111 -3.94653,-0.85621c-2.16361,-1.25365 -1.1787,-4.63779 -2.27801,-6.53984c-0.71261,-1.23296 -1.53863,-2.44301 -2.405,-3.64284c-0.2893,-0.11693 -0.57692,-0.23821 -0.86266,-0.36429c-1.42104,-0.627 -3.40319,-0.40221 -4.36968,-1.6181c-1.02627,-1.29109 -1.24123,-4.85354 -1.36182,-7.66319c-0.03645,-0.12497 -0.06616,-0.25224 -0.08808,-0.38214c-0.01576,-0.0934 -0.03072,-0.18688 -0.04491,-0.28044l-0.06691,0.02676l-1.76608,-4.41519c-0.20585,-0.48197 -0.31978,-1.01257 -0.31978,-1.56979c0,-2.20914 1.79086,-4 4,-4c1.27699,0 2.41421,0.5984 3.14656,1.53007l1.77668,2.22085l-0.43041,0.34433l0.95938,0.52361c0.17913,0.89163 0.38821,1.77798 0.56366,2.67026c0.41529,0.62406 0.54189,1.57401 0.96215,2.21843c1.06887,1.63898 2.14337,3.27451 3.23179,4.90063l0.56545,0.39582c1.40351,0.21734 2.40181,1.21564 2.40181,1.21564l1.79977,1.79977c0.72386,0.72386 1.17157,1.72386 1.17157,2.82843c0,0.15658 -0.009,0.31106 -0.0265,0.46294c3.87489,-0.86111 5.40319,0.78229 9.21761,2.78955l0.82734,0.066c0,0 3.09562,0.77391 3.06592,3.70415c0.71808,-0.93712 2.3687,-2.44316 4.95186,-1.15158zM226.39518,237.06574l-0.12899,-0.07318c-0.01433,0.07576 -0.03056,0.15271 -0.04879,0.23086c0.05841,-0.04973 0.11765,-0.10225 0.17778,-0.15768zM215.46219,237.51693c-0.11768,-0.08114 -0.08474,-0.50181 -0.17543,-0.39131c-0.31541,0.3843 -0.43193,1.00022 -0.63096,1.49347c0.66065,-0.1279 1.32386,-0.24417 1.98857,-0.35196c-0.40142,-0.23866 -0.79778,-0.48515 -1.18218,-0.75019z" fill="#ff0000" stroke-width="0.5"/><path d="M220.38626,175.73113c-2.82843,-2.82843 0,-5.65685 0,-5.65685l-0.11362,0.25849c0.67433,-1.06131 1.47715,-2.05116 2.02299,-3.18393c0.49224,-1.02152 0.61581,-2.18989 1.06763,-3.22991c0.16257,-0.37423 0.9381,-0.59972 0.75431,-0.964c-0.19346,-0.38345 -1.01286,0.24327 -1.28541,-0.08866c-0.0387,-0.04713 -0.05893,-0.09997 -0.06581,-0.15695c-0.01393,0.011 -0.0293,0.01984 -0.04623,0.02626c-1.8045,0.68413 -7.54954,0.86002 -9.40415,0.66888c-2.98851,-0.30801 -6.72582,0.65752 -8.90132,-1.4145c-4.29224,-4.08807 1.32647,-8.71219 3.37324,-10.81323c1.46719,-1.50609 2.5952,-3.51918 4.49018,-4.43022c0.17512,-0.08419 0.35153,-0.16495 0.52912,-0.24252l-0.03779,-0.07019l5.78305,-3.11395c0.57982,-0.32711 1.24941,-0.51376 1.96259,-0.51376c1.29159,0 2.4402,0.61216 3.17152,1.56216c0.41167,-0.18876 0.80256,-0.40107 1.07915,-0.71524c2.02988,-2.30576 2.77652,-5.01823 3.61651,-7.89502c0,0 1.14939,-3.83131 4.9807,-2.68191c3.83131,1.14939 2.68191,4.9807 2.68191,4.9807c-1.63849,5.34568 -3.53069,10.05835 -8.2969,13.38327c-0.96587,0.6738 -1.88447,1.62122 -3.05125,1.78103c-2.44156,0.33441 -4.92145,-0.00489 -7.38997,-0.1444l-0.30046,0.16179c-0.47012,0.72138 -1.0729,1.33923 -1.71217,1.92711c1.75995,0.06148 3.58124,0.32429 4.81565,0.00787c1.45966,-0.37416 2.78745,-1.81393 4.26244,-1.50569c1.59682,0.3337 2.47158,2.13003 3.72447,3.17477c1.0601,0.88398 2.76166,1.30692 3.21401,2.61099c1.79499,5.17479 -1.72438,11.01783 -4.25401,15.11923l-1.01351,1.15837c0,0 -2.82843,2.82843 -5.65685,0zM222.8922,162.214c0.10417,-0.25034 0.21164,-0.50122 0.06489,-0.67238c-0.16514,-0.19263 -0.06806,0.26628 -0.06489,0.67238z" fill="#ff0000" stroke-width="0.5"/><path d="M237.49739,226.76854c-3.92232,0.78446 -4.70679,-3.13786 -4.70679,-3.13786l-0.48742,-2.46849c0.21625,-0.30664 0.93512,-0.67748 0.64874,-0.91992c-0.30833,-0.26102 -0.68028,0.64225 -1.07551,0.55864c-1.00514,-0.21265 -1.78176,-1.05887 -2.76082,-1.37026c-1.25194,-0.39818 -2.67377,-0.19955 -3.87156,-0.73852l-6.13636,-0.87662c-1.96954,-0.24936 -3.49253,-1.93088 -3.49253,-3.96811c0,-2.20914 1.79086,-4 4,-4c0.16915,0 0.33585,0.0105 0.49949,0.03088l3.23985,0.35998c2.13211,-0.83244 1.91927,-2.65957 3.57464,-4.4658c-1.38757,-0.15333 -2.76824,-0.3942 -4.15617,-0.54789c0,0 -3.97553,-0.44173 -3.53381,-4.41726c0.44173,-3.97553 4.41726,-3.53381 4.41726,-3.53381c3.4442,0.38393 9.82229,0.24479 11.86349,3.97406c4.1324,7.54987 -0.87744,6.06075 -3.50332,10.65328c-0.01807,0.0316 -0.03543,0.06365 -0.05213,0.09613c0.82842,0.4405 1.62737,0.89233 2.38592,1.19608c1.41205,0.56543 3.33279,0.3046 4.32379,1.45852c1.21569,1.41553 1.03241,3.58617 1.54862,5.37926l0.41247,2.03093c0,0 0.78446,3.92232 -3.13786,4.70679z" fill="#ff0000" stroke-width="0.5"/><path d="M152.93888,290.9826c-3.79473,1.26491 -5.05964,-2.52982 -5.05964,-2.52982l-0.65521,-2.61474c0,-1.70525 -0.20852,-3.42456 0.01006,-5.11574c0.04354,-0.33685 0.68224,-0.70908 0.42208,-0.92744c-1.02503,-0.86034 -2.68702,-0.10996 -3.99578,-0.38928c-4.37363,-0.93345 -7.85756,-2.28625 -12.28571,-1.73581c0,0 -3.98015,0.39801 -4.37816,-3.58213c-0.39801,-3.98015 3.58213,-4.37816 3.58213,-4.37816c1.78023,-0.14839 3.55793,-0.55928 5.34068,-0.44516c2.78861,0.17851 6.61241,1.71574 9.3701,2.30888c2.98407,0.64183 6.28557,0.5373 8.60258,3.21025c2.04576,2.36002 1.33202,8.0562 1.33202,11.0546l0.24467,0.08491c0,0 1.26491,3.79473 -2.52982,5.05964z" fill="#ff0000" stroke-width="0.5"/><path d="M415.46623,137.5334c-0.39451,1.53646 -1.76726,2.45162 -1.76726,2.45162c-0.56403,0.18641 -1.34215,0.07921 -1.6921,0.55923c-0.23742,0.32566 0.42722,0.71219 0.4733,1.11257c0.11433,0.99344 0,2 0,3c0,3.59822 0.40031,7.17765 -0.71865,10.55306c0.07347,-0.18677 0.21512,-0.48484 0.35938,-0.50141c1.77483,-0.2039 3.57291,-0.07417 5.35927,-0.05165c1.38745,0.01749 2.83132,-0.23114 4.15914,0.17163c1.1501,0.34887 1.83891,1.68967 3,2c1.23811,0.33091 2.55954,-0.14676 3.84086,-0.17163c12.65654,-0.24571 25.34129,0 38,0c14.66667,0 29.33333,0 44,0c4.33333,0 8.66667,0 13,0c2.41464,0 4.89236,0.62202 7.24357,0.07217c1.7479,-0.40876 3.23894,-1.65231 5,-2c1.77468,-0.35038 3.62528,0.10832 5.42651,-0.05855c2.01894,-0.18703 3.98048,-0.81932 6,-1c4.46418,-0.39939 9.26847,0.69728 13.68919,0.03802c2.5428,-0.3792 5.06997,-1.02304 7.64073,-1.05165c4.77329,0 10.65542,0.88402 15.35927,0.05165c2.20688,-0.39052 4.39962,-1.0365 6.64073,-1.05165c3.29045,-0.02224 8.84856,1.04047 11.89708,-0.4026c1.20051,-0.56828 1.90398,-5.64967 2.30819,-6.86231c1.5335,-4.6005 2.94714,-9.35672 3.8142,-14.12924c0.12718,-0.70001 0.89794,-2.57682 -0.5502,-2.91033c-1.45512,-0.33512 -2.97606,0.30448 -4.46927,0.30448c-2.59141,0 -5.81187,-0.50242 -8.35927,-0.05165c-3.68031,0.65125 -7.39337,1.61369 -11.152,2.02168c-4.67139,0.50706 -9.49065,-0.45982 -14.15881,0.01634c-5.33559,0.54424 -10.61893,1.51845 -15.93577,1.99416c-3.98408,0.35647 -8.01699,-0.36824 -12,0c-3.79703,0.35104 -7.58093,1.01348 -11.39415,1.01947c-3.48175,0.00547 -7.01346,-0.62675 -10.4452,-0.03866c-2.39184,0.40988 -4.60029,1.63908 -7,2c-0.32243,0.04849 -10.39509,0.03866 -11.5548,0.03866c-18,0 -36,0 -54,0c-5.24841,0 -11.19454,-0.82186 -16.35927,-0.05165c-1.04256,0.15548 -1.95888,0.83512 -3,1c-3.3074,0.52377 -5.33992,-0.23346 -8.52238,0.89213zM410.49999,132.78168c0.41639,-2.35702 3.01003,-3.00543 3.01003,-3.00543l3.85179,-0.95991c3.42075,-1.08975 6.12615,-0.51481 9.47762,-1.10787c1.03797,-0.18367 1.95575,-0.85627 3,-1c6.61767,-0.91084 13.94456,-0.05165 20.64073,-0.05165c17,0 34,0 51,0c3.48176,0 7.00589,0.58069 10.4452,0.03866c2.39712,-0.37778 4.60467,-1.61104 7,-2c0.32343,-0.05252 11.51385,-0.03873 11.5548,-0.03866c3.55035,0.00596 7.06962,-0.66414 10.60585,-0.98053c3.98408,-0.35647 8.01699,0.36824 12,0c5.36054,-0.49559 10.68239,-1.47774 16.06423,-2.00584c4.56444,-0.44789 9.29249,0.53476 13.84119,0.01634c3.66587,-0.4178 7.25424,-1.4092 10.848,-1.97832c3.01488,-0.47745 6.57959,-0.05165 9.64073,-0.05165c5.52437,0 9.57586,-0.87885 12.69552,5.46927c0.87206,1.77454 0.42657,3.95271 0.28502,5.92488c-0.4536,6.31991 -3.33159,12.70164 -5.14005,18.7242c-1.27731,4.25371 -0.67388,5.70428 -4.73756,8.28425c-3.65223,2.31875 -8.05541,1.5974 -12.10292,1.5974c-2.11983,0 -4.27187,-0.42103 -6.35927,-0.05165c-1.03797,0.18367 -1.95888,0.83512 -3,1c-5.24508,0.83063 -11.34135,0.05165 -16.64073,0.05165c-2.14295,-0.03295 -4.23609,0.65612 -6.35927,0.94835c-4.69425,0.6461 -9.60059,-0.3974 -14.31081,0.03802c-2.01898,0.18664 -3.9804,0.82018 -6,1c-1.51861,0.13522 -3.07929,-0.36156 -4.57349,-0.05855c-1.75924,0.35677 -3.24411,1.62707 -5,2c-0.43507,0.0924 -7.92551,0.07217 -8.75643,0.07217c-4.33333,0 -8.66667,0 -13,0c-14.66667,0 -29.33333,0 -44,0c-9.33333,0 -18.66667,0 -28,0c-4.88867,0 -11.42585,0.95063 -16.15914,-0.17163c-1.16943,-0.27727 -1.87567,-1.57535 -3,-2c-2.6451,-0.99904 -5.71861,0.72045 -8.48159,0.11998c-2.01366,-0.43762 -4.41053,-0.9298 -5.60424,-2.60951c-1.23264,-1.7345 -0.58355,-4.21788 -0.75503,-6.33884c-0.31142,-3.85193 -0.23153,-8.14167 0,-12c0.09804,-1.63383 -0.34162,-3.46796 0.4733,-4.88743c0.915,-1.5938 2.87193,-2.29385 4.3079,-3.44077c0,0 0.49866,-0.33244 1.23863,-0.54694z" fill="#000000" stroke-width="0.5"/><path d="M419.54861,136.49422c3.18246,-1.12559 5.21504,-0.36922 8.52244,-0.89299c1.04112,-0.16488 1.9575,-0.8453 3.00007,-1.00077c5.16473,-0.77021 11.11099,0.05048 16.3594,0.05048c18,0 36.01147,-0.02639 54.01147,-0.02639c1.15971,0 11.28777,-0.00483 11.6102,-0.05332c2.39971,-0.36092 4.62678,-1.57805 7.01861,-1.98793c3.43173,-0.58809 6.9729,0.05782 10.45466,0.05235c3.81322,-0.00599 7.5993,-0.66296 11.39633,-1.014c3.98301,-0.36824 8.01707,0.36052 12.00116,0.00405c5.31684,-0.47571 10.60051,-1.44849 15.93609,-1.99273c4.66816,-0.47616 9.48778,0.49262 14.15917,-0.01444c3.75862,-0.40799 7.47167,-1.37051 11.15198,-2.02176c2.5474,-0.45077 5.76798,0.05241 8.3594,0.05241c1.49321,0 3.01418,-0.63941 4.4693,-0.30429c1.44814,0.33351 0.67758,2.21181 0.5504,2.91181c-0.86706,4.77252 -2.28036,9.53594 -3.81385,14.13644c-0.40421,1.21263 -1.10791,6.29776 -2.30842,6.86604c-3.04852,1.44308 -8.60673,0.38133 -11.89718,0.40357c-2.24111,0.01515 -4.43401,0.66235 -6.64089,1.05287c-4.70385,0.83237 -10.58627,-0.04986 -15.35956,-0.04986c-2.57076,0.02861 -5.09839,0.67471 -7.64119,1.05392c-4.42073,0.65926 -9.22604,-0.43363 -13.69022,-0.03424c-2.01952,0.18068 -3.98246,0.81685 -6.0014,1.00389c-1.80123,0.16686 -3.65335,-0.28846 -5.42803,0.06192c-1.76106,0.34769 -3.25623,1.59811 -5.00413,2.00687c-2.35121,0.54985 -4.83601,-0.06423 -7.25065,-0.06423c-4.33333,0 -8.69959,0.01295 -13.03293,0.01295c-14.66667,0 -29.38144,-0.03424 -44.04811,-0.03424c-12.65871,0 -25.34524,-0.25271 -38.00178,-0.007c-1.28132,0.02487 -2.60281,0.50226 -3.84091,0.17135c-1.16109,-0.31033 -1.85011,-1.6525 -3.00022,-2.00137c-1.32781,-0.40278 -2.77174,-0.15455 -4.15919,-0.17203c-1.78636,-0.02252 -3.58448,-0.15258 -5.35932,0.05132c-0.14426,0.01657 -0.28588,0.31487 -0.35935,0.50164c1.11896,-3.37542 0.71823,-6.96013 0.71823,-10.55835c0,-1 0.11432,-2.00809 -0.00002,-3.00153c-0.04608,-0.40038 -0.71072,-0.78747 -0.4733,-1.11313c0.34995,-0.48002 1.12807,-0.37312 1.69211,-0.55953c0,0 1.37279,-0.91648 1.7673,-2.45293z" data-paper-data="{&quot;noHover&quot;:false,&quot;origItem&quot;:[&quot;Path&quot;,{&quot;applyMatrix&quot;:true,&quot;segments&quot;:[[[305.68049,142.03281],[0,0],[-0.39451,1.53646]],[[303.91323,144.48444],[0,0],[-0.56403,0.18641]],[[302.22113,145.04367],[0.34995,-0.48002],[-0.23742,0.32566]],[[302.69443,146.15623],[-0.04608,-0.40038],[0.11433,0.99344]],[[302.69443,149.15623],[0,-1],[0,3.59822]],[[301.97578,159.7093],[1.11896,-3.37542],[0.07347,-0.18677]],[[302.33516,159.20788],[-0.14426,0.01657],[1.77483,-0.2039]],[[307.69443,159.15623],[-1.78636,-0.02252],[1.38745,0.01749]],[[311.85356,159.32787],[-1.32781,-0.40278],[1.1501,0.34887]],[[314.85356,161.32787],[-1.16109,-0.31033],[1.23811,0.33091]],[[318.69443,161.15623],[-1.28132,0.02487],[12.65654,-0.24571]],[[356.69443,161.15623],[-12.65871,0],[14.66667,0]],[[400.69443,161.15623],[-14.66667,0],[4.33333,0]],[[413.69443,161.15623],[-4.33333,0],[2.41464,0]],[[420.938,161.22841],[-2.35121,0.54985],[1.7479,-0.40876]],[[425.938,159.22841],[-1.76106,0.34769],[1.77468,-0.35038]],[[431.36451,159.16986],[-1.80123,0.16686],[2.01894,-0.18703]],[[437.36451,158.16986],[-2.01952,0.18068],[4.46418,-0.39939]],[[451.0537,158.20788],[-4.42073,0.65926],[2.5428,-0.3792]],[[458.69443,157.15623],[-2.57076,0.02861],[4.77329,0]],[[474.0537,157.20788],[-4.70385,0.83237],[2.20688,-0.39052]],[[480.69443,156.15623],[-2.24111,0.01515],[3.29045,-0.02224]],[[492.5915,155.75363],[-3.04852,1.44308],[1.20051,-0.56828]],[[494.89969,148.89132],[-0.40421,1.21263],[1.5335,-4.6005]],[[498.71389,134.76208],[-0.86706,4.77252],[0.12718,-0.70001]],[[498.16369,131.85175],[1.44814,0.33351],[-1.45512,-0.33512]],[[493.69443,132.15623],[1.49321,0],[-2.59141,0]],[[485.33516,132.10458],[2.5474,-0.45077],[-3.68031,0.65125]],[[474.18316,134.12626],[3.75862,-0.40799],[-4.67139,0.50706]],[[460.02435,134.14261],[4.66816,-0.47616],[-5.33559,0.54424]],[[444.08858,136.13677],[5.31684,-0.47571],[-3.98408,0.35647]],[[432.08858,136.13677],[3.98301,-0.36824],[-3.79703,0.35104]],[[420.69443,137.15623],[3.81322,-0.00599],[-3.48175,0.00547]],[[410.24923,137.11757],[3.43173,-0.58809],[-2.39184,0.40988]],[[403.24923,139.11757],[2.39971,-0.36092],[-0.32243,0.04849]],[[391.69443,139.15623],[1.15971,0],[-18,0]],[[337.69443,139.15623],[18,0],[-5.24841,0]],[[321.33516,139.10458],[5.16473,-0.77021],[-1.04256,0.15548]],[[318.33516,140.10458],[1.04112,-0.16488],[-3.3074,0.52377]],[[309.81278,140.99672],[3.18246,-1.12559],[0,0]]],&quot;closed&quot;:true}]}" fill="#9b9b9b" stroke-width="0.5"/></g></g></svg>