<svg version="1.1" xmlns="http://www.w3.org/2000/svg" xmlns:xlink="http://www.w3.org/1999/xlink" width="212.42511" height="45.55071" viewBox="0,0,212.42511,45.55071"><g transform="translate(-419.26103,-117.23229)"><g data-paper-data="{&quot;isPaintingLayer&quot;:true}" fill-rule="nonzero" stroke="none" stroke-width="0.5" stroke-linecap="butt" stroke-linejoin="miter" stroke-miterlimit="10" stroke-dasharray="" stroke-dashoffset="0" style="mix-blend-mode: normal"><path d="M430.45179,135.2837c-0.39451,1.53646 -1.76726,2.45162 -1.76726,2.45162c-0.56403,0.18641 -1.34215,0.07921 -1.6921,0.55923c-0.23742,0.32566 0.42722,0.71219 0.4733,1.11257c0.11433,0.99344 0,2 0,3c0,3.59822 0.40031,7.17765 -0.71865,10.55306c0.07347,-0.18677 0.21512,-0.48484 0.35938,-0.50141c1.77483,-0.2039 3.57291,-0.07417 5.35927,-0.05165c1.38745,0.01749 2.83132,-0.23114 4.15914,0.17163c1.1501,0.34887 1.83891,1.68967 3,2c1.23811,0.33091 2.55954,-0.14676 3.84086,-0.17163c12.65654,-0.24571 25.34129,0 38,0c14.66667,0 29.33333,0 44,0c4.33333,0 8.66667,0 13,0c2.41464,0 4.89236,0.62202 7.24357,0.07217c1.7479,-0.40876 3.23894,-1.65231 5,-2c1.77468,-0.35038 3.62528,0.10832 5.42651,-0.05855c2.01894,-0.18703 3.98048,-0.81932 6,-1c4.46418,-0.39939 9.26847,0.69728 13.68919,0.03802c2.5428,-0.3792 5.06997,-1.02304 7.64073,-1.05165c4.77329,0 10.65542,0.88402 15.35927,0.05165c2.20688,-0.39052 4.39962,-1.0365 6.64073,-1.05165c3.29045,-0.02224 8.84856,1.04047 11.89708,-0.4026c1.20051,-0.56828 1.90398,-5.64967 2.30819,-6.86231c1.5335,-4.6005 2.94714,-9.35672 3.8142,-14.12924c0.12718,-0.70001 0.89794,-2.57682 -0.5502,-2.91033c-1.45512,-0.33512 -2.97606,0.30448 -4.46927,0.30448c-2.59141,0 -5.81187,-0.50242 -8.35927,-0.05165c-3.68031,0.65125 -7.39337,1.61369 -11.152,2.02168c-4.67139,0.50706 -9.49065,-0.45982 -14.15881,0.01634c-5.33559,0.54424 -10.61893,1.51845 -15.93577,1.99416c-3.98408,0.35647 -8.01699,-0.36824 -12,0c-3.79703,0.35104 -7.58093,1.01348 -11.39415,1.01947c-3.48175,0.00547 -7.01346,-0.62675 -10.4452,-0.03866c-2.39184,0.40988 -4.60029,1.63908 -7,2c-0.32243,0.04849 -10.39509,0.03866 -11.5548,0.03866c-18,0 -36,0 -54,0c-5.24841,0 -11.19454,-0.82186 -16.35927,-0.05165c-1.04256,0.15548 -1.95888,0.83512 -3,1c-3.3074,0.52377 -5.33992,-0.23346 -8.52238,0.89213zM425.48555,130.53197c0.41639,-2.35702 3.01003,-3.00543 3.01003,-3.00543l3.85179,-0.95991c3.42075,-1.08975 6.12615,-0.51481 9.47762,-1.10787c1.03797,-0.18367 1.95575,-0.85627 3,-1c6.61767,-0.91084 13.94456,-0.05165 20.64073,-0.05165c17,0 34,0 51,0c3.48176,0 7.00589,0.58069 10.4452,0.03866c2.39712,-0.37778 4.60467,-1.61104 7,-2c0.32343,-0.05252 11.51385,-0.03873 11.5548,-0.03866c3.55035,0.00596 7.06962,-0.66414 10.60585,-0.98053c3.98408,-0.35647 8.01699,0.36824 12,0c5.36054,-0.49559 10.68239,-1.47774 16.06423,-2.00584c4.56444,-0.44789 9.29249,0.53476 13.84119,0.01634c3.66587,-0.4178 7.25424,-1.4092 10.848,-1.97832c3.01488,-0.47745 6.57959,-0.05165 9.64073,-0.05165c5.52437,0 9.57586,-0.87885 12.69552,5.46927c0.87206,1.77454 0.42657,3.95271 0.28502,5.92488c-0.4536,6.31991 -3.33159,12.70164 -5.14005,18.7242c-1.27731,4.25371 -0.67388,5.70428 -4.73756,8.28425c-3.65223,2.31875 -8.05541,1.5974 -12.10292,1.5974c-2.11983,0 -4.27187,-0.42103 -6.35927,-0.05165c-1.03797,0.18367 -1.95888,0.83512 -3,1c-5.24508,0.83063 -11.34135,0.05165 -16.64073,0.05165c-2.14295,-0.03295 -4.23609,0.65612 -6.35927,0.94835c-4.69425,0.6461 -9.60059,-0.3974 -14.31081,0.03802c-2.01898,0.18664 -3.9804,0.82018 -6,1c-1.51861,0.13522 -3.07929,-0.36156 -4.57349,-0.05855c-1.75924,0.35677 -3.24411,1.62707 -5,2c-0.43507,0.0924 -7.92551,0.07217 -8.75643,0.07217c-4.33333,0 -8.66667,0 -13,0c-14.66667,0 -29.33333,0 -44,0c-9.33333,0 -18.66667,0 -28,0c-4.88867,0 -11.42585,0.95063 -16.15914,-0.17163c-1.16943,-0.27727 -1.87567,-1.57535 -3,-2c-2.6451,-0.99904 -5.71861,0.72045 -8.48159,0.11998c-2.01366,-0.43762 -4.41053,-0.9298 -5.60424,-2.60951c-1.23264,-1.7345 -0.58355,-4.21788 -0.75503,-6.33884c-0.31142,-3.85193 -0.23153,-8.14167 0,-12c0.09804,-1.63383 -0.34162,-3.46796 0.4733,-4.88743c0.915,-1.5938 2.87193,-2.29385 4.3079,-3.44077c0,0 0.49866,-0.33244 1.23863,-0.54694z" fill="#000000"/><path d="M434.53417,134.24452c3.18246,-1.12559 5.21504,-0.36922 8.52244,-0.89299c1.04112,-0.16488 1.9575,-0.8453 3.00007,-1.00077c5.16473,-0.77021 11.11099,0.05048 16.3594,0.05048c18,0 36.01147,-0.02639 54.01147,-0.02639c1.15971,0 11.28777,-0.00483 11.6102,-0.05332c2.39971,-0.36092 4.62678,-1.57805 7.01861,-1.98793c3.43173,-0.58809 6.9729,0.05782 10.45466,0.05235c3.81322,-0.00599 7.5993,-0.66296 11.39633,-1.014c3.98301,-0.36824 8.01707,0.36052 12.00116,0.00405c5.31684,-0.47571 10.60051,-1.44849 15.93609,-1.99273c4.66816,-0.47616 9.48778,0.49262 14.15917,-0.01444c3.75862,-0.40799 7.47167,-1.37051 11.15198,-2.02176c2.5474,-0.45077 5.76798,0.05241 8.3594,0.05241c1.49321,0 3.01418,-0.63941 4.4693,-0.30429c1.44814,0.33351 0.67758,2.21181 0.5504,2.91181c-0.86706,4.77252 -2.28036,9.53594 -3.81385,14.13644c-0.40421,1.21263 -1.10791,6.29776 -2.30842,6.86604c-3.04852,1.44308 -8.60673,0.38133 -11.89718,0.40357c-2.24111,0.01515 -4.43401,0.66235 -6.64089,1.05287c-4.70385,0.83237 -10.58627,-0.04986 -15.35956,-0.04986c-2.57076,0.02861 -5.09839,0.67471 -7.64119,1.05392c-4.42073,0.65926 -9.22604,-0.43363 -13.69022,-0.03424c-2.01952,0.18068 -3.98246,0.81685 -6.0014,1.00389c-1.80123,0.16686 -3.65335,-0.28846 -5.42803,0.06192c-1.76106,0.34769 -3.25623,1.59811 -5.00413,2.00687c-2.35121,0.54985 -4.83601,-0.06423 -7.25065,-0.06423c-4.33333,0 -8.69959,0.01295 -13.03293,0.01295c-14.66667,0 -29.38144,-0.03424 -44.04811,-0.03424c-12.65871,0 -25.34524,-0.25271 -38.00178,-0.007c-1.28132,0.02487 -2.60281,0.50226 -3.84091,0.17135c-1.16109,-0.31033 -1.85011,-1.6525 -3.00022,-2.00137c-1.32781,-0.40278 -2.77174,-0.15455 -4.15919,-0.17203c-1.78636,-0.02252 -3.58448,-0.15258 -5.35932,0.05132c-0.14426,0.01657 -0.28588,0.31487 -0.35935,0.50164c1.11896,-3.37542 0.71823,-6.96013 0.71823,-10.55835c0,-1 0.11432,-2.00809 -0.00002,-3.00153c-0.04608,-0.40038 -0.71072,-0.78747 -0.4733,-1.11313c0.34995,-0.48002 1.12807,-0.37312 1.69211,-0.55953c0,0 1.37279,-0.91648 1.7673,-2.45293z" data-paper-data="{&quot;noHover&quot;:false,&quot;origItem&quot;:[&quot;Path&quot;,{&quot;applyMatrix&quot;:true,&quot;segments&quot;:[[[305.68049,142.03281],[0,0],[-0.39451,1.53646]],[[303.91323,144.48444],[0,0],[-0.56403,0.18641]],[[302.22113,145.04367],[0.34995,-0.48002],[-0.23742,0.32566]],[[302.69443,146.15623],[-0.04608,-0.40038],[0.11433,0.99344]],[[302.69443,149.15623],[0,-1],[0,3.59822]],[[301.97578,159.7093],[1.11896,-3.37542],[0.07347,-0.18677]],[[302.33516,159.20788],[-0.14426,0.01657],[1.77483,-0.2039]],[[307.69443,159.15623],[-1.78636,-0.02252],[1.38745,0.01749]],[[311.85356,159.32787],[-1.32781,-0.40278],[1.1501,0.34887]],[[314.85356,161.32787],[-1.16109,-0.31033],[1.23811,0.33091]],[[318.69443,161.15623],[-1.28132,0.02487],[12.65654,-0.24571]],[[356.69443,161.15623],[-12.65871,0],[14.66667,0]],[[400.69443,161.15623],[-14.66667,0],[4.33333,0]],[[413.69443,161.15623],[-4.33333,0],[2.41464,0]],[[420.938,161.22841],[-2.35121,0.54985],[1.7479,-0.40876]],[[425.938,159.22841],[-1.76106,0.34769],[1.77468,-0.35038]],[[431.36451,159.16986],[-1.80123,0.16686],[2.01894,-0.18703]],[[437.36451,158.16986],[-2.01952,0.18068],[4.46418,-0.39939]],[[451.0537,158.20788],[-4.42073,0.65926],[2.5428,-0.3792]],[[458.69443,157.15623],[-2.57076,0.02861],[4.77329,0]],[[474.0537,157.20788],[-4.70385,0.83237],[2.20688,-0.39052]],[[480.69443,156.15623],[-2.24111,0.01515],[3.29045,-0.02224]],[[492.5915,155.75363],[-3.04852,1.44308],[1.20051,-0.56828]],[[494.89969,148.89132],[-0.40421,1.21263],[1.5335,-4.6005]],[[498.71389,134.76208],[-0.86706,4.77252],[0.12718,-0.70001]],[[498.16369,131.85175],[1.44814,0.33351],[-1.45512,-0.33512]],[[493.69443,132.15623],[1.49321,0],[-2.59141,0]],[[485.33516,132.10458],[2.5474,-0.45077],[-3.68031,0.65125]],[[474.18316,134.12626],[3.75862,-0.40799],[-4.67139,0.50706]],[[460.02435,134.14261],[4.66816,-0.47616],[-5.33559,0.54424]],[[444.08858,136.13677],[5.31684,-0.47571],[-3.98408,0.35647]],[[432.08858,136.13677],[3.98301,-0.36824],[-3.79703,0.35104]],[[420.69443,137.15623],[3.81322,-0.00599],[-3.48175,0.00547]],[[410.24923,137.11757],[3.43173,-0.58809],[-2.39184,0.40988]],[[403.24923,139.11757],[2.39971,-0.36092],[-0.32243,0.04849]],[[391.69443,139.15623],[1.15971,0],[-18,0]],[[337.69443,139.15623],[18,0],[-5.24841,0]],[[321.33516,139.10458],[5.16473,-0.77021],[-1.04256,0.15548]],[[318.33516,140.10458],[1.04112,-0.16488],[-3.3074,0.52377]],[[309.81278,140.99672],[3.18246,-1.12559],[0,0]]],&quot;closed&quot;:true}]}" fill="#9b9b9b"/></g></g></svg>