<svg version="1.1" xmlns="http://www.w3.org/2000/svg" xmlns:xlink="http://www.w3.org/1999/xlink" width="441.93746" height="355.60257" viewBox="0,0,441.93746,355.60257"><g transform="translate(-64.97739,-42.72629)"><g data-paper-data="{&quot;isPaintingLayer&quot;:true}" fill-rule="nonzero" stroke="none" stroke-width="0.5" stroke-linecap="butt" stroke-linejoin="miter" stroke-miterlimit="10" stroke-dasharray="" stroke-dashoffset="0" style="mix-blend-mode: normal"><path d="M83.43524,127.6753c-0.42553,-0.19257 -0.81136,-0.45744 -1.14179,-0.77895c0.20184,-1.49791 0.38522,-2.99774 0.55115,-4.50128c0.2809,-0.34133 0.5586,-0.703 0.83363,-1.0928c3.52259,-4.99252 2.07461,-12.71533 3.98591,-18.29449c0.9692,0.19202 1.81242,0.73419 2.39234,1.48916c0.18523,-0.88857 0.37736,-1.77961 0.61414,-2.66118c0.81154,-3.0215 2.0949,-5.47213 2.61484,-8.61024c0.14991,-0.9048 0.20928,-1.83478 0.27006,-2.76382c1.85856,-2.79116 5.23331,-7.05179 8.12722,-11.68871c3.30972,-1.76888 7.01688,-3.08025 9.84098,-4.60489c0.80153,-0.43272 1.64092,-0.80201 2.47661,-1.1765l1.04977,-1.57465l0.08535,0.0569l0.43786,-0.61299l0.10147,0.07248c-0.0153,-0.05155 -0.02768,-0.10493 -0.03693,-0.16029c-0.20306,-1.21584 1.44322,-2.02248 2.35792,-2.84881c1.61322,-1.45735 3.59521,-2.45703 5.26534,-3.8488l0.34483,-0.02459l-0.08656,-0.14425l2.19333,-1.316c0.61343,-0.38272 1.33806,-0.60386 2.11435,-0.60386c0.49978,0 0.97816,0.09166 1.41923,0.25908c1.03968,-1.31166 2.10051,-2.62474 3.441,-3.55352c2.83161,-1.96196 4.43827,-1.93815 7.64155,-3.18401c3.7121,-1.44375 4.20915,-2.18443 8.05953,-3.2838c1.68778,-0.4819 3.53816,-0.27017 5.19822,-0.84027c6.774,-2.32636 13.62861,-4.35876 20.85035,-5.09486c6.36814,-1.38933 13.69619,-1.919 20.26503,-1.39033c5.06718,0.40782 9.75471,2.4699 14.62884,3.70742c3.17129,0.80517 6.58974,0.4202 9.72154,1.42794c1.96289,0.63161 3.93152,1.26744 5.94704,1.70279c2.24539,0.485 10.83614,3.20404 11.32545,4.98991c0.1836,0.67008 0.21481,1.37126 0.12811,2.07621c2.46954,0.5395 4.63099,2.03305 7.10936,3.0056c0.37044,0.14537 0.75526,0.25426 1.14379,0.35303c0.39897,2.1608 1.13987,4.19728 2.34043,5.6321c3.99576,4.77542 8.7809,8.18585 13.44158,12.26313c2.14346,1.87516 3.49712,4.43909 4.94407,6.85066c4.39487,7.32478 9.59401,11.91645 9.87443,21.30116c0.03513,1.17582 0.04605,2.32822 0.0254,3.4614c-2.10117,4.19678 -4.79333,8.09265 -6.54487,12.45908c-0.77238,1.92547 -2.01337,5.24819 -1.57931,7.35796c0.02172,0.10556 0.04681,0.21113 0.07477,0.31676c-0.06185,0.09131 -0.12021,0.18242 -0.17475,0.27333c-1.14453,1.90755 -2.71648,7.89008 -3.37176,12.5774c-0.93553,-0.09839 -1.77498,-0.51927 -2.40515,-1.14944l-1.28368,-1.28368c-3.21911,-0.90203 -6.20228,-2.14682 -9.50727,-2.77438c-1.8374,-1.19364 -3.95656,-1.88654 -5.97038,-2.74987c-2.06279,-0.88433 -3.64977,-2.63397 -5.62232,-3.70457c-2.49899,-1.35632 -6.09644,-2.53004 -8.82291,-3.34487c-4.34506,-1.29856 -9.14616,-1.65671 -13.38979,-3.2732c-3.4418,-1.31104 -5.62163,-2.71706 -9.45866,-3.3467c-3.38213,-0.555 -6.91854,-0.97249 -10.37356,-0.90652c-0.05849,0.01008 -0.11739,0.01889 -0.17672,0.0264l-3.09137,0.44162l-0.01269,-0.08881c-0.08929,0.04065 -0.17909,0.08032 -0.26944,0.11895c-0.96415,0.41224 -2.42032,0.41191 -3.92606,0.34825c-1.19142,0.127 -2.33076,0.17863 -3.28089,0.04809l-3.82315,0.84959c-0.30509,0.07448 -0.6239,0.11396 -0.95194,0.11396c-1.69467,0 -3.1432,-1.05387 -3.72596,-2.54199c-2.90534,0.70915 -5.80012,1.55707 -8.63646,2.0328c-1.43627,0.2409 -2.91706,0.15364 -4.34869,0.42072c-2.58043,0.4814 -4.96321,1.43413 -7.33669,2.45468c-1.2641,0.54354 -2.59468,1.98644 -3.86347,1.45394c-0.03165,-0.01328 -0.06238,-0.02748 -0.09223,-0.04256l0.02221,0.06663l-3.9609,1.32029c-0.40917,0.14711 -0.84924,0.22942 -1.30785,0.23454c-0.04421,0.02303 -0.0889,0.04525 -0.13405,0.06666l-2.4927,1.24634c-1.87473,1.87981 -3.45897,1.43644 -5.76463,2.42296c-2.49031,1.06551 -4.83733,2.45477 -7.34963,3.46665l-1.98769,1.19261c-0.61343,0.38272 -1.33807,0.60386 -2.11435,0.60386c-0.47444,0 -0.92959,-0.0826 -1.35185,-0.2342c-2.26635,1.73876 -4.37924,3.96155 -6.6358,5.76225c-0.64244,0.35243 -1.50598,0.45779 -1.92732,1.05729c-0.66408,0.94488 -0.54021,2.27989 -1.12007,3.27868c-0.47492,0.81804 -1.43124,1.26515 -1.96947,2.043c-1.97568,2.8553 -3.62221,7.18233 -6.3309,9.53054c-1.65238,1.43247 -4.58425,1.558 -5.53011,3.52972c-0.95403,1.98876 -0.37557,4.43322 -1.04956,6.53347c-0.21959,0.68429 -3.34328,5.73726 -3.76292,6.1291c-0.63587,0.59375 -1.65384,0.5812 -2.39563,1.03574c-0.71114,0.43575 0.45103,1.61697 0.51461,2.44857c0.09681,1.26612 0.22314,2.55939 0,3.80944c-0.31871,1.7855 -0.35347,3.88819 -1.60789,5.19815c-1.17954,1.23178 -3.24698,1.04473 -4.87048,1.56709c0,0 -0.00437,0.00073 -0.01285,0.002c-0.34742,1.17377 -1.28172,2.75208 -3.79433,2.75208c-0.65907,0 -1.20955,-0.10859 -1.66933,-0.29c-0.20061,-0.38983 -0.35599,-0.76701 -0.44671,-1.1299c-0.41839,-1.67354 -1.04771,-3.76994 -1.75728,-6.06622c0.10736,-1.81198 0.20386,-3.66195 -0.07503,-5.32193c-0.69227,-4.12041 -3.61762,-6.37337 -4.08749,-10.65946c-0.62536,-5.70439 -0.00892,-11.26052 -0.01363,-16.97776c-0.00198,-2.39991 -0.00153,-4.79985 -0.00088,-7.19977c-0.12372,-0.09918 -0.21002,-0.21634 -0.26738,-0.34742c0.74811,-2.59939 2.01148,-5.18811 2.50655,-7.73813c0.40213,-2.0713 0.76458,-4.13847 1.09002,-6.20625c0.21839,-0.03693 0.44279,-0.05615 0.67169,-0.05615c0.2153,0 0.42662,0.01701 0.63271,0.04976c0.161,-1.03355 0.30178,-2.12312 0.41956,-3.20225z" fill="#00bfd9"/><path d="M168.56302,232.44343c0.79722,-2.61242 3.80826,-2.61242 3.80826,-2.61242l0.24229,0.05443c11.57998,-1.87715 24.28555,-0.36365 35.92089,0.09071c1.55426,1.07797 3.72567,1.59086 4.66278,3.23389c1.40282,2.45956 0.47463,8.41927 -1.43715,10.52847c-1.95003,2.1514 -4.86712,2.01103 -7.15259,3.4017c-0.57955,0.35265 -4.65655,4.15868 -4.83213,4.23225c-3.48238,1.45909 -7.82247,0.94221 -11.41384,0.35232c-6.45489,-1.06024 -13.2365,-2.78385 -18.24344,-7.29636c-1.71573,-1.5463 -2.94047,-3.56273 -4.41922,-5.33702c0,0 -2.56074,-3.07288 0.51215,-5.63362c0.8356,-0.69634 1.63334,-0.9761 2.35201,-1.01435z" fill="#a30000"/><path d="M115.42112,162.68761c-0.05825,0.05052 -0.11644,0.1011 -0.17458,0.15172c0.03841,0.01982 0.07643,0.04029 0.11405,0.06139c0.01992,-0.07108 0.04011,-0.14212 0.06053,-0.21311zM123.54093,164.22135c-0.20981,1.5377 -0.47007,3.06276 -0.90142,4.46263c-0.19938,0.64704 -0.43119,1.28502 -0.67307,1.92002l-0.24727,1.23638c-0.12665,0.70518 -0.45045,1.34193 -0.9123,1.85116c-0.24477,0.727 -0.456,1.46286 -0.60116,2.21647c0,0 -0.73546,3.67717 -4.41263,2.94171c-1.04857,-0.20972 -1.73833,-0.65865 -2.18865,-1.1933c-2.2714,0.47614 -4.83492,-0.03887 -6.62531,-1.81586c-2.18725,-1.13795 -3.96762,-3.04268 -4.56313,-5.1663c-1.36583,-4.87057 0.17752,-5.63388 2.96202,-8.65198c3.9069,-4.23466 8.33388,-8.07819 12.8622,-11.72465l0.77335,-1.93339c0.53179,-1.42422 1.90457,-2.4384 3.51423,-2.4384c2.07107,0 3.75,1.67893 3.75,3.75c0,0.2786 -0.03038,0.55011 -0.08801,0.81138l-0.48476,2.42377l-0.18747,-0.03749l0.10483,0.3706c-0.2094,0.5147 -0.40508,1.04839 -0.58904,1.59594c0.15803,0.41473 0.24458,0.86474 0.24458,1.33496c0,0.17777 -0.01237,0.35265 -0.0363,0.52383l-0.49261,3.94081l-0.11193,-0.01399c0.01353,0.1482 0.02427,0.29684 0.03201,0.44593c0.05801,1.11864 -0.6148,2.11579 -1.12814,3.14976z" fill="#8f592b"/><path d="M151.02407,137.42795c-0.13042,0 -0.25631,-0.00454 -0.37781,-0.01329c-4.41784,2.08622 -8.55415,5.48069 -12.69085,7.97779c0,0 -3.21559,1.92938 -5.14497,-1.28621c-1.92938,-3.21559 1.28621,-5.14497 1.28621,-5.14497c5.12328,-3.05194 10.02509,-6.98092 15.5347,-9.26503l5.14272,3.98171c0,0 0,3.75 -3.75,3.75z" fill="#8f592b"/><path d="M189.76952,128.17866c0,1.95956 -1.02397,2.89516 -2.00176,3.34186c-0.80279,1.53862 -2.07857,3.07913 -3.45066,4.48429l-1.31591,3.07041c-0.44669,1.11134 -1.41018,1.95934 -2.59298,2.2465c-0.42735,1.00765 -1.35853,2.10547 -3.38752,2.10547c-3.75,0 -3.75,-3.75 -3.75,-3.75c0.00182,-0.71878 -0.00599,-1.43859 -0.02785,-2.15803c-0.49607,-0.79395 -0.98026,-1.59489 -1.43749,-2.41177c-0.69596,-1.2434 -2.315,-2.40422 -1.97918,-3.78901c0.10565,-0.43568 0.25774,-0.85106 0.4449,-1.2511v-0.03892l-0.42711,-0.08542l0.4863,-2.43158c0.31479,-1.75272 1.84748,-3.08271 3.69081,-3.08271c0.96029,0 1.83628,0.36095 2.49968,0.95458c0.66341,-0.59363 1.53939,-0.95458 2.49968,-0.95458c0.23438,0 0.46373,0.0215 0.6862,0.06264l0.66799,0.11133c0.60788,-0.42474 1.34752,-0.6739 2.14535,-0.6739c0.27859,0 0.55008,0.03038 0.81135,0.088l2.42374,0.48474l0.26445,-0.07282c0,0 3.75,0 3.75,3.75z" fill="#8f592b"/><path d="M220.56553,254.95769c0,3.75 -4.29108,3.75 -4.29108,3.75l-3.07848,-0.01278c-6.43509,0.95925 -12.0579,3.42994 -18.4964,4.45666c-10.03983,1.601 -21.19032,0.45212 -31.18891,-0.99536c0,0 -4.23269,-0.61651 -3.52722,-4.31549c0.70547,-3.69897 4.93815,-3.08246 4.93815,-3.08246c9.01529,1.32197 19.24434,2.43803 28.30637,1.00439c6.64149,-1.05071 12.54854,-3.58145 19.26013,-4.54218l3.78636,-0.01277c0,0 4.29108,0 4.29108,3.75z" fill="#f0e5ad"/><path d="M109.69458,180.82396c1.61473,-0.33283 3.38659,0.35619 5.06723,0.40007c1.78845,0.0467 3.7674,-0.76003 5.36702,0.04118c0.18303,0.09168 0.36103,0.19056 0.53455,0.29586l0.05061,-0.15185l1.25372,0.41791c0.97011,-2.15022 2.13352,-4.22441 3.32334,-6.25442c0.3424,-0.5842 0.6782,-1.1701 1.00809,-1.75768c0.22123,-1.29447 0.47051,-2.58823 0.75028,-3.88332c-0.20836,-1.26378 -0.16484,-2.69519 -0.25029,-3.8717c-0.11876,-1.63504 0.72706,-3.1975 1.04632,-4.80546c0.13788,-0.69446 0.26981,-1.38324 0.39858,-2.06813c-1.48265,-0.96858 -1.94989,-3.39109 -0.30652,-8.30202c0.11914,-0.35601 0.28184,-0.68287 0.47946,-0.98638l-0.01056,-0.00704l1.96746,-2.95121c0.23035,-0.35668 0.51958,-0.67176 0.85394,-0.9315l0.21343,-0.64029c0.47126,-1.53234 1.89801,-2.64617 3.58491,-2.64617c1.1891,0 2.24893,0.55345 2.93595,1.41681l3.9124,-2.73867l0.17291,0.24701c1.36719,-1.45371 1.88177,-3.91182 3.72215,-4.67063c0.30723,-0.12668 0.62081,-0.22205 0.93953,-0.29204l-0.07736,-0.19341l2.4207,-0.96829c0.45184,-0.19298 0.9493,-0.2998 1.47169,-0.2998c0.10842,0 0.21576,0.0046 0.32184,0.01362c0.30414,-1.52664 1.53511,-2.71913 3.08158,-2.96613l-0.3184,-0.74291c-0.2157,-0.47331 -0.33587,-0.99932 -0.33587,-1.55341c0,-2.07107 1.67893,-3.75 3.75,-3.75c0.52239,0 1.01982,0.10681 1.47167,0.29979l2.20686,0.88274c0.14907,0.03114 0.30119,0.05576 0.45522,0.07628c0.00203,-0.00128 0.00405,-0.00258 0.00608,-0.00386c1.61046,-1.0212 3.73165,-0.78768 5.59748,-1.18152l1.07757,1.40651l0.52656,-0.6582l2.47262,1.97809c0.87345,0.68658 1.43445,1.75273 1.43445,2.9499c0,0.05472 -0.00117,0.10916 -0.00349,0.16331c0.19846,0.86795 -0.13224,5.70701 -0.00929,7.02641c0.01539,0.16515 0.94849,5.42559 0.94437,5.5896l0.30581,1.37618c0.03513,0.09151 0.07078,0.18283 0.10696,0.27396l-0.02721,0.08489l0.05487,0.24693c2.52065,-1.33453 5.47138,-2.11589 7.98284,-3.0232l1.35532,-0.98568l0.47987,-1.4396l0.25681,0.0856c0.05291,-0.35134 0.12616,-0.69978 0.22472,-1.04462c0.37176,-1.30077 2.07722,-1.73524 3.07475,-2.6491c1.81101,-1.6591 4.74215,-5.45286 7.41448,-4.93232c5.95052,1.15911 5.05961,5.1684 5.31739,8.85685c0.04171,0.59677 0.45487,1.07953 0.84856,1.57153c1.02731,-0.79842 2.33393,-1.24058 3.55899,-1.69733c1.4884,-0.55494 3.02736,-1.13554 4.60949,-1.23946c-0.17747,-1.73683 0.67142,-3.9408 0.78446,-4.69964l0.2734,-0.17728c0.04671,-0.19646 0.10556,-0.37827 0.18579,-0.53434l-0.04615,-0.03297l2.47061,-3.45887c0.45021,-0.64718 1.09915,-1.14576 1.85842,-1.40737c1.39684,-1.29333 2.92959,-2.32724 3.83517,-2.59704c2.35368,-0.70122 5.90713,1.15729 7.95022,2.01286l0.69615,1.45761c1.59468,0.32859 2.81957,1.66965 2.97302,3.32154c1.78839,0.33856 3.55105,0.59385 5.08092,1.90096c0.23521,0.20096 0.45956,0.4097 0.67425,0.62533c0.53524,-1.41744 1.9046,-2.42549 3.50939,-2.42549c1.03554,0 1.97303,0.41974 2.65165,1.09835l1.99975,1.99974l-0.06942,0.06942l0.21202,0.08129c0.92055,1.14779 1.78328,2.34671 2.63389,3.55565c1.64035,1.38414 3.15455,2.93151 4.4992,4.60164c5.20678,6.46707 9.57423,13.91924 12.56708,21.72368c1.13266,0.31168 2.05075,1.1413 2.48359,2.21818l1.46578,3.4201l-0.08683,0.03721c0.07499,0.10832 0.14878,0.21752 0.22129,0.3277c0.49557,0.7531 0.30583,1.77973 0.54306,2.64948c1.10199,4.04033 2.7604,7.29156 2.0577,11.67036c-0.27961,1.74239 -2.02994,4.7447 -2.7611,6.32634c-1.38537,2.99681 -1.8837,6.39003 -2.82601,9.53103c-0.49036,1.6345 -0.68271,3.51562 -1.39525,5.05029c-0.04943,0.29733 -0.13384,0.58284 -0.24886,0.85215l-0.96832,2.42074l-0.12802,-0.05121l0.00567,0.32483c-1.22976,2.04965 -1.33242,5.26377 -3.5078,6.25427c-1.44657,0.65865 -2.70709,1.07632 -3.79578,1.26388c-0.92936,1.48005 -1.88492,3.23989 -2.8937,4.99656c0.05844,0.26299 0.08925,0.53639 0.08925,0.81698c0,0.40525 -0.06428,0.79548 -0.1832,1.16106l-1.47478,4.91585l-0.01746,-0.00524c-0.20878,1.05192 -0.60254,2.10965 -1.28397,3.22645c-1.00017,1.63917 -1.96706,3.38822 -3.43867,4.62174c-2.94033,2.46461 -4.76558,1.74012 -7.85781,3.01855c-2.28834,0.94609 -5.19234,2.51618 -7.18372,4.01503c-3.65904,2.75404 -4.18153,7.83007 -9.72841,8.26636c-0.54497,0.51611 -1.24476,0.87038 -2.02243,0.98589l-1.11372,0.18561c-0.36624,0.10797 -0.76601,0.16645 -1.1842,0.19736l-0.59754,0.09959c-0.41271,0.08144 -0.82252,0.16941 -1.23006,0.26245c-0.6119,0.50883 -1.52996,0.56354 -2.4376,0.6114c-2.95794,0.79357 -5.86067,1.70383 -8.96019,2.14632c-1.41209,0.20159 -6.54053,1.09452 -7.89892,0.51937c-0.11664,-0.04938 -0.23183,-0.10136 -0.34569,-0.1557l-0.02022,0.10113l-2.43158,-0.4863c-0.09514,-0.01709 -0.18904,-0.03776 -0.28154,-0.06188c-2.03643,0.29026 -4.07397,0.56961 -6.11203,0.87115c-0.57878,1.32417 -1.9002,2.24951 -3.43776,2.24951h-3.99949c-5.1841,1.23288 -11.39534,-1.83909 -16.45611,-2.52776c-3.51417,-0.47821 -7.30944,0.28308 -10.84968,0.01532c-3.51757,-0.26604 -6.71574,-1.51953 -9.97938,-2.7157c-2.81853,-1.03304 -5.7726,-1.27445 -8.45494,-2.70203c-2.19774,-1.16968 -4.35517,-2.48229 -6.42225,-3.92505c-9.4477,-2.47151 -17.01716,-7.67907 -22.08434,-16.53079c-0.08351,-0.14587 -0.24613,-0.42229 -0.45914,-0.78739c-0.60125,0.05441 -1.27003,0.09004 -2.01203,0.10587c-1.6861,0.03598 -7.23976,-4.91864 -8.31936,-5.92659c-4.19325,-3.91494 -5.53436,-8.43935 -6.03162,-13.76865c-0.13903,-0.17117 -0.26759,-0.35273 -0.38429,-0.54608c-1.39631,-2.31344 -0.53335,-5.41881 -0.22527,-8.10335c0.56934,-4.96107 4.62436,-11.38662 8.22119,-14.65292c0.23697,-0.21519 1.08223,-0.65677 1.95467,-1.20801c0.45802,-1.12234 1.44667,-1.68373 2.16031,-1.9527c0.07839,-0.17319 0.11602,-0.34551 0.10202,-0.51481c-0.37576,-4.54713 -8.41518,-8.04616 3.04272,-11.24329c1.49027,-0.41583 6.02211,4.13345 7.37157,5.60066zM210.05743,246.2896c-0.18367,-3.37149 1.81341,-6.15114 3.71805,-9.21788c1.15164,-1.85431 1.49782,-4.38714 1.92077,-6.54732c-1.39412,-0.22409 -2.6347,-1.22113 -4.04961,-1.33113c-3.79585,-0.29511 -7.53055,0.19654 -11.25941,0.49992c-7.82503,0.63666 -15.69227,-1.14229 -23.55716,-0.49445c-3.7633,0.30999 -8.34211,0.94474 -9.07594,5.13119c0.0013,0.42285 -0.06733,4.46877 0.2099,5.14057c1.22153,2.96 5.57303,4.73593 7.86494,6.53221c1.88406,1.47663 3.23107,4.03283 5.54359,4.95735c2.18655,0.87416 5.35512,0.22708 7.64659,0.24763c3.67577,0.03297 6.99841,-1.41489 10.53601,-2.37405c3.40831,-0.9241 6.99103,-1.81214 10.50228,-2.54404zM164.93582,140.8279c-0.02989,-0.1884 -0.05904,-0.37965 -0.08676,-0.57241c-0.06945,0.01424 -0.13838,0.05495 -0.20763,0.11199c0.03968,0.21305 0.07941,0.42677 0.11953,0.64078c0.06039,-0.06169 0.12045,-0.122 0.17486,-0.18036z" fill="#f0e5ad"/><path d="M262.46286,78.86804c-2.03433,1.4531 -3.48743,-0.58124 -3.48743,-0.58124l-2.09315,-2.93041c-8.24893,-11.6465 -22.25858,-19.89214 -35.95646,-23.37136c-4.65036,-1.1924 -9.49991,-2.92637 -14.24044,-3.66936c-4.18209,-0.65547 -8.97561,-0.11656 -13.20377,-0.17967c-6.53092,-0.09748 -13.22696,-0.6289 -19.74838,-0.30721c-8.91252,0.43964 -17.45863,4.3346 -25.67252,7.41522c-7.5417,2.82852 -15.67322,4.95608 -22.28504,9.5879c-3.94445,2.7392 -8.45779,5.2757 -12.1089,8.39146c-3.47394,2.96456 -6.47796,6.98491 -9.58803,10.32823c-3.1907,3.43 -7.3064,6.8852 -9.9988,10.71349c-1.82228,2.59109 -2.859,5.65369 -4.29919,8.47509c-4.90495,9.60903 -8.53251,18.9489 -9.25274,29.75263c0,0 -0.16629,2.49446 -2.66076,2.32817c-2.49447,-0.16629 -2.32817,-2.66075 -2.32817,-2.66075c0.76583,-11.48775 4.57474,-21.47967 9.78831,-31.69327c0.15574,-0.30512 4.52612,-8.8838 4.6561,-9.06874c0.13285,-0.18901 6.73111,-7.27116 7.0288,-7.59118c4.35576,-4.68244 8.52036,-10.208 13.3792,-14.36154c3.78324,-3.23408 8.44136,-5.87955 12.5322,-8.72042c7.03835,-4.85007 15.39951,-7.16909 23.3812,-10.16262c8.66843,-3.25109 17.60984,-7.21024 27.00418,-7.71562c6.68177,-0.35945 13.55479,0.18986 20.24716,0.28974c4.43466,0.06619 9.40218,-0.45159 13.792,0.22325c4.93293,0.75832 9.98195,2.54152 14.81947,3.78191c14.92144,3.85886 29.7083,12.69792 38.78325,25.30849l2.09315,2.93042c0,0 1.45309,2.03433 -0.58124,3.48743z" fill="#000000"/><path d="M244.19745,134.00026l2.64785,0.53268c9.06697,2.59059 22.99296,7.4884 22.34218,19.54543c-0.09976,1.84822 -1.20081,3.51424 -1.55087,5.33175c0,0 -0.38094,1.90474 -1.96535,2.69831c0.17033,0.8161 0.32157,1.61445 0.46552,2.33001c0,0 0.73542,3.67718 -2.94176,4.4126c-3.67718,0.73542 -4.4126,-2.94176 -4.4126,-2.94176c-0.84541,-4.25547 -2.56841,-6.68569 -4.60944,-10.4294c-1.6767,-3.07544 -3.65058,-6.64914 -6.51958,-8.84746c-3.11895,-2.38983 -7.03149,-3.70598 -10.34253,-5.80341l-0.18279,-0.95096l-0.38115,0.22869l-1.46811,-2.44682c-0.3588,-0.5751 -0.56612,-1.25445 -0.56612,-1.98223c0,-2.07107 1.67893,-3.75 3.75,-3.75c0.72777,0 1.40711,0.20731 1.98221,0.56611l2.22086,1.33251l0.68906,0.11485c0.49861,-0.00971 0.84261,0.05909 0.84261,0.05909z" fill="#8f592b"/><path d="M96.2262,191.12159c1.19714,2.19474 -0.99761,3.39187 -0.99761,3.39187l-1.10981,0.60536c-2.95042,1.57924 -6.69293,3.72692 -8.36983,6.91461c-1.67379,3.1818 -0.2421,6.2695 0.86875,9.22267c2.92158,7.76692 6.4049,13.53918 14.03109,17.32159c0,0 2.23606,1.11804 1.11802,3.35411c-1.11804,2.23606 -3.3541,1.11802 -3.3541,1.11802c-8.76005,-4.41102 -13.11537,-11.04936 -16.47665,-20.03809c-1.66941,-4.46433 -2.95588,-8.46395 -0.65792,-13.217c0.92623,-1.9158 2.41479,-3.54629 4.11938,-4.95192c-1.78986,0.00114 -2.28398,-1.893 -2.28398,-1.893l-0.4754,-1.82233c-0.08938,-0.34261 -2.53632,-9.70788 -2.57373,-9.91189c-1.63723,-8.92701 -1.03132,-18.85497 -1.03132,-27.89175c0,0 0,-2.5 2.5,-2.5c2.5,0 2.5,2.5 2.5,2.5c0,8.75732 -0.64297,18.45631 0.96841,27.10108c0.59611,3.19806 1.65356,6.29265 2.47473,9.44045l0.4754,1.82233c0,0 0.15603,0.59813 0.0155,1.27714c1.26691,-0.8321 2.55754,-1.57059 3.75738,-2.23546l1.10981,-0.60535c0,0 2.19474,-1.19714 3.39187,0.9976z" fill="#000000"/><path d="M263.24148,127.59511c-1.76776,-1.76778 0.00002,-3.53553 0.00002,-3.53553l2.6132,-2.50045c0.66305,-2.54854 1.69243,-5.00553 2.18038,-7.59331c1.18324,-6.27524 -0.24547,-13.48259 -1.47778,-19.64402c0,0 -0.4903,-2.45145 1.96116,-2.94174c2.45145,-0.4903 2.94174,1.96116 2.94174,1.96116c1.349,6.74491 2.76731,14.47392 1.52188,21.35068c-0.10737,0.59286 -2.51554,8.41255 -2.81897,9.40448l-3.38609,3.49876c0,0 -1.76777,1.76775 -3.53553,-0.00002z" fill="#000000"/><path d="M259.68476,168.94204c-2.11999,-1.32501 -0.79498,-3.44499 -0.79498,-3.44499l2.34938,-3.75898c1.06256,-1.69789 3.65339,-5.56806 4.38347,-7.65989c1.3225,-3.78923 -0.97092,-7.91265 -2.4113,-11.26809c0,0 -0.98481,-2.29785 1.31305,-3.28266c2.29786,-0.98481 3.28267,1.31305 3.28267,1.31305c2.00365,4.68225 4.26366,9.52731 2.58816,14.72853c-0.84301,2.61693 -3.49541,6.54327 -4.91606,8.81906l-2.34938,3.75898c0,0 -1.32501,2.11999 -3.445,0.79498z" fill="#000000"/><path d="M163.49138,147.92944c0.39498,2.4686 -2.07362,2.86357 -2.07362,2.86357l-2.62396,0.41984c-3.07071,0.49131 -6.3295,0.25193 -9.22617,1.38325c-0.88302,0.34487 -1.39202,1.28779 -2.11059,1.9061c-2.18645,1.88138 -4.19663,4.04471 -5.71694,6.49601c-2.45307,3.95524 -5.53857,7.78737 -6.77179,12.35917c-0.62186,2.30537 -0.36106,4.76335 -0.43899,7.14984c-0.17426,5.3369 0.29022,11.41331 2.31809,16.38228c0,0 0.92849,2.3212 -1.3927,3.24968c-2.32119,0.92848 -3.24967,-1.39271 -3.24967,-1.39271c-2.23626,-5.683 -2.85623,-12.31159 -2.67327,-18.39575c0.08101,-2.69363 -0.14925,-5.46385 0.55288,-8.06562c1.40507,-5.2066 4.59181,-9.44749 7.41499,-13.93612c2.274,-3.61547 5.79808,-8.58362 9.98157,-10.29675c0.482,-0.19737 9.66426,-1.63924 10.52264,-1.77658l2.62396,-0.41983c0,0 2.4686,-0.39498 2.86358,2.07362z" fill="#000000"/><path d="M237.92763,191.74971c-2.43058,-0.58506 -1.84552,-3.01564 -1.84552,-3.01564l0.78186,-3.24816c2.44282,-10.14668 6.44027,-21.88567 2.36133,-32.13347c-1.40593,-3.53222 -4.20077,-8.35697 -8.09791,-9.67648c-2.96814,-1.00496 -6.24319,-0.55106 -9.3613,-0.86288c0,0 -2.48759,-0.24876 -2.23883,-2.73635c0.24876,-2.48759 2.73635,-2.23883 2.73635,-2.23883c0.70203,0.0702 10.18495,0.99669 10.53944,1.1272c3.76137,1.38479 6.4404,4.44204 8.54283,7.66673c7.98885,12.25319 3.51265,27.00459 0.37924,40.02421l-0.78186,3.24817c0,0 -0.58506,2.43058 -3.01564,1.84552z" fill="#000000"/><path d="M222.01485,174.82068c0.21467,0 0.41091,0.01844 0.5903,0.05214l0.88238,-1.0069c0.20825,0.72831 0.45141,1.44946 0.69715,2.17008c0.15,0.28911 0.23185,0.58069 0.27652,0.81283c0.45316,1.3442 0.87308,2.6952 1.05044,4.09594c0.20942,1.65386 -0.33174,3.31758 -0.49762,4.97638l-0.01096,0.02376c-0.02496,0.5043 -0.17972,1.2977 -0.84462,1.83083l-1.39853,3.03148c-0.49262,-0.96445 -1.06715,-1.89714 -1.62606,-2.83589c-0.92463,-0.61283 -1.09396,-1.79819 -1.09396,-1.79819c-0.36519,-2.58774 -0.50439,-5.21217 -0.47994,-7.82543l3.04519,-3.47488c0.84583,0.15891 1.31704,0.65725 1.57953,1.16318c0.09238,0.2709 0.18512,0.54172 0.27652,0.81283c0.05364,0.27881 0.05365,0.47185 0.05365,0.47185l-0.01704,2.29111c-0.00611,0.0486 -0.01242,0.09722 -0.01894,0.14586c0.04895,1.90975 0.23712,3.81804 0.51078,5.70839c0,0 0.02757,0.19298 0.01342,0.47886l-0.84462,1.83083c-0.30799,0.24696 -0.72544,0.43806 -1.29013,0.51873c-0.76209,0.10887 -1.32304,-0.05047 -1.73445,-0.32314c-0.84934,-1.42655 -1.66261,-2.86708 -2.09761,-4.45427c-0.39783,-1.45156 0.33042,-2.99199 0.49564,-4.48798l-0.01704,-1.70839c0,0 0,-2.5 2.5,-2.5z" fill="#000000"/><path d="M163.52245,176.82042c2.5,0 2.5,2.5 2.5,2.5v2.99959c0,1.12215 0.00061,2.24432 0.0006,3.36647l0.48403,4.35645l-0.04904,0.00544c0.02017,0.04413 0.04033,0.08825 0.06051,0.13237l-0.05229,0.13825h0.05611v3.49954c0,1.38071 -1.11929,2.5 -2.5,2.5c-1.27328,0 -2.32423,-0.95188 -2.48007,-2.18284l-0.49472,-3.46316l0.04293,-0.00614c-0.02106,-0.05652 -0.04166,-0.11325 -0.06178,-0.17019c-0.90788,-2.56974 -0.00628,-5.4508 -0.00628,-8.1762v-2.99959c0,0 0,-2.5 2.5,-2.5z" fill="#000000"/><path d="M216.22314,233.58138l-0.3182,0.2939c-0.95674,1.12201 -1.77953,2.47763 -2.0174,3.9279c0,0 -0.12175,0.60363 -0.5465,1.15191c0.42976,1.1661 -0.36446,2.29114 -0.36446,2.29114l-0.6376,0.90318c-4.239,5.96885 -9.81392,12.01659 -17.42878,13.60935c-12.71349,2.65921 -25.0934,-5.84592 -30.16666,-16.93058c0,0 -1.02396,-2.28453 1.27995,-3.29988c0.23774,-0.10477 0.46185,-0.17441 0.67262,-0.21505c-0.05093,0.00012 -0.10186,0.00019 -0.15282,0.0002c0,0 -2.52122,0 -2.52122,-2.5c0,-2.5 2.52122,-2.5 2.52122,-2.5c6.5822,0.00206 12.89302,-0.92721 19.41761,-1.48792c8.79938,-0.7562 17.64156,-0.5118 26.46404,-0.5118h2.51959c0,0 2.52123,0 2.52123,2.5c0,0.77853 -0.2445,1.31462 -0.58123,1.68376c-0.22509,0.65124 -0.66138,1.08388 -0.66138,1.08388zM208.94301,236.82257c0.27469,-1.21818 0.74592,-2.39872 1.34715,-3.5132c-7.94911,-0.02997 -15.91309,-0.18452 -23.83849,0.49242c-6.35199,0.54255 -12.50987,1.41618 -18.89228,1.50442c1.2294,0.23612 1.79198,1.49126 1.79198,1.49126c3.93929,9.01627 14.27313,16.21182 24.51806,14.06895c6.28357,-1.3143 10.89677,-6.67606 14.3386,-11.58433l0.6376,-0.90318c0,0 0.061,-0.08642 0.17586,-0.21133c-0.20928,-0.69658 -0.07848,-1.34502 -0.07848,-1.34502z" fill="#000000"/><path d="M154.28731,132.76464c1.06169,2.26336 -1.20167,3.32505 -1.20167,3.32505l-0.57579,0.27009c-6.66467,3.11596 -12.50107,6.79906 -16.33983,13.25089c0,0 -1.28624,2.14374 -3.42997,0.8575c-2.14373,-1.28624 -0.8575,-3.42997 -0.8575,-3.42997c4.4228,-7.31869 10.90168,-11.62816 18.50392,-15.20514l0.57579,-0.27009c0,0 2.26336,-1.06169 3.32505,1.20168z" fill="#000000"/><path d="M233.78142,135.59402c-1.7677,1.76784 -3.53554,0.00014 -3.53554,0.00014l-0.35927,-0.36964c-1.00663,-0.89219 -1.83739,-2.03546 -3.01988,-2.67658c-2.7618,-1.49739 -7.37083,-1.22587 -10.35117,-1.22097c0,0 -2.5,0 -2.5,-2.5c0,-2.5 2.5,-2.5 2.5,-2.5c3.91508,0.00589 9.05306,-0.1142 12.64588,1.77863c1.52881,0.80543 2.65277,2.2151 3.97915,3.32265l0.64068,0.63023c0,0 1.76784,1.7677 0.00015,3.53554z" fill="#000000"/><path d="M202.42702,142.81527c-1.98148,0.71157 -4.12915,-1.14032 -5.87689,-2.3142c-3.09555,-2.07914 -3.8227,-6.54299 -5.38581,-9.6455c0,0 -1.67704,-3.35411 1.67707,-5.03115c0.94438,-0.47219 1.75581,-0.54552 2.43429,-0.40718l2.62573,-0.43761l0.01278,0.0767c0.09742,-0.03979 0.19554,-0.07814 0.29441,-0.11494c3.13405,-1.16667 6.92207,1.14361 9.70098,2.25518l0.49586,0.83757c1.6421,0.39907 2.86129,1.87919 2.86129,3.64407c0,1.16806 -0.53404,2.2114 -1.37129,2.89914l-2.67845,2.23208c-1.5485,2.0692 -2.37963,5.14028 -4.78997,6.00585z" fill="#8f592b"/><path d="M211.13442,124.59116c2.23607,1.11803 1.11805,3.3541 1.11805,3.3541l-1.90585,3.78776c-0.96838,3.42333 -1.45037,6.29955 -1.84498,9.86841c0,0 -0.27607,2.4847 -2.76078,2.20863c-2.48471,-0.27607 -2.20864,-2.76078 -2.20864,-2.76078c0.44722,-4.00657 1.04343,-7.27201 2.15452,-11.12887l2.09359,-4.2112c0,0 1.11802,-2.23607 3.3541,-1.11804z" fill="#000000"/><path d="M120.43218,181.50702c-0.6868,2.40381 -3.09061,1.71701 -3.09061,1.71701l-3.31269,-0.95418c-3.35542,-0.43338 -5.44696,-0.31333 -8.40067,-2.37908c-4.1616,-2.91052 -6.88489,-7.55831 -9.28272,-11.85461c0,0 -1.21411,-2.1854 0.97129,-3.3995c2.18539,-1.2141 3.3995,0.97129 3.3995,0.97129c2.01276,3.6413 4.25679,7.59939 7.7151,10.14249c1.92306,1.41414 4.38359,1.35364 6.59735,1.62041l3.68645,1.04557c0,0 2.40381,0.6868 1.71701,3.09061z" fill="#000000"/><path d="M193.98484,125.73814c-0.41072,2.46603 -2.87674,2.05532 -2.87674,2.05532l-1.0708,-0.17835c-3.11601,-0.52655 -6.29832,-0.74974 -9.45731,-0.66328c-2.91963,0.07299 -5.89628,0.08939 -8.88262,0.17472c0.36803,0.20871 0.59188,0.43255 0.59188,0.43255l1.10394,1.47717c1.32665,3.98935 2.84462,7.5772 3.86864,11.50528c3.11078,-3.19536 5.58887,-6.49875 9.47121,-8.85896c0,0 0.42365,-0.25419 1.00729,-0.34824c-0.30392,-0.68038 -0.62159,-2.00822 0.8256,-3.04192c2.03433,-1.45309 3.48743,0.58125 3.48743,0.58125c2.31787,3.24655 4.70326,6.22284 7.29898,9.25323l2.43315,2.43054c0,0 1.76777,1.76776 0.00001,3.53553c-1.76776,1.76777 -3.53554,0.00001 -3.53554,0.00001l-2.56624,-2.56883c-1.88033,-2.19234 -3.65938,-4.35996 -5.38106,-6.61084c-0.37263,0.68202 -0.99715,1.05674 -0.99715,1.05674c-3.70753,2.18847 -5.99635,5.59815 -9.01725,8.62286l-0.49992,0.49992c0,0 -0.98199,0.982 -2.21408,0.75029c-0.30301,0.43444 -0.80801,0.80874 -1.64235,0.9478c-2.46598,0.41101 -2.87699,-2.05498 -2.87699,-2.05498c-0.84396,-5.06697 -2.7831,-9.26315 -4.40514,-14.11856l0.10404,0.47733c0,0 -1.76782,-1.76772 -0.0001,-3.53553c0.13258,-0.13259 0.26516,-0.24529 0.397,-0.34034c-5.38747,0.24276 -10.7628,0.82554 -15.84866,2.48411c-7.59666,2.47737 -14.52662,7.27619 -20.96689,11.82856c-1.98133,1.40052 -3.9569,2.82356 -5.90553,4.28474c0.13361,0.00049 0.27457,0.00993 0.42328,0.02947c2.47869,0.32567 2.15303,2.80436 2.15303,2.80436l-0.16954,1.29039c-1.22017,9.28673 -3.16646,18.39917 -4.32788,27.69028c0,0 -0.31009,2.48069 -2.79078,2.1706c-2.48069,-0.31009 -2.1706,-2.79079 -2.1706,-2.79079c1.16281,-9.30227 3.11039,-18.42473 4.33187,-27.72143l0.16954,-1.29039c0,0 0.02462,-0.18739 0.11185,-0.45236c-6.34552,4.92422 -12.30846,10.32951 -17.13036,16.77616c0,0 -1.50001,1.99999 -3.5,0.49999c-1.99999,-1.5 -0.49999,-3.5 -0.49999,-3.5c7.20234,-9.57879 16.68916,-16.99492 26.41884,-23.87385c6.84572,-4.83996 14.22448,-9.86344 22.2968,-12.49733c9.18935,-2.99837 19.19269,-2.76007 28.70935,-2.99798c3.47551,-0.0794 6.97329,0.16592 10.40369,0.72966l1.07081,0.17834c0,0 2.46603,0.41071 2.05531,2.87674z" fill="#000000"/><path d="M264.74134,172.55327c1.76779,-1.76774 3.53553,0.00005 3.53553,0.00005l1.37578,1.48136c2.36064,3.9589 4.13329,8.01933 4.35532,12.73731c0.41011,8.71436 -4.92935,16.50126 -10.73046,22.31257c0,0 -1.76776,1.76778 -3.53553,0.00001c-1.76777,-1.76776 -0.00002,-3.53553 -0.00002,-3.53553c4.86141,-4.8524 9.60922,-11.33474 9.26691,-18.68216c-0.17661,-3.79075 -1.732,-7.09633 -3.64367,-10.25969l-0.62391,-0.51839c0,0 -1.76774,-1.76779 0.00005,-3.53553z" fill="#000000"/><path d="M258.08058,216.55596c2.25933,1.07025 1.18908,3.32958 1.18908,3.32958l-2.02799,4.27578c-6.01522,10.31255 -13.30776,19.4027 -22.69341,26.87112c-2.53821,2.01972 -6.37694,5.04198 -9.63329,5.74597c-1.3951,0.30161 -2.83569,-0.32853 -4.25353,-0.4928c0,0 -2.47487,-0.35357 -2.1213,-2.82844c0.35357,-2.47487 2.82844,-2.1213 2.82844,-2.1213c4.35813,0.80496 6.68593,-1.5119 10.06167,-4.21213c8.82722,-7.06084 15.71587,-15.57034 21.38859,-25.29447l1.93217,-4.08422c0,0 1.07025,-2.25933 3.32958,-1.18908z" fill="#000000"/><path d="M188.15123,269.36054l0.03159,-0.07398c-6.53948,-3.93017 -14.17539,-3.24326 -21.66078,-3.24326c0,0 -0.51503,0 -1.07755,-0.23376h-4.4211c-3.91897,-0.00262 -7.9592,-0.08628 -11.89785,-0.5731c-0.83748,1.37523 -2.59127,1.02448 -2.59127,1.02448c-2.78338,-1.02485 -3.95999,2.43764 -5.56041,4.53876c-2.01124,2.64045 -4.01041,5.2903 -5.98199,7.96049c-4.7831,6.47793 -9.85628,12.81869 -14.40442,19.46267c-7.50206,10.95911 -13.88404,22.54504 -20.27584,34.16497c-7.15702,12.99898 -12.64448,27.05677 -18.187,40.80393c-1.14244,2.8336 -2.20047,5.69098 -3.31992,8.50898c15.83614,-1.46578 31.77025,-3.68113 47.64565,-1.74908c8.67761,1.05607 17.01327,3.58043 25.629,4.93728c11.05442,1.74091 22.20246,3.09893 33.38099,3.16012c5.63785,-1.25285 10.95794,-0.28312 16.59884,-0.89418c4.15466,-0.45006 8.76251,-1.99047 12.8615,-3.20213c-6.85866,-9.50425 -12.67319,-20.27074 -16.02744,-31.25277c-5.82761,-19.07999 -7.58867,-38.46302 -9.05774,-58.26589c-0.58695,-7.91194 -2.07387,-16.68618 -1.26241,-24.74444c-0.26577,-0.17302 -0.42184,-0.32909 -0.42184,-0.32909zM177.90883,261.49706c3.04049,0.17892 4.35168,-0.35879 7.35629,0.55983c1.29514,0.39597 3.42397,1.69004 4.88742,2.57795c0.43617,-0.29235 1.03667,-0.45741 1.85653,-0.29345c2.45145,0.49027 1.96118,2.94173 1.96118,2.94173c-1.72412,8.39013 0.22091,18.28209 0.85153,26.78099c1.44184,19.43168 3.13491,38.45266 8.85337,57.17529c3.93068,12.86931 11.42991,25.42445 19.94125,35.82481l1.33323,1.6295c0,0 1.58309,1.93489 -0.3518,3.51799h-0.00001c-1.93489,1.58309 -3.51799,-0.3518 -3.51799,-0.3518l-1.16459,-1.42338c-1.00612,0.59071 -2.09989,0.59071 -2.09989,0.59071l0.00002,-0.00001l0.13032,-0.14429c-4.70076,1.33852 -10.10512,3.16452 -14.97015,3.71572c-5.70016,0.64583 -11.02748,-0.35427 -16.69684,0.90559c-11.85556,0.05408 -23.64932,-1.35593 -35.36785,-3.20692c-8.50622,-1.34359 -16.74242,-3.84694 -25.30661,-4.89357c-16.73012,-2.04459 -33.58567,0.74461 -50.26158,2.12879c-1.1582,2.27867 -2.45968,4.48607 -3.99333,6.58368l-2.37103,1.71733c0,0 -2.04122,1.4434 -3.48462,-0.59782l0.00001,-0.00004c-1.4434,-2.04122 0.59782,-3.48462 0.59782,-3.48462l1.7459,-1.19386c0.96022,-1.32968 1.81725,-2.72806 2.59917,-4.17448c-0.41174,-0.50298 -0.71702,-1.20067 -0.79141,-2.16772c-0.28761,-3.73895 3.45134,-4.02657 3.45134,-4.02657c0.07446,-0.00572 0.14892,-0.01147 0.22338,-0.01725c1.46784,-3.59795 2.73744,-7.30229 4.16743,-10.84912c5.61833,-13.9352 11.19872,-28.16207 18.44334,-41.34413c6.47201,-11.76573 12.94122,-23.49466 20.53842,-34.59045c4.58011,-6.6893 9.68437,-13.07496 14.50047,-19.59735c1.98829,-2.69271 3.99452,-5.37245 6.03252,-8.02773c0.91335,-1.18998 2.05565,-2.92811 3.40175,-4.38299c-8.0617,-2.42722 -15.91511,-6.61395 -22.94116,-10.77338c-4.24092,-2.51063 -10.0168,-5.26612 -12.98858,-9.37109c-0.95434,-1.31824 -1.18993,-3.02954 -1.78489,-4.54431c0,0 -0.87781,-2.34083 1.46301,-3.21864c2.34082,-0.8778 3.21863,1.46302 3.21863,1.46302c0.4049,1.15153 0.50235,2.46338 1.21471,3.45461c2.46215,3.426 7.91715,5.83906 11.4236,7.91347c12.90827,7.63651 25.90937,12.51709 41.01424,12.50643h4.49878c0,0 0.51507,0 1.07763,0.23379c3.82875,0.00303 7.49751,0.22944 11.30904,0.45374z" fill="#000000"/><path d="M188.60261,269.64929c-0.81145,8.05826 0.68593,16.84285 1.27288,24.75479c1.46907,19.80287 3.23483,39.23828 9.06244,58.31827c3.35425,10.98203 9.16232,21.75834 16.02098,31.26259c-4.09899,1.21166 -8.71139,2.7568 -12.86605,3.20686c-5.6409,0.61106 -10.96808,-0.35328 -16.60593,0.89957c-11.17853,-0.06119 -22.34872,-1.41174 -33.40314,-3.15265c-8.61573,-1.35685 -16.97373,-3.88432 -25.65134,-4.94039c-15.8754,-1.93205 -31.8305,0.26805 -47.66664,1.73383c1.11945,-2.818 2.17576,-5.67764 3.3182,-8.51124c5.54252,-13.74716 11.02095,-27.82802 18.17797,-40.827c6.3918,-11.61993 12.78946,-23.2487 20.29152,-34.20781c4.54814,-6.64398 9.64323,-12.99656 14.42633,-19.47449c1.97158,-2.67019 3.97754,-5.32123 5.98878,-7.96168c1.60042,-2.10112 2.782,-5.56388 5.56538,-4.53903c0,0 1.7559,0.35078 2.59338,-1.02445c3.93865,0.48682 7.98837,0.57175 11.90734,0.57437l4.42437,0.00088c0.56253,0.23376 1.07838,0.23402 1.07838,0.23402c7.48539,0 15.13509,-0.67992 21.67458,3.25026l-0.03158,0.07398c0,0 0.15638,0.15629 0.42214,0.32931z" data-paper-data="{&quot;noHover&quot;:false,&quot;origItem&quot;:[&quot;Path&quot;,{&quot;applyMatrix&quot;:true,&quot;segments&quot;:[[188.15123,269.36054],[[188.18282,269.28656],[0,0],[-6.53948,-3.93017]],[[166.52203,266.0433],[7.48539,0],[0,0]],[[165.44448,265.80954],[0.56253,0.23376],[0,0]],[[161.02338,265.80954],[0,0],[-3.91897,-0.00262]],[[149.12553,265.23643],[3.93865,0.48682],[-0.83748,1.37523]],[[146.53426,266.26092],[0,0],[-2.78338,-1.02485]],[[140.97385,270.79967],[1.60042,-2.10112],[-2.01124,2.64045]],[[134.99186,278.76016],[1.97158,-2.67019],[-4.7831,6.47793]],[[120.58744,298.22283],[4.54814,-6.64398],[-7.50206,10.95911]],[[100.3116,332.38781],[6.3918,-11.61993],[-7.15702,12.99898]],[[82.1246,373.19174],[5.54252,-13.74716],[-1.14244,2.8336]],[[78.80468,381.70072],[1.11945,-2.818],[15.83614,-1.46578]],[[126.45033,379.95164],[-15.8754,-1.93205],[8.67761,1.05607]],[[152.07933,384.88892],[-8.61573,-1.35685],[11.05442,1.74091]],[[185.46032,388.04904],[-11.17853,-0.06119],[5.63785,-1.25285]],[[202.05916,387.15486],[-5.6409,0.61106],[4.15466,-0.45006]],[[214.92066,383.95273],[-4.09899,1.21166],[-6.85866,-9.50425]],[[198.89322,352.69996],[3.35425,10.98203],[-5.82761,-19.07999]],[[189.83548,294.43406],[1.46907,19.80287],[-0.58695,-7.91194]],[[188.57307,269.68963],[-0.81145,8.05826],[-0.26577,-0.17302]]],&quot;closed&quot;:true}]}" fill="#00bfd9"/><path d="M305.68049,142.03282c-0.39451,1.53646 -1.76726,2.45162 -1.76726,2.45162c-0.56403,0.18641 -1.34215,0.07921 -1.6921,0.55923c-0.23742,0.32566 0.42722,0.71219 0.4733,1.11257c0.11433,0.99344 0,2 0,3c0,3.59822 0.40031,7.17765 -0.71865,10.55306c0.07347,-0.18677 0.21512,-0.48484 0.35938,-0.50141c1.77483,-0.2039 3.57291,-0.07417 5.35927,-0.05165c1.38745,0.01749 2.83132,-0.23114 4.15914,0.17163c1.1501,0.34887 1.83891,1.68967 3,2c1.23811,0.33091 2.55954,-0.14676 3.84086,-0.17163c12.65654,-0.24571 25.34129,0 38,0c14.66667,0 29.33333,0 44,0c4.33333,0 8.66667,0 13,0c2.41464,0 4.89236,0.62202 7.24357,0.07217c1.7479,-0.40876 3.23894,-1.65231 5,-2c1.77468,-0.35038 3.62528,0.10832 5.42651,-0.05855c2.01894,-0.18703 3.98048,-0.81932 6,-1c4.46418,-0.39939 9.26847,0.69728 13.68919,0.03802c2.5428,-0.3792 5.06997,-1.02304 7.64073,-1.05165c4.77329,0 10.65542,0.88402 15.35927,0.05165c2.20688,-0.39052 4.39962,-1.0365 6.64073,-1.05165c3.29045,-0.02224 8.84856,1.04047 11.89708,-0.4026c1.20051,-0.56828 1.90398,-5.64967 2.30819,-6.86231c1.5335,-4.6005 2.94714,-9.35672 3.8142,-14.12924c0.12718,-0.70001 0.89794,-2.57682 -0.5502,-2.91033c-1.45512,-0.33512 -2.97606,0.30448 -4.46927,0.30448c-2.59141,0 -5.81187,-0.50242 -8.35927,-0.05165c-3.68031,0.65125 -7.39337,1.61369 -11.152,2.02168c-4.67139,0.50706 -9.49065,-0.45982 -14.15881,0.01634c-5.33559,0.54424 -10.61893,1.51845 -15.93577,1.99416c-3.98408,0.35647 -8.01699,-0.36824 -12,0c-3.79703,0.35104 -7.58093,1.01348 -11.39415,1.01947c-3.48175,0.00547 -7.01346,-0.62675 -10.4452,-0.03866c-2.39184,0.40988 -4.60029,1.63908 -7,2c-0.32243,0.04849 -10.39509,0.03866 -11.5548,0.03866c-18,0 -36,0 -54,0c-5.24841,0 -11.19454,-0.82186 -16.35927,-0.05165c-1.04256,0.15548 -1.95888,0.83512 -3,1c-3.3074,0.52377 -5.33992,-0.23346 -8.52238,0.89213zM300.71425,137.2811c0.41639,-2.35702 3.01003,-3.00543 3.01003,-3.00543l3.85179,-0.95991c3.42075,-1.08975 6.12615,-0.51481 9.47762,-1.10787c1.03797,-0.18367 1.95575,-0.85627 3,-1c6.61767,-0.91084 13.94456,-0.05165 20.64073,-0.05165c17,0 34,0 51,0c3.48176,0 7.00589,0.58069 10.4452,0.03866c2.39712,-0.37778 4.60467,-1.61104 7,-2c0.32343,-0.05252 11.51385,-0.03873 11.5548,-0.03866c3.55035,0.00596 7.06962,-0.66414 10.60585,-0.98053c3.98408,-0.35647 8.01699,0.36824 12,0c5.36054,-0.49559 10.68239,-1.47774 16.06423,-2.00584c4.56444,-0.44789 9.29249,0.53476 13.84119,0.01634c3.66587,-0.4178 7.25424,-1.4092 10.848,-1.97832c3.01488,-0.47745 6.57959,-0.05165 9.64073,-0.05165c5.52437,0 9.57586,-0.87885 12.69552,5.46927c0.87206,1.77454 0.42657,3.95271 0.28502,5.92488c-0.4536,6.31991 -3.33159,12.70164 -5.14005,18.7242c-1.27731,4.25371 -0.67388,5.70428 -4.73756,8.28425c-3.65223,2.31875 -8.05541,1.5974 -12.10292,1.5974c-2.11983,0 -4.27187,-0.42103 -6.35927,-0.05165c-1.03797,0.18367 -1.95888,0.83512 -3,1c-5.24508,0.83063 -11.34135,0.05165 -16.64073,0.05165c-2.14295,-0.03295 -4.23609,0.65612 -6.35927,0.94835c-4.69425,0.6461 -9.60059,-0.3974 -14.31081,0.03802c-2.01898,0.18664 -3.9804,0.82018 -6,1c-1.51861,0.13522 -3.07929,-0.36156 -4.57349,-0.05855c-1.75924,0.35677 -3.24411,1.62707 -5,2c-0.43507,0.0924 -7.92551,0.07217 -8.75643,0.07217c-4.33333,0 -8.66667,0 -13,0c-14.66667,0 -29.33333,0 -44,0c-9.33333,0 -18.66667,0 -28,0c-4.88867,0 -11.42585,0.95063 -16.15914,-0.17163c-1.16943,-0.27727 -1.87567,-1.57535 -3,-2c-2.6451,-0.99904 -5.71861,0.72045 -8.48159,0.11998c-2.01366,-0.43762 -4.41053,-0.9298 -5.60424,-2.60951c-1.23264,-1.7345 -0.58355,-4.21788 -0.75503,-6.33884c-0.31142,-3.85193 -0.23153,-8.14167 0,-12c0.09804,-1.63383 -0.34162,-3.46796 0.4733,-4.88743c0.915,-1.5938 2.87193,-2.29385 4.3079,-3.44077c0,0 0.49866,-0.33244 1.23863,-0.54694z" fill="#000000"/><path d="M309.76287,140.99364c3.18246,-1.12559 5.21504,-0.36922 8.52244,-0.89299c1.04112,-0.16488 1.9575,-0.8453 3.00007,-1.00077c5.16473,-0.77021 11.11099,0.05048 16.3594,0.05048c18,0 36.01147,-0.02639 54.01147,-0.02639c1.15971,0 11.28777,-0.00483 11.6102,-0.05332c2.39971,-0.36092 4.62678,-1.57805 7.01861,-1.98793c3.43173,-0.58809 6.9729,0.05782 10.45466,0.05235c3.81322,-0.00599 7.5993,-0.66296 11.39633,-1.014c3.98301,-0.36824 8.01707,0.36052 12.00116,0.00405c5.31684,-0.47571 10.60051,-1.44849 15.93609,-1.99273c4.66816,-0.47616 9.48778,0.49262 14.15917,-0.01444c3.75862,-0.40799 7.47167,-1.37051 11.15198,-2.02176c2.5474,-0.45077 5.76798,0.05241 8.3594,0.05241c1.49321,0 3.01418,-0.63941 4.4693,-0.30429c1.44814,0.33351 0.67758,2.21181 0.5504,2.91181c-0.86706,4.77252 -2.28036,9.53594 -3.81385,14.13644c-0.40421,1.21263 -1.10791,6.29776 -2.30842,6.86604c-3.04852,1.44308 -8.60673,0.38133 -11.89718,0.40357c-2.24111,0.01515 -4.43401,0.66235 -6.64089,1.05287c-4.70385,0.83237 -10.58627,-0.04986 -15.35956,-0.04986c-2.57076,0.02861 -5.09839,0.67471 -7.64119,1.05392c-4.42073,0.65926 -9.22604,-0.43363 -13.69022,-0.03424c-2.01952,0.18068 -3.98246,0.81685 -6.0014,1.00389c-1.80123,0.16686 -3.65335,-0.28846 -5.42803,0.06192c-1.76106,0.34769 -3.25623,1.59811 -5.00413,2.00687c-2.35121,0.54985 -4.83601,-0.06423 -7.25065,-0.06423c-4.33333,0 -8.69959,0.01295 -13.03293,0.01295c-14.66667,0 -29.38144,-0.03424 -44.04811,-0.03424c-12.65871,0 -25.34524,-0.25271 -38.00178,-0.007c-1.28132,0.02487 -2.60281,0.50226 -3.84091,0.17135c-1.16109,-0.31033 -1.85011,-1.6525 -3.00022,-2.00137c-1.32781,-0.40278 -2.77174,-0.15455 -4.15919,-0.17203c-1.78636,-0.02252 -3.58448,-0.15258 -5.35932,0.05132c-0.14426,0.01657 -0.28588,0.31487 -0.35935,0.50164c1.11896,-3.37542 0.71823,-6.96013 0.71823,-10.55835c0,-1 0.11432,-2.00809 -0.00002,-3.00153c-0.04608,-0.40038 -0.71072,-0.78747 -0.4733,-1.11313c0.34995,-0.48002 1.12807,-0.37312 1.69211,-0.55953c0,0 1.37279,-0.91648 1.7673,-2.45293z" data-paper-data="{&quot;noHover&quot;:false,&quot;origItem&quot;:[&quot;Path&quot;,{&quot;applyMatrix&quot;:true,&quot;segments&quot;:[[[305.68049,142.03281],[0,0],[-0.39451,1.53646]],[[303.91323,144.48444],[0,0],[-0.56403,0.18641]],[[302.22113,145.04367],[0.34995,-0.48002],[-0.23742,0.32566]],[[302.69443,146.15623],[-0.04608,-0.40038],[0.11433,0.99344]],[[302.69443,149.15623],[0,-1],[0,3.59822]],[[301.97578,159.7093],[1.11896,-3.37542],[0.07347,-0.18677]],[[302.33516,159.20788],[-0.14426,0.01657],[1.77483,-0.2039]],[[307.69443,159.15623],[-1.78636,-0.02252],[1.38745,0.01749]],[[311.85356,159.32787],[-1.32781,-0.40278],[1.1501,0.34887]],[[314.85356,161.32787],[-1.16109,-0.31033],[1.23811,0.33091]],[[318.69443,161.15623],[-1.28132,0.02487],[12.65654,-0.24571]],[[356.69443,161.15623],[-12.65871,0],[14.66667,0]],[[400.69443,161.15623],[-14.66667,0],[4.33333,0]],[[413.69443,161.15623],[-4.33333,0],[2.41464,0]],[[420.938,161.22841],[-2.35121,0.54985],[1.7479,-0.40876]],[[425.938,159.22841],[-1.76106,0.34769],[1.77468,-0.35038]],[[431.36451,159.16986],[-1.80123,0.16686],[2.01894,-0.18703]],[[437.36451,158.16986],[-2.01952,0.18068],[4.46418,-0.39939]],[[451.0537,158.20788],[-4.42073,0.65926],[2.5428,-0.3792]],[[458.69443,157.15623],[-2.57076,0.02861],[4.77329,0]],[[474.0537,157.20788],[-4.70385,0.83237],[2.20688,-0.39052]],[[480.69443,156.15623],[-2.24111,0.01515],[3.29045,-0.02224]],[[492.5915,155.75363],[-3.04852,1.44308],[1.20051,-0.56828]],[[494.89969,148.89132],[-0.40421,1.21263],[1.5335,-4.6005]],[[498.71389,134.76208],[-0.86706,4.77252],[0.12718,-0.70001]],[[498.16369,131.85175],[1.44814,0.33351],[-1.45512,-0.33512]],[[493.69443,132.15623],[1.49321,0],[-2.59141,0]],[[485.33516,132.10458],[2.5474,-0.45077],[-3.68031,0.65125]],[[474.18316,134.12626],[3.75862,-0.40799],[-4.67139,0.50706]],[[460.02435,134.14261],[4.66816,-0.47616],[-5.33559,0.54424]],[[444.08858,136.13677],[5.31684,-0.47571],[-3.98408,0.35647]],[[432.08858,136.13677],[3.98301,-0.36824],[-3.79703,0.35104]],[[420.69443,137.15623],[3.81322,-0.00599],[-3.48175,0.00547]],[[410.24923,137.11757],[3.43173,-0.58809],[-2.39184,0.40988]],[[403.24923,139.11757],[2.39971,-0.36092],[-0.32243,0.04849]],[[391.69443,139.15623],[1.15971,0],[-18,0]],[[337.69443,139.15623],[18,0],[-5.24841,0]],[[321.33516,139.10458],[5.16473,-0.77021],[-1.04256,0.15548]],[[318.33516,140.10458],[1.04112,-0.16488],[-3.3074,0.52377]],[[309.81278,140.99672],[3.18246,-1.12559],[0,0]]],&quot;closed&quot;:true}]}" fill="#9b9b9b"/></g></g></svg>