<svg version="1.1" xmlns="http://www.w3.org/2000/svg" xmlns:xlink="http://www.w3.org/1999/xlink" width="38.41779" height="162.35235" viewBox="0,0,38.41779,162.35235"><g transform="translate(-435.84721,-186.08579)"><g data-paper-data="{&quot;isPaintingLayer&quot;:true}" fill="#000000" fill-rule="nonzero" stroke="none" stroke-width="0.5" stroke-linecap="butt" stroke-linejoin="miter" stroke-miterlimit="10" stroke-dasharray="" stroke-dashoffset="0" style="mix-blend-mode: normal"><path d="M448.75622,232.23713c0.32775,-0.32775 0.6555,-0.52046 0.96934,-0.61987c-0.12506,-0.45853 -0.175,-0.92515 -0.12581,-1.39592c0.75005,-7.17902 9.2716,-9.6754 14.86759,-10.61092c3.24756,-0.54292 7.37705,-1.72189 9.39234,2.21147c0.64715,1.26308 0.35768,2.83883 0.2241,4.25174c-0.39189,4.14525 -2.6171,11.25513 -7.02505,12.88902c-1.00441,0.37231 -2.14046,0.09778 -3.21151,0.11546c-4.40526,0.07274 -8.31325,-0.46704 -12.56943,-1.57325l-2.52156,-2.08576c0,0 -1.59099,-1.59099 0,-3.18198zM457.5851,234.40784c2.77712,0.55793 5.70415,0.87112 8.0506,0.28574c1.52009,-0.37922 2.69546,-3.87284 3.11075,-5.21336c0.56717,-1.83076 1.5073,-3.77563 1.0883,-5.64587c-0.24549,-1.09574 -4.4749,0.18942 -4.60766,0.21147c-3.52516,0.58551 -10.25412,1.77035 -11.13241,6.38908c-0.31529,1.65803 2.13925,2.61979 3.34353,3.80223c0,0 0.06087,0.06087 0.1469,0.17071z"/><path d="M439.21933,191.58004c0.01906,0.02859 0.03739,0.05703 0.05501,0.08532c0.94623,0.04885 1.89101,0.11828 2.85608,0.20841c0.56872,0.05311 -0.81517,-0.8482 -1.34489,-1.06189c-0.58733,-0.23693 -1.25305,-0.18497 -1.87958,-0.27746c0,0 -2.20631,-0.44126 -1.76505,-2.64757c0.44126,-2.20631 2.64757,-1.76505 2.64757,-1.76505c3.18344,0.73713 9.6003,3.8899 5.77553,8.66065c-1.60308,1.99957 -7.37585,1.29566 -9.71679,1.29566l0.20961,-4.26186l-0.20961,-0.23814c0.07392,0 0.14769,0.00012 0.22131,0.00035l0.03061,-0.62246c0,0 1.87211,-1.24808 3.12019,0.62404z"/><path d="M454.03073,338.72117c0.33958,0.09756 0.64783,0.258 0.90747,0.51595c1.68063,1.66969 0.45998,7.29614 -1.32958,8.45414c-3.27957,2.12217 -6.48734,-0.74293 -8.39264,-2.81344c-0.91037,-0.98931 -2.20335,-2.09222 -2.11579,-3.4338c0.31023,-4.75308 2.89382,-5.02573 6.24701,-4.86592c1.37968,0.06576 3.13798,-0.34079 4.09099,0.65901c0.38434,0.40321 0.53757,0.91957 0.59253,1.48405zM448.20869,341.62038c-0.05335,-0.17135 -0.08969,-0.36283 -0.10429,-0.57682c-0.303,0.09493 -0.51286,0.16355 -0.51017,0.16865c0.11567,0.21962 0.37644,0.30023 0.61446,0.40817z"/></g></g></svg>