<svg version="1.1" xmlns="http://www.w3.org/2000/svg" xmlns:xlink="http://www.w3.org/1999/xlink" width="10.22064" height="191" viewBox="0,0,10.22064,191"><g transform="translate(-430.09721,-171.07812)"><g data-paper-data="{&quot;isPaintingLayer&quot;:true}" fill="#000000" fill-rule="nonzero" stroke="none" stroke-width="0.5" stroke-linecap="butt" stroke-linejoin="miter" stroke-miterlimit="10" stroke-dasharray="" stroke-dashoffset="0" style="mix-blend-mode: normal"><path d="M432.34721,173.07812c0.08985,0 0.17611,0.00359 0.25893,0.01048c0.15373,-2.01048 2.24107,-2.01048 2.24107,-2.01048c1.36366,0.21967 3.23883,-0.42803 4.09099,0.65901c4.5256,5.77299 -3.24841,7.737 -6.59099,7.84099l-2.25,-4.25c0,0 0,-2.25 2.25,-2.25z"/><path d="M433.59529,356.456c0.56912,0.37941 0.84989,0.81649 0.96502,1.24112c0.65905,0.19803 1.5369,0.72558 1.5369,2.13099c0,2.25 -2.25,2.25 -2.25,2.25c-0.83333,0 -1.66667,0 -2.5,0l-0.87211,-4.99808c0,0 1.24808,-1.87211 3.12019,-0.62404z"/></g></g></svg>