<svg version="1.1" xmlns="http://www.w3.org/2000/svg" xmlns:xlink="http://www.w3.org/1999/xlink" width="638.68026" height="414.49955" viewBox="0,0,638.68026,414.49955"><g transform="translate(6.99411,4.8883)"><g data-paper-data="{&quot;isPaintingLayer&quot;:true}" fill-rule="nonzero" stroke="none" stroke-linecap="butt" stroke-linejoin="miter" stroke-miterlimit="10" stroke-dasharray="" stroke-dashoffset="0" style="mix-blend-mode: normal"><path d="M438.25482,314.23474c1.76775,1.76779 -0.00004,3.53554 -0.00004,3.53554l-2.72895,2.7024c-4.28769,2.38889 -2.78614,4.94774 -0.97569,9.07284c0.16414,0.37399 0.34645,0.74703 0.54284,1.11937c0.27762,-0.10635 0.57904,-0.16462 0.89407,-0.16462c0.40167,0 0.78121,0.09473 1.11751,0.26306l4.29584,2.03488c1.98849,0.82867 6.14719,2.62237 8.32826,3.3144c0.58529,0.18571 4.2765,1.32363 5.53135,0.99409c2.27999,-0.59877 1.64405,-1.4202 2.08573,-3.36103c1.20357,-5.28864 1.6758,-10.60931 0.25624,-15.98426c-0.04627,-0.17517 -0.1259,-0.33886 -0.2231,-0.49622l-1.44074,-0.24541c0.00441,0.02355 0.00862,0.04738 0.01264,0.07148c0.41101,2.46598 -2.05497,2.87699 -2.05497,2.87699c-5.63607,0.89491 -8.03057,0.06625 -12.70571,-3.22662l-0.16843,-0.42942l-0.11566,0.07711l-1.98073,-2.97118c-0.27679,-0.40238 -0.43882,-0.88985 -0.43882,-1.41517c0,-1.38071 1.11929,-2.5 2.5,-2.5c0.07984,0 0.15882,0.00374 0.23675,0.01106l4.9536,0.41282l-0.00115,0.01373c0.04633,0.00034 0.09268,0.00088 0.13903,0.00163c0.54586,0.0088 4.87323,0.94439 7.65076,1.55512l-0.10357,-0.17262c-0.2392,-0.3834 -0.37741,-0.8363 -0.37741,-1.32148c0,-1.38071 1.11929,-2.5 2.5,-2.5c0.92661,0 1.73548,0.50411 2.1673,1.25304l2.54892,4.24817h-0.00001l0.0385,0.06415c2.09763,2.29732 2.00348,5.79361 2.38369,8.55947c0.89078,6.48012 1.08232,17.53355 -6.41395,20.26409c-3.64551,1.32789 -8.61675,-0.58157 -12.8011,-2.46817c0.12129,0.20234 0.24618,0.4015 0.37686,0.59552l-0.03146,0.51643l0.17964,-0.03615l0.49402,2.45521c0.03884,0.1751 0.05934,0.3571 0.05934,0.54389c0,1.38071 -1.11929,2.5 -2.5,2.5c-0.46717,0 -0.9044,-0.12813 -1.27848,-0.35118l-3.4614,-1.97796l0.02292,-0.0401c-0.13112,-0.06791 -0.26068,-0.1393 -0.38851,-0.21454c-1.76144,-1.03674 -4.18883,-5.5288 -5.09764,-7.23545c-2.79781,-5.25396 -7.03186,-12.36068 -2.62977,-17.87633c0.68817,-0.86226 1.86364,-1.18113 2.79546,-1.7717l2.2705,-2.29694c0,0 1.76779,-1.76774 3.53553,0.00004z" fill="#000000" stroke-width="0.5"/><path d="M27.5401,366.49627c-2.5,0 -2.5,-2.5 -2.5,-2.5l0.00629,-3.17684c0.17047,-1.00826 0.50009,-2.00226 0.5114,-3.02477c0.02095,-1.89304 -2.37233,-1.99563 -3.30427,-3.06524c-1.46346,-1.67963 -3.35012,-3.39493 -3.64249,-5.60341c-0.15523,-1.17253 0.24446,-2.3225 0.81163,-3.42251c-0.37187,0.13468 -0.75365,0.23493 -1.14999,0.28467c-1.5809,0.1984 -3.14282,-0.60659 -4.63721,-1.15921c-0.77533,-0.28672 -1.2729,-1.2282 -2.09328,-1.32973c-1.7388,-0.21519 -2.47521,2.5067 -3.46495,3.95243c0,0 -1.45309,2.03434 -3.48743,0.58125c-2.03433,-1.4531 -0.58124,-3.48743 -0.58124,-3.48743c2.09007,-2.835 3.31061,-5.83369 7.53363,-6.04624c2.24776,-0.11313 4.04138,2.83968 6.26777,2.5104c1.06022,-0.15681 1.87664,-1.02804 2.80497,-1.57134l2.34827,-1.87859c0.43024,-0.35027 0.97923,-0.56026 1.57728,-0.56026c1.38071,0 2.5,1.11929 2.5,2.5c0,0.27016 -0.04285,0.53031 -0.12213,0.77402l-1.42004,4.73347l-0.01744,-0.00523c-0.0099,0.04975 -0.02007,0.09947 -0.03053,0.14914c-0.26998,1.28229 -1.93033,2.15136 -1.86589,3.46017c0.08897,1.80719 4.72964,3.96592 5.40241,4.81784c2.29668,2.90827 1.44727,4.48775 1.04696,7.745l0.00629,2.82241c0,0 0,2.5 -2.5,2.5z" fill="#000000" stroke-width="0.5"/><path d="M437.0179,55.66158c-0.22962,-0.29577 -0.40983,-0.68993 -0.49719,-1.21408c-0.411,-2.46599 2.05498,-2.87699 2.05498,-2.87699l2.74466,-0.44363c2.90014,-1.14532 5.4374,-3.2225 8.45828,-3.99509c0.04799,-0.01228 0.09603,-0.02427 0.14412,-0.03599l-0.00908,-0.02271l4.58974,-1.8359c0.30123,-0.12866 0.63286,-0.19987 0.98112,-0.19987c1.38071,0 2.5,1.11929 2.5,2.5c0,0.88016 -0.45483,1.65408 -1.14228,2.09955l-2.4957,1.66901c-3.70779,2.48954 -7.52159,4.65219 -11.38525,6.78822c0.14395,0.63144 0.03575,1.14235 -0.17741,1.545c3.03382,0.52351 6.42944,0.78279 6.19438,5.58864c-0.01988,0.40649 -5.70206,7.95172 -6.03091,8.35715c-0.65539,0.808 -1.39139,1.54756 -2.10996,2.29993c-0.15768,0.16509 -0.74464,0.44705 -0.51637,0.44992c9.53517,0.11998 19.51882,-0.88094 29.03997,0.72719c0.38614,0.06522 9.00666,2.08422 9.5032,2.82583c1.24665,1.86198 1.45806,4.4302 1.06855,6.63687c-0.21915,1.24155 -1.94796,1.63498 -2.7064,2.64207c-0.35913,0.47688 0.98546,-0.67413 1.47818,-1.01118c2.33814,-1.95561 4.71502,-3.86517 7.11253,-5.74753l3.61904,-2.84143c0,0 1.96635,-1.54385 3.5102,0.4225c1.54385,1.96635 -0.4225,3.51019 -0.4225,3.51019l-3.61904,2.84144c-2.84666,2.23501 -5.73452,4.4179 -8.64639,6.56727c-2.45925,-0.42281 -5.93378,0.76666 -7.37773,-1.26844c-1.68728,-2.37807 3.98503,-6.14149 2.21873,-8.46146c-0.37804,-0.49653 -1.25807,0.10412 -1.87219,-0.00686c-2.62844,-0.47498 -5.23211,-1.19531 -7.89872,-1.34867c-7.24525,-0.41669 -14.77824,-0.14365 -21.96947,-0.90824c-2.25727,-0.24 -5.04594,0.36537 -6.70655,-1.18229c-1.35904,-1.2666 -0.9781,-3.74985 -0.51637,-5.54932c0.38889,-1.51557 1.93884,-2.45651 2.88948,-3.69927c0.02672,-0.03494 0.05355,-0.06979 0.08047,-0.10456c-0.07772,-0.03185 -0.15688,-0.0678 -0.2375,-0.10811c-2.23606,-1.11804 -1.11802,-3.35411 -1.11802,-3.35411c0.41339,-0.82677 0.82678,-1.65355 1.24017,-2.48032c0.00347,-0.05107 0.00975,-0.12002 0.02113,-0.20229c-0.29768,-0.05497 -0.59133,-0.12655 -0.87861,-0.22364v0v0l-3.46313,-0.49473c-1.23096,-0.15585 -2.18283,-1.20681 -2.18283,-2.48007c0,-0.998 0.58479,-1.85943 1.43041,-2.26029l0.51736,-0.25868c-0.03427,-1.4038 1.33787,-2.16609 1.33787,-2.16609c0.41536,-0.2307 0.8304,-0.46021 1.24505,-0.68894zM443.99315,64.84236c0.11645,-0.14105 0.0977,-0.23085 -0.01017,-0.28643l-0.06067,0.37189c0.02366,-0.02844 0.04728,-0.05692 0.07084,-0.08546z" fill="#000000" stroke-width="0.5"/><path d="M10.71726,25.09955c-2.40718,0.67489 -3.08207,-1.73229 -3.08207,-1.73229l-0.61649,-2.19885c-1.26482,-4.5977 -2.84572,-11.70012 -0.8017,-16.39128c0.72708,-1.66868 1.95995,-3.50948 3.71123,-4.00565c1.66241,-0.47099 3.27238,1.12128 4.94541,1.55308c2.56299,0.6615 5.19936,1.78393 7.81754,1.39449c1.20553,-0.17931 2.15107,-1.23531 3.3464,-1.47331c1.39881,-0.27851 6.53135,-0.18236 7.91354,0.88558c3.66257,2.82987 4.62849,8.9095 7.44177,12.51498c2.12865,2.72807 6.15757,4.09074 7.33685,7.34386c0.09558,0.26367 0.16096,0.53161 0.20211,0.80297l0.07179,-0.01197l0.49218,2.95316c0.02743,0.14831 0.04176,0.3012 0.04176,0.45744c0,1.38071 -1.11929,2.5 -2.5,2.5c-0.59805,0 -1.14706,-0.21 -1.57729,-0.56028l-2.48412,-1.9873l0.06884,-0.08605c-0.28377,-0.42785 -0.51646,-0.93289 -0.9825,-1.08532c-0.38151,-0.12478 0.40241,0.72021 0.4437,1.11948c0.11735,1.13458 -0.05661,2.28416 0.026,3.4218c0.28768,3.96206 3.40704,8.90397 3.0059,12.6726c-0.20493,1.92533 -0.63758,4.90017 -2.54713,5.22038c-2.34099,0.39256 -4.06629,-2.45395 -6.0341,-3.78139c-0.82764,-0.55831 -1.63468,-1.11371 -2.43243,-1.65977c-0.13745,1.25076 -1.19755,2.22383 -2.48492,2.22383c-1.38071,0 -2.5,-1.11929 -2.5,-2.5c0,-0.93832 0.51693,-1.7559 1.28155,-2.1835c-2.49224,-1.56923 -5.06668,-2.94927 -8.07103,-3.94369c0,0 -2.37171,-0.79057 -1.58114,-3.16228c0.79057,-2.37171 3.16228,-1.58114 3.16228,-1.58114c4.20235,1.40959 7.95225,3.28731 11.62178,5.80914c1.20882,0.83074 2.5779,1.61177 3.67047,2.62498c-0.09607,-0.40866 -0.19393,-0.81655 -0.30949,-1.21742c-0.41501,-1.43971 -0.90386,-2.86161 -1.22107,-4.32598c-0.61686,-2.8477 -2.04569,-11.54223 1.79755,-13.24651c-2.24794,-2.28854 -3.64928,-4.14808 -5.38006,-7.27211c-1.24619,-2.24934 -1.50548,-5.17575 -3.38257,-6.93332c-1.76171,-1.64954 -6.44079,1.2548 -7.73757,1.41202c-1.47979,0.1794 -8.82831,-1.17262 -9.98725,-1.56655c-0.84993,-0.2889 -1.36528,-1.31426 -2.24656,-1.4851c-0.33859,-0.06564 -0.25511,0.65042 -0.28826,0.99372c-0.13424,1.39015 -0.16189,2.78877 -0.21178,4.1845c-0.10833,3.0309 0.34145,6.10654 1.17669,9.0221l0.61649,2.19886c0,0 0.67489,2.40718 -1.73229,3.08207z" fill="#000000" stroke-width="0.5"/><path d="M279.56314,-3.22748c1.42302,2.05548 -0.63246,3.47851 -0.63246,3.47851l-2.3882,1.65337c-6.41324,4.42842 -13.5608,7.67453 -20.35971,11.49762c-5.51397,2.75823 -11.54664,6.95628 -17.44555,8.68347c-3.89633,1.14083 -7.54968,1.04924 -10.36396,-2.6009c-1.45928,-1.8927 1.01764,-5.09912 -0.17957,-7.16759c-0.30274,-0.52304 -0.80608,0.93276 -1.33275,1.22914c-2.70758,1.52367 -5.65208,2.5874 -8.53645,3.74196c-5.90517,2.36373 -14.41662,5.79593 -20.88091,4.33783c-5.68995,-1.28344 -7.3565,-8.24986 -5.93463,-13.47001c-0.15165,-0.03894 -0.30995,-0.09275 -0.47504,-0.1635c-2.29786,-0.9848 -1.31305,-3.28266 -1.31305,-3.28266l1.47713,-3.44659c0.36945,-0.91919 1.26922,-1.56815 2.32055,-1.56815c1.29767,0 2.36442,0.9887 2.48804,2.25391l0.49659,4.46944l-0.02041,0.00227c0.01086,0.04512 0.02149,0.0903 0.03188,0.13556c0.55722,2.42736 -2.08106,9.69821 2.0777,10.2035c7.36254,0.89454 15.82951,-3.2235 22.3795,-6.08737c1.61736,-0.70716 8.08715,-3.98083 9.86216,-2.60134c1.86381,1.4485 1.58343,4.46336 2.05999,6.77526c0.13924,0.67548 -0.57489,1.45231 -0.23976,2.05509c0.32899,0.59173 1.17478,0.78188 1.84933,0.83992c2.54208,0.21871 4.78878,-1.47363 6.8633,-2.52062c4.14912,-2.09403 8.31418,-4.15724 12.47153,-6.23492c6.62146,-3.72589 13.62361,-6.86408 19.85805,-11.19226l2.3882,-1.65336c0,0 2.05548,-1.42302 3.4785,0.63246z" fill="#000000" stroke-width="0.5"/><path d="M-5.92854,234.68522c-2.02013,-1.47278 -0.54734,-3.49291 -0.54734,-3.49291l1.88723,-2.58859c0.9958,-1.36533 1.99161,-2.73067 2.98742,-4.096c2.95416,-3.60847 6.02561,-7.1767 9.47592,-10.33479c0.83155,-0.76112 1.9733,-1.19023 2.66836,-2.07775c0.17707,-0.2261 -0.5275,-0.23917 -0.80888,-0.29661c-1.05075,-0.2145 -2.14803,-0.20949 -3.1755,-0.51675c-3.34299,-0.99971 -7.67686,-2.10942 -8.81456,-6.20735c-0.5594,-2.01495 0.07881,-4.2034 0.48521,-6.25468c0.90415,-4.56365 3.49163,-9.59566 6.38016,-13.23375c0.84373,-1.06267 2.3568,-1.53881 3.0326,-2.71542c0.132,-0.22982 -0.50302,0.1839 -0.7667,0.21052c-0.71527,0.0722 -1.43997,0.01051 -2.15507,0.08442c-2.46418,0.25472 -4.90795,0.67952 -7.36613,0.98686c0,0 -2.4807,0.3101 -2.79079,-2.1706c-0.31009,-2.48069 2.1706,-2.79079 2.1706,-2.79079c2.54646,-0.31825 5.06986,-0.86551 7.63189,-1.01289c2.54893,-0.14663 7.05823,-0.31717 8.07681,3.29453c0.99487,3.52765 -2.32853,5.2525 -3.96649,7.28331c-2.68543,3.32953 -6.69797,10.35286 -5.95396,14.84552c0.29562,1.78509 5.01185,2.75762 5.40379,2.87091c2.69528,0.77908 8.03175,0.72095 7.61493,5.76792c-0.18374,2.22474 -2.58258,3.64835 -4.02128,5.3552c-2.92437,3.46941 -6.27776,6.43894 -9.16433,9.96925c-0.96791,1.32817 -1.93581,2.65634 -2.90372,3.9845l-1.88723,2.58859c0,0 -1.47278,2.02012 -3.49291,0.54734z" fill="#000000" stroke-width="0.5"/><path d="M246.44766,402.08333l-1.34982,0.44994c-3.74513,1.24838 -7.82833,1.98142 -11.44927,3.50652c-3.52509,1.48473 -6.20679,3.165 -10.16806,3.42561c-3.95373,0.26011 -9.83472,0.22458 -13.72577,-0.54082c-1.04707,-0.20597 -1.84789,-1.12759 -2.88038,-1.39727c-1.46518,-0.3827 -4.49569,-0.30525 -6.15676,-0.30218c-32.29205,0 -65.36369,-3.69822 -97.2352,-9.62555c-0.08952,0.27649 -0.24095,0.5672 -0.47365,0.86833c-1.52862,1.97821 -3.50683,0.44959 -3.50683,0.44959l-3.08571,-2.38442c-0.16757,-0.12948 -0.33552,-0.25851 -0.50379,-0.38719c-0.40576,-0.08036 -0.81129,-0.16107 -1.21659,-0.24212c0,0 -2.6623,-0.53246 -3.00321,-2.95657c-1.88895,-1.46156 -3.72689,-2.98213 -5.39215,-4.7028c-1.35652,-1.40166 -3.17186,-2.49066 -4.0312,-4.24175c-0.77853,-1.58642 -0.4499,-3.50589 -0.63346,-5.26349c-0.36437,-3.48895 -0.22003,-7.04914 0.28998,-10.5198c1.73123,-11.78114 6.72162,-22.76048 11.34868,-33.6477c7.56289,-17.7475 19.74477,-33.75785 31.65361,-48.77686c3.10157,-3.91159 6.07547,-7.91754 9.12161,-11.87081c0.89719,-1.16436 3.42172,-4.45905 4.74405,-5.14387c1.41805,-0.73438 3.08327,-0.83314 4.62491,-1.2497c0,0 1.70757,-0.42688 2.61534,0.86852c1.10464,-0.01243 1.84381,0.8662 2.0266,1.10867c0.27446,-0.05211 0.4638,-0.05211 0.4638,-0.05211l0.00001,-0.00001c4.28066,0.01601 9.48606,-1.61435 13.66563,-0.40921c3.17275,0.91483 5.41316,4.03334 8.11795,5.76485c0.5775,0.36969 1.00298,1.07726 1.67977,1.18741c0.78561,0.12786 1.53457,-0.46137 2.32708,-0.53529c3.08771,-0.28799 5.893,0.68179 8.95869,0.50357c1.20455,-0.07002 2.50867,-0.87214 3.60168,-0.36109c2.79159,1.30524 3.46708,4.51236 5.18514,6.76142c0.46385,-0.35522 1.12882,-0.57257 2.06456,-0.33863c1.27777,0.31944 1.71406,1.14377 1.84087,1.85233c0.0449,0.05872 0.08921,0.12071 0.13283,0.18614c1.38676,2.08012 -0.69336,3.46688 -0.69336,3.46688l-0.09056,0.05579c-2.94064,11.90481 -5.76088,24.85415 -4.31108,37.08022c0.75897,6.40032 3.30753,12.58447 5.46915,18.59356c1.09879,3.05453 1.87114,6.24541 3.28347,9.16823c2.05506,4.25294 5.17058,8.31491 7.6538,12.33862c8.45146,9.40299 17.66004,19.28001 28.87202,25.51553c2.97162,1.65266 6.13333,3.06165 9.25974,4.49476c0.8088,0.02485 1.79719,0.2779 2.54244,1.18188c0.51897,0.2462 1.03521,0.49513 1.54766,0.74807l0.98594,0.48666c0,0 2.24177,1.10655 1.13522,3.34832c-1.10655,2.24178 -3.34832,1.13523 -3.34832,1.13523l-0.66809,-0.32978c-0.64741,0.51852 -1.28897,0.73237 -1.28897,0.73237zM96.1667,388.54941c34.06632,6.81394 69.77394,11.17572 104.55089,11.17572c2.84436,0.00459 5.36079,-0.09572 8.24137,0.59771c0.91898,0.22122 1.5928,1.11324 2.51891,1.30238c1.1093,0.22654 2.26437,-0.14856 3.39528,-0.09458c2.69307,0.12855 5.3828,0.58617 8.07568,0.45364c3.04674,-0.14994 5.09817,-1.74563 7.8296,-2.87357c2.32297,-0.95927 4.78919,-1.63369 7.24957,-2.30993c-1.45464,-0.70018 -2.89007,-1.42698 -4.2837,-2.20683c-11.78241,-6.59321 -21.47553,-16.89162 -30.33716,-26.82749c-2.65977,-4.27297 -5.96373,-8.62891 -8.1529,-13.1594c-0.07513,-0.15548 -3.37354,-9.33758 -3.48634,-9.65116c-2.29632,-6.38355 -4.93178,-12.92999 -5.73313,-19.72848c-1.34679,-11.42593 0.77811,-23.40215 3.4307,-34.70397c-1.08962,0.59863 -2.14951,1.25969 -3.19723,1.91706c-0.79529,-0.85654 -1.34119,-2.04537 -2.38585,-2.56961c-0.38716,-0.19429 -0.55617,0.6916 -0.93388,0.90366c-1.53786,0.86342 -3.02905,1.80801 -4.52255,2.74607c-3.14776,1.97711 -4.92841,3.58551 -8.58414,1.63634c-1.25802,-0.67075 -2.27278,-1.81278 -3.02429,-3.02429c-0.75883,-1.2233 0.33023,-3.42645 -0.86317,-4.23148c-0.45288,-0.3055 -1.09201,0.0382 -1.63827,0.04402c-2.85874,0.03046 -7.51445,0.75439 -10.09235,-0.85582c-1.10862,-0.69247 -1.67888,-2.00507 -2.56285,-2.96795c-3.2304,-3.51877 -4.96429,-7.61693 -7.61667,-11.62902c-0.9486,0.15571 -1.92471,0.23115 -2.78701,0.63869c-1.5205,0.71862 -2.23064,2.52107 -3.25487,3.85496c-3.05101,3.97339 -6.04317,7.9889 -9.15643,11.91523c-11.61687,14.65078 -23.62458,30.29369 -30.96979,47.62604c-4.45969,10.49342 -9.31445,21.07426 -11.00411,32.42338c-0.45817,3.07747 -0.49311,6.2282 -0.2572,9.33063c0.09105,1.19745 -0.35674,2.52455 0.18132,3.59818c0.62021,1.23755 2.04048,1.8715 3.03987,2.82932c1.44563,1.38548 2.96207,2.66494 4.51369,3.90333c0.96547,-0.23307 1.817,-0.06276 1.817,-0.06276zM185.85926,281.7131c-0.21063,-0.47966 -0.2038,-1.22837 -0.69541,-1.40937c-0.48069,-0.17698 -0.88986,0.57149 -1.39766,0.63875c-3.10795,0.41167 -5.94745,-0.72572 -9.03897,-0.49627c-1.23043,0.09132 -2.46065,0.69807 -3.67216,0.46456c-0.36651,-0.07064 -5.55946,-3.07837 -6.07153,-3.48523c-0.54393,-0.43218 -2.83958,-3.24501 -4.12817,-3.56069c-2.91992,-0.71533 -6.60128,0.07045 -9.88193,0.43026c1.32415,2.26952 2.65496,4.4835 4.41312,6.49173c0.5463,0.62401 0.77502,1.5313 1.43665,2.03139c1.11732,0.84452 2.79898,0.1363 4.19957,0.13551c2.01203,-0.00113 6.36262,-0.26321 8.06672,1.05245c2.63805,2.03672 0.70538,5.20373 3.11163,6.74239c1.29771,0.82981 2.45907,-0.67731 3.41428,-1.36325c2.15736,-1.54922 6.531,-5.05625 9.54165,-4.34925c0.9465,0.22227 1.07576,1.61982 1.61364,2.42973c0.44555,-0.63886 1.00901,-1.19382 1.64258,-1.67205c-1.03563,-1.23205 -1.9104,-2.61499 -2.55402,-4.08065z" fill="#000000" stroke-width="0.5"/><path d="M96.12719,388.58009c0,0 -0.85191,-0.17081 -1.81738,0.06226c-1.55162,-1.23839 -3.07,-2.52061 -4.51563,-3.90609c-0.99939,-0.95782 -2.42088,-1.59372 -3.04109,-2.83127c-0.53806,-1.07363 -0.09118,-2.40234 -0.18223,-3.59979c-0.23591,-3.10243 -0.20311,-6.25762 0.25506,-9.33509c1.68966,-11.34912 6.54051,-21.9499 11.0002,-32.44332c7.34521,-17.33235 19.3745,-33.01584 30.99137,-47.66662c3.11326,-3.92633 6.11518,-7.94709 9.16619,-11.92048c1.02423,-1.33389 1.73748,-3.13747 3.25798,-3.85609c0.8623,-0.40754 1.84044,-0.4836 2.78904,-0.63931c2.65238,4.01209 4.39003,8.10935 7.62043,11.62812c0.88397,0.96288 1.4561,2.27514 2.56472,2.96761c2.5779,1.61021 7.2436,0.8857 10.10234,0.85524c0.54626,-0.00582 1.18704,-0.34942 1.63992,-0.04392c1.1934,0.80503 0.10563,3.00829 0.86446,4.23159c0.75151,1.21151 1.77011,2.35408 3.02813,3.02483c3.65573,1.94917 5.44485,0.34308 8.59261,-1.63403c1.4935,-0.93806 2.98769,-1.88143 4.52555,-2.74485c0.37771,-0.21206 0.54714,-1.09776 0.9343,-0.90347c1.04466,0.52424 1.59341,1.71448 2.3887,2.57102c1.04772,-0.65737 2.10915,-1.31757 3.19877,-1.9162c-2.65259,11.30182 -4.75803,23.29869 -3.41124,34.72462c0.80135,6.79849 3.44057,13.38012 5.73689,19.76367c0.1128,0.31358 3.40708,9.50632 3.48221,9.6618c2.18917,4.53049 5.48904,8.89294 8.14881,13.16591c8.86163,9.93587 18.47558,20.17322 30.25799,26.76643c1.39363,0.77985 2.90738,1.56883 4.36202,2.26901c-2.46038,0.67624 -4.9288,1.35327 -7.25177,2.31254c-2.73143,1.12794 -4.78577,2.7266 -7.83251,2.87654c-2.69288,0.13253 -5.38514,-0.32287 -8.07821,-0.45142c-1.13091,-0.05398 -2.28728,0.32215 -3.39658,0.09561c-0.92611,-0.18914 -1.60055,-1.0807 -2.51953,-1.30192c-2.88058,-0.69343 -5.40055,-0.59072 -8.24491,-0.59531c-34.77695,0 -70.55028,-4.3737 -104.6166,-11.18764z" data-paper-data="{&quot;noHover&quot;:false,&quot;origItem&quot;:[&quot;Path&quot;,{&quot;applyMatrix&quot;:true,&quot;segments&quot;:[[[96.1667,388.54941],[0,0],[34.06632,6.81394]],[[200.71759,399.72513],[-34.77695,0],[2.84436,0.00459]],[[208.95896,400.32284],[-2.88058,-0.69343],[0.91898,0.22122]],[[211.47787,401.62522],[-0.92611,-0.18914],[1.1093,0.22654]],[[214.87315,401.53064],[-1.13091,-0.05398],[2.69307,0.12855]],[[222.94883,401.98428],[-2.69288,0.13253],[3.04674,-0.14994]],[[230.77843,399.11071],[-2.73143,1.12794],[2.32297,-0.95927]],[[238.028,396.80078],[-2.46038,0.67624],[-1.45464,-0.70018]],[[233.7443,394.59395],[1.39363,0.77985],[-11.78241,-6.59321]],[[203.40714,367.76646],[8.86163,9.93587],[-2.65977,-4.27297]],[[195.25424,354.60706],[2.18917,4.53049],[-0.07513,-0.15548]],[[191.7679,344.9559],[0.1128,0.31358],[-2.29632,-6.38355]],[[186.03477,325.22742],[0.80135,6.79849],[-1.34679,-11.42593]],[[189.46547,290.52345],[-2.65259,11.30182],[-1.08962,0.59863]],[[186.26824,292.44051],[1.04772,-0.65737],[-0.79529,-0.85654]],[[183.88239,289.8709],[1.04466,0.52424],[-0.38716,-0.19429]],[[182.94851,290.77456],[0.37771,-0.21206],[-1.53786,0.86342]],[[178.42596,293.52063],[1.4935,-0.93806],[-3.14776,1.97711]],[[169.84182,295.15697],[3.65573,1.94917],[-1.25802,-0.67075]],[[166.81753,292.13268],[0.75151,1.21151],[-0.75883,-1.2233]],[[165.95436,287.9012],[1.1934,0.80503],[-0.45288,-0.3055]],[[164.31609,287.94522],[0.54626,-0.00582],[-2.85874,0.03046]],[[154.22374,287.0894],[2.5779,1.61021],[-1.10862,-0.69247]],[[151.66089,284.12145],[0.88397,0.96288],[-3.2304,-3.51877]],[[144.04422,272.49243],[2.65238,4.01209],[-0.9486,0.15571]],[[141.25721,273.13112],[0.8623,-0.40754],[-1.5205,0.71862]],[[138.00234,276.98608],[1.02423,-1.33389],[-3.05101,3.97339]],[[128.84591,288.90131],[3.11326,-3.92633],[-11.61687,14.65078]],[[97.87612,336.52735],[7.34521,-17.33235],[-4.45969,10.49342]],[[86.87201,368.95073],[1.68966,-11.34912],[-0.45817,3.07747]],[[86.61481,378.28136],[-0.23591,-3.10243],[0.09105,1.19745]],[[86.79613,381.87954],[-0.53806,-1.07363],[0.62021,1.23755]],[[89.836,384.70886],[-0.99939,-0.95782],[1.44563,1.38548]],[[94.34969,388.61219],[-1.55162,-1.23839],[0.96547,-0.23307]],[96.16669,388.54943]],&quot;closed&quot;:true,&quot;fillColor&quot;:[0,0,0,1]}]}" fill="#00bfd9" stroke-width="0.5"/><path d="M185.90922,281.71134c0.64362,1.46566 1.51756,2.85958 2.55319,4.09163c-0.63357,0.47823 -1.29402,1.00945 -1.73957,1.64831c-0.53788,-0.80991 -0.57007,-2.18417 -1.51657,-2.40644c-3.01065,-0.707 -7.4015,2.82967 -9.55886,4.37889c-0.95521,0.68594 -2.13439,2.2026 -3.4321,1.37279c-2.40625,-1.53866 -0.50432,-4.70642 -3.14237,-6.74314c-1.7041,-1.31566 -6.08801,-1.09691 -8.10004,-1.09578c-1.40059,0.00079 -3.08236,0.70723 -4.19968,-0.13729c-0.66163,-0.50009 -0.89012,-1.41466 -1.43642,-2.03867c-1.75816,-2.00823 -3.08523,-4.23663 -4.40938,-6.50615c3.28065,-0.35981 6.97179,-1.16045 9.89171,-0.44512c1.28859,0.31568 3.58564,3.1271 4.12957,3.55928c0.51207,0.40686 5.77505,3.415 6.14156,3.48564c1.21151,0.23351 2.45348,-0.35489 3.68391,-0.44621c3.09152,-0.22945 5.93382,0.92034 9.04177,0.50867c0.5078,-0.06726 0.91679,-0.81733 1.39748,-0.64035c0.49161,0.181 0.48515,0.93429 0.69578,1.41395z" data-paper-data="{&quot;noHover&quot;:false,&quot;origItem&quot;:[&quot;Path&quot;,{&quot;applyMatrix&quot;:true,&quot;segments&quot;:[[[185.85926,281.7131],[0,0],[-0.21063,-0.47966]],[[185.16385,280.30373],[0.49161,0.181],[-0.48069,-0.17698]],[[183.76619,280.94248],[0.5078,-0.06726],[-3.10795,0.41167]],[[174.72722,280.44621],[3.09152,-0.22945],[-1.23043,0.09132]],[[171.05506,280.91077],[1.21151,0.23351],[-0.36651,-0.07064]],[[164.98353,277.42554],[0.51207,0.40686],[-0.54393,-0.43218]],[[160.85536,273.86485],[1.28859,0.31568],[-2.91992,-0.71533]],[[150.97343,274.29511],[3.28065,-0.35981],[1.32415,2.26952]],[[155.38655,280.78684],[-1.75816,-2.00823],[0.5463,0.62401]],[[156.8232,282.81823],[-0.66163,-0.50009],[1.11732,0.84452]],[[161.02277,282.95374],[-1.40059,0.00079],[2.01203,-0.00113]],[[169.08949,284.00619],[-1.7041,-1.31566],[2.63805,2.03672]],[[172.20112,290.74858],[-2.40625,-1.53866],[1.29771,0.82981]],[[175.6154,289.38533],[-0.95521,0.68594],[2.15736,-1.54922]],[[185.15705,285.03608],[-3.01065,-0.707],[0.9465,0.22227]],[[186.77069,287.46581],[-0.53788,-0.80991],[0.44555,-0.63886]],[[188.41327,285.79376],[-0.63357,0.47823],[-1.03563,-1.23205]],[[185.85925,281.71311],[0.64362,1.46566],[0,0]]],&quot;closed&quot;:true,&quot;fillColor&quot;:[0,0,0],&quot;strokeWidth&quot;:0.5}]}" fill="#d92a00" stroke-width="0.25"/><path d="M17.87166,357.26205c-2.9026,0.07786 -6.33222,0.35088 -8.90462,-0.87407c0.01703,0.17162 0.02597,0.35175 0.02597,0.54082c0,4 -4,4 -4,4c-2.5636,0 -8.33298,0.277 -9.40591,-2.16967c-1.03583,-2.36207 1.45282,-4.97134 2.55144,-7.30487c1.52548,-3.24021 3.83394,-4.50138 6.37144,-6.89521c2.76604,-2.60944 5.45787,-5.30003 8.30077,-7.82552l0.1597,-0.06412l-0.02879,-0.03838l3.56721,-2.67541c0.67398,-0.51698 1.51727,-0.82424 2.43232,-0.82424c2.20914,0 4,1.79086 4,4v3.59953h-0.06103c0.09301,1.29298 -0.24839,2.63259 -1.34445,4.64623c-0.57364,1.05386 -1.5018,1.86735 -2.26534,2.79685c0.79199,-0.28195 1.59084,-0.54939 2.36953,-0.85945l0.09366,-0.00628l-0.00781,-0.02342l5.31072,-1.77024c0.42272,-0.15198 0.87843,-0.23479 1.35349,-0.23479c2.20914,0 4,1.79086 4,4c0,0.67183 -0.16563,1.30497 -0.45828,1.86083l-0.54392,1.08785c0.89691,2.62721 -1.60383,4.37773 -1.60383,4.37773l-4.45927,3.12149c-0.65687,0.47273 -1.46291,0.75117 -2.33399,0.75117c-1.99491,0 -3.64873,-1.46037 -3.95073,-3.37036c-0.38229,0.08788 -0.77097,0.14289 -1.16828,0.15355zM6.98559,352.91445c-0.11387,0.11957 -0.22704,0.23943 -0.33949,0.35957c0.07396,0.02928 0.14857,0.06105 0.22341,0.09551c0.02959,-0.14904 0.06886,-0.30095 0.11608,-0.45507z" fill="#ff0000" stroke-width="0.5"/><path d="M10.99278,206.64224c0.42762,1.13679 0.7413,3.16907 -1.53126,4.68411c-3.3282,2.2188 -5.547,-1.1094 -5.547,-1.1094l-1.14939,-5.35748c3.14196,-6.06826 7.48485,-8.23978 13.48734,-11.23763c0.13971,-0.06977 0.8719,-0.59528 1.791,-1.16643c-6.06611,-1.29046 -12.60638,-3.56842 -7.44509,-11.46255c0.92617,-1.41657 3.01163,-1.54531 4.51744,-2.31797c0,0 3.67658,-1.57568 5.25226,2.1009c0.75978,1.77283 0.29835,3.05717 -0.38322,3.91192c0.05825,0.01357 0.11665,0.02614 0.17523,0.03755c2.77078,0.53946 8.26753,0.54215 9.56358,3.49777c1.02458,2.33655 -0.55764,5.21639 -1.81719,7.43511c-0.86609,1.52564 -2.72063,2.22926 -4.20238,3.16846c-4.3861,2.78011 -9.68895,3.73476 -12.7113,7.81564z" fill="#ff0000" stroke-width="0.5"/><path d="M437.8368,305.235c2.77801,0 3.62669,1.92934 3.88595,3.10815c1.83775,2.89128 4.37504,6.86029 6.13954,10.31161c2.32417,-0.54994 4.72176,-0.85735 6.86463,-1.21691c0,0 3.94558,-0.6576 4.60317,3.28798c0.6576,3.94558 -3.28798,4.60317 -3.28798,4.60317c-1.29073,0.21348 -2.76768,0.37666 -4.24665,0.62872c0.24999,0.52227 0.38999,1.10723 0.38999,1.72489c0,2.20914 -1.79086,4 -4,4c-0.77629,0 -1.50093,-0.22114 -2.11436,-0.60385l-1.88836,-1.13302c-0.72516,1.00804 -1.44528,1.99889 -2.58267,2.13946c-1.97562,0.24416 -3.57477,-1.75262 -5.36216,-2.62894l-1.52887,-2.2345c0,0 -0.89519,-1.79038 -0.15251,-3.47134c-1.93322,-1.32268 -3.85404,-2.6759 -5.7938,-4.06141c0,0 -3.25493,-2.32495 -0.92998,-5.57989c2.32495,-3.25493 5.57989,-0.92998 5.57989,-0.92998c0.97277,0.69485 1.94014,1.38149 2.90658,2.06004c-0.7295,-1.43096 -1.37707,-2.65699 -1.85705,-3.40673l-0.62535,-2.59744c0,0 0,-4 4,-4z" fill="#ff0000" stroke-width="0.5"/><path d="M485.20944,82.68562c2.82843,2.82843 0,5.65685 0,5.65685l-1.22039,1.05149c-3.13079,1.87396 -8.18201,5.15262 -11.62217,5.44171c-3.06685,0.25772 -6.9808,0.94537 -9.14957,-1.2383c-0.86269,-0.86861 -1.30429,-1.87968 -1.45113,-2.95896c-4.78821,3.55545 -9.59148,7.09006 -14.55776,10.38262c-2.6412,1.75107 -4.91745,4.61544 -8.05696,5.04627c-2.82225,0.38729 -7.3848,-0.06732 -8.06242,-2.83425c-0.91671,-3.74322 3.01545,-7.1017 4.79152,-10.52188c1.94414,-3.74383 4.81141,-6.93069 7.22701,-10.38914c0.61317,-0.87788 3.52071,-5.00959 5.59704,-7.9576c-2.30949,-0.62521 -4.25871,-2.46777 -5.37298,-6.24292c-0.55123,-1.86756 0.93435,-3.80408 1.74234,-5.57574c2.32613,-5.10048 5.84727,-7.94396 10.34148,-10.95596c0,0 3.3282,-2.2188 5.547,1.1094c2.2188,3.3282 -1.1094,5.547 -1.1094,5.547c-1.725,1.14287 -4.14574,2.59978 -5.44883,4.18636c-0.92155,1.12204 -1.36945,2.56941 -2.20736,3.75522c-0.23082,0.32665 -0.6624,0.45325 -0.95731,0.72344c-0.26281,0.24078 0.5804,-0.42192 0.90437,-0.57053c0.87559,-0.40166 1.86679,-0.53835 2.70967,-1.00476c1.02338,-0.56629 1.89143,-1.37638 2.83715,-2.06457l0.17953,-0.01102l-0.0443,-0.07383l2.19333,-1.316c0.61343,-0.38272 1.33807,-0.60385 2.11436,-0.60385c2.20914,0 4,1.79086 4,4c0,1.10457 -0.44772,2.10457 -1.17157,2.82843l-2.65262,2.65262c-1.32326,2.18052 -3.62148,3.60661 -5.22815,5.5877c-3.92567,4.84051 -7.41691,10.44521 -10.9602,15.64717c1.01346,-0.71503 2.02776,-1.42887 3.04004,-2.14555c6.55924,-4.64381 12.93436,-9.52456 19.49674,-14.16537l-0.02418,-0.03023l4.47453,-3.57963c0.68838,-0.56044 1.56679,-0.89643 2.52366,-0.89643c2.20914,0 4,1.79086 4,4c0,1.26044 -0.58299,2.38472 -1.49403,3.11789l-4.02866,3.29399c-0.12537,1.0771 -1.21697,1.86868 -1.78098,2.81914c-0.40702,0.6859 -0.7396,1.42325 -1.13573,2.11611c1.2924,-0.59544 2.85679,-0.90602 4.12458,-1.48605c2.24543,-1.02731 2.50336,-1.25753 4.55602,-2.49246l-0.3205,0.1516c0,0 2.82843,-2.82843 5.65685,0z" fill="#ff0000" stroke-width="0.5"/><path d="M281.99054,11.23118c-0.39652,-1.12639 -0.72552,-3.27715 1.70803,-4.73728c3.42997,-2.05798 5.48795,1.37199 5.48795,1.37199l1.77968,5.35732c-2.36386,1.75416 -4.62464,3.6565 -7.09157,5.26247c-3.08025,2.00524 -6.77804,2.84729 -10.20365,4.17926c-6.44061,2.50428 -12.77718,4.31129 -19.57038,5.58805c-9.79425,1.84079 -20.52291,3.38107 -25.13887,-7.81458c-1.39348,-3.37978 -1.42484,-7.39105 -1.13154,-11.28613c-2.58516,-0.01909 -5.16439,0.00436 -7.72632,0.24221c-1.53159,0.1422 -2.99014,1.0109 -4.52473,0.90597c-0.41336,-0.02826 -0.78969,-0.19845 -1.15502,-0.41291c-1.72125,0.58528 -3.50462,0.98815 -5.22618,1.57585c-4.58252,1.56436 -11.5827,4.9323 -16.64379,4.25972c-2.9971,-0.3983 -7.29066,-0.87749 -8.26329,-3.74023c-2.36126,-6.94989 9.56843,-9.00018 12.26564,-9.61382c5.85744,-1.33264 11.66223,-2.0016 17.67847,-1.28755c0.0537,0.00637 0.1061,0.01679 0.15736,0.03072c1.70618,-0.70749 3.402,-1.41659 5.08676,-2.10122c1.51824,-0.61696 3.1248,-1.00574 4.62944,-1.65518c1.50061,-0.6477 2.74592,-2.4307 4.36775,-2.22821c2.4958,0.31162 4.4204,2.40096 6.6306,3.60144c0.14851,0.81296 0.29484,1.62935 0.43044,2.44827c1.02343,-0.03464 2.04488,-0.09296 3.06317,-0.18641c0,0 3.98357,-0.36214 4.34572,3.62143c0.36214,3.98357 -3.62143,4.34572 -3.62143,4.34572c-1.03072,0.09287 -2.0632,0.15182 -3.0967,0.18784c-0.00446,0.16476 -0.01045,0.32951 -0.01802,0.49424c-0.14998,3.26091 -1.03559,4.86803 0.15511,7.76684c2.80992,6.84091 10.74879,4.02408 16.25575,2.98402c6.33215,-1.19591 12.21991,-2.87311 18.22471,-5.21055c4.17916,-1.62679 7.12264,-3.45562 11.14492,-3.94929z" fill="#ff0000" stroke-width="0.5"/><path d="M32.88939,35.971c-4,0 -4,-4 -4,-4v-0.44994c0.01195,-0.80173 0.2562,-3.31996 -0.34737,-4.27067c-0.47308,-0.74518 -1.14932,-1.50971 -1.94229,-2.26546c-1.19669,-0.20184 -2.39635,-0.39004 -3.58856,-0.61251c-1.2482,-0.23292 -13.16858,-2.45931 -13.33234,-2.52254c-6.11884,-2.36272 -8.47745,-4.76282 -3.34479,-11.27001c2.3442,-2.97197 7.7793,-1.89085 10.69472,-1.00179c0.25598,-0.51213 0.67203,-1.02427 1.31219,-1.50439c3.2,-2.4 5.6,0.8 5.6,0.8c2.9715,4.00063 6.11001,6.97718 9.75146,9.42452c2.43693,0.55624 4.95766,1.01137 7.04652,2.34024c0.08763,0.05574 0.17472,0.11218 0.26131,0.16928l0.02081,-0.04162l7.07791,3.53895c1.35298,0.64138 2.28865,2.01965 2.28865,3.61646c0,2.20914 -1.79086,4 -4,4c-0.29717,0 -0.58677,-0.03241 -0.86546,-0.09388l-4.41842,-0.88368l0.03362,-0.1681l-0.4163,0.07171c-1.27832,-0.5306 -2.55786,-1.0735 -3.82752,-1.6414c0.00266,0.71419 -0.01297,1.47188 -0.00417,2.31488v0.44994c0,0 0,4 -4,4z" fill="#ff0000" stroke-width="0.5"/><path d="M100.38062,332.46768c1.49257,0 2.4282,0.55694 3.0147,1.25519c0.10225,-0.12352 0.20362,-0.24776 0.30397,-0.37281l1.36647,-0.62094c0.45743,-1.70544 2.01396,-2.96108 3.86375,-2.96108c2.20914,0 4,1.79086 4,4c0,0.18962 -0.01319,0.37615 -0.03871,0.55873l-0.02719,0.21755c0.45373,-0.17871 0.94801,-0.27686 1.4652,-0.27686c2.20914,0 4,1.79086 4,4c0,0.25 -0.02293,0.49464 -0.06681,0.73193l-0.43755,2.62532l-0.06448,-0.01075c0.00632,0.08594 0.01138,0.17209 0.01511,0.25845c0.07611,1.763 -0.91045,3.41555 -1.52775,5.0687c-0.3871,1.03666 -2.2555,4.36516 -2.75138,5.52359c-1.51469,3.53846 -2.47148,6.94351 -5.82713,9.2951c-1.98977,1.3944 -5.50908,3.31666 -8.43425,4.41386c-0.67745,0.52684 -1.52883,0.84058 -2.45348,0.84058c-0.1327,0 -0.26389,-0.00646 -0.39328,-0.01909c-1.72444,0.38769 -3.57721,0.94816 -5.19307,0.31852c-2.10671,-0.8209 -4.46681,-2.3745 -5.01395,-4.5683c-1.25003,-5.01211 4.80291,-12.37676 6.9583,-16.68551l1.27893,-2.98417c0.37196,-0.92543 1.07988,-1.67967 1.97279,-2.11174c-0.00249,-0.90881 -0.01019,-1.81002 -0.01019,-2.69649v-1.79977c0,0 0,-4 4,-4z" fill="#ff0000" stroke-width="0.5"/><path d="M430.45179,136.63352c-0.39451,1.53646 -1.76726,2.45162 -1.76726,2.45162c-0.56403,0.18641 -1.34215,0.07921 -1.6921,0.55923c-0.23742,0.32566 0.42722,0.71219 0.4733,1.11257c0.11433,0.99344 0,2 0,3c0,3.59822 0.40031,7.17765 -0.71865,10.55306c0.07347,-0.18677 0.21512,-0.48484 0.35938,-0.50141c1.77483,-0.2039 3.57291,-0.07417 5.35927,-0.05165c1.38745,0.01749 2.83132,-0.23114 4.15914,0.17163c1.1501,0.34887 1.83891,1.68967 3,2c1.23811,0.33091 2.55954,-0.14676 3.84086,-0.17163c12.65654,-0.24571 25.34129,0 38,0c14.66667,0 29.33333,0 44,0c4.33333,0 8.66667,0 13,0c2.41464,0 4.89236,0.62202 7.24357,0.07217c1.7479,-0.40876 3.23894,-1.65231 5,-2c1.77468,-0.35038 3.62528,0.10832 5.42651,-0.05855c2.01894,-0.18703 3.98048,-0.81932 6,-1c4.46418,-0.39939 9.26847,0.69728 13.68919,0.03802c2.5428,-0.3792 5.06997,-1.02304 7.64073,-1.05165c4.77329,0 10.65542,0.88402 15.35927,0.05165c2.20688,-0.39052 4.39962,-1.0365 6.64073,-1.05165c3.29045,-0.02224 8.84856,1.04047 11.89708,-0.4026c1.20051,-0.56828 1.90398,-5.64967 2.30819,-6.86231c1.5335,-4.6005 2.94714,-9.35672 3.8142,-14.12924c0.12718,-0.70001 0.89794,-2.57682 -0.5502,-2.91033c-1.45512,-0.33512 -2.97606,0.30448 -4.46927,0.30448c-2.59141,0 -5.81187,-0.50242 -8.35927,-0.05165c-3.68031,0.65125 -7.39337,1.61369 -11.152,2.02168c-4.67139,0.50706 -9.49065,-0.45982 -14.15881,0.01634c-5.33559,0.54424 -10.61893,1.51845 -15.93577,1.99416c-3.98408,0.35647 -8.01699,-0.36824 -12,0c-3.79703,0.35104 -7.58093,1.01348 -11.39415,1.01947c-3.48175,0.00547 -7.01346,-0.62675 -10.4452,-0.03866c-2.39184,0.40988 -4.60029,1.63908 -7,2c-0.32243,0.04849 -10.39509,0.03866 -11.5548,0.03866c-18,0 -36,0 -54,0c-5.24841,0 -11.19454,-0.82186 -16.35927,-0.05165c-1.04256,0.15548 -1.95888,0.83512 -3,1c-3.3074,0.52377 -5.33992,-0.23346 -8.52238,0.89213zM425.48555,131.8818c0.41639,-2.35702 3.01003,-3.00543 3.01003,-3.00543l3.85179,-0.95991c3.42075,-1.08975 6.12615,-0.51481 9.47762,-1.10787c1.03797,-0.18367 1.95575,-0.85627 3,-1c6.61767,-0.91084 13.94456,-0.05165 20.64073,-0.05165c17,0 34,0 51,0c3.48176,0 7.00589,0.58069 10.4452,0.03866c2.39712,-0.37778 4.60467,-1.61104 7,-2c0.32343,-0.05252 11.51385,-0.03873 11.5548,-0.03866c3.55035,0.00596 7.06962,-0.66414 10.60585,-0.98053c3.98408,-0.35647 8.01699,0.36824 12,0c5.36054,-0.49559 10.68239,-1.47774 16.06423,-2.00584c4.56444,-0.44789 9.29249,0.53476 13.84119,0.01634c3.66587,-0.4178 7.25424,-1.4092 10.848,-1.97832c3.01488,-0.47745 6.57959,-0.05165 9.64073,-0.05165c5.52437,0 9.57586,-0.87885 12.69552,5.46927c0.87206,1.77454 0.42657,3.95271 0.28502,5.92488c-0.4536,6.31991 -3.33159,12.70164 -5.14005,18.7242c-1.27731,4.25371 -0.67388,5.70428 -4.73756,8.28425c-3.65223,2.31875 -8.05541,1.5974 -12.10292,1.5974c-2.11983,0 -4.27187,-0.42103 -6.35927,-0.05165c-1.03797,0.18367 -1.95888,0.83512 -3,1c-5.24508,0.83063 -11.34135,0.05165 -16.64073,0.05165c-2.14295,-0.03295 -4.23609,0.65612 -6.35927,0.94835c-4.69425,0.6461 -9.60059,-0.3974 -14.31081,0.03802c-2.01898,0.18664 -3.9804,0.82018 -6,1c-1.51861,0.13522 -3.07929,-0.36156 -4.57349,-0.05855c-1.75924,0.35677 -3.24411,1.62707 -5,2c-0.43507,0.0924 -7.92551,0.07217 -8.75643,0.07217c-4.33333,0 -8.66667,0 -13,0c-14.66667,0 -29.33333,0 -44,0c-9.33333,0 -18.66667,0 -28,0c-4.88867,0 -11.42585,0.95063 -16.15914,-0.17163c-1.16943,-0.27727 -1.87567,-1.57535 -3,-2c-2.6451,-0.99904 -5.71861,0.72045 -8.48159,0.11998c-2.01366,-0.43762 -4.41053,-0.9298 -5.60424,-2.60951c-1.23264,-1.7345 -0.58355,-4.21788 -0.75503,-6.33884c-0.31142,-3.85193 -0.23153,-8.14167 0,-12c0.09804,-1.63383 -0.34162,-3.46796 0.4733,-4.88743c0.915,-1.5938 2.87193,-2.29385 4.3079,-3.44077c0,0 0.49866,-0.33244 1.23863,-0.54694z" fill="#000000" stroke-width="0.5"/><path d="M434.53417,135.59434c3.18246,-1.12559 5.21504,-0.36922 8.52244,-0.89299c1.04112,-0.16488 1.9575,-0.8453 3.00007,-1.00077c5.16473,-0.77021 11.11099,0.05048 16.3594,0.05048c18,0 36.01147,-0.02639 54.01147,-0.02639c1.15971,0 11.28777,-0.00483 11.6102,-0.05332c2.39971,-0.36092 4.62678,-1.57805 7.01861,-1.98793c3.43173,-0.58809 6.9729,0.05782 10.45466,0.05235c3.81322,-0.00599 7.5993,-0.66296 11.39633,-1.014c3.98301,-0.36824 8.01707,0.36052 12.00116,0.00405c5.31684,-0.47571 10.60051,-1.44849 15.93609,-1.99273c4.66816,-0.47616 9.48778,0.49262 14.15917,-0.01444c3.75862,-0.40799 7.47167,-1.37051 11.15198,-2.02176c2.5474,-0.45077 5.76798,0.05241 8.3594,0.05241c1.49321,0 3.01418,-0.63941 4.4693,-0.30429c1.44814,0.33351 0.67758,2.21181 0.5504,2.91181c-0.86706,4.77252 -2.28036,9.53594 -3.81385,14.13644c-0.40421,1.21263 -1.10791,6.29776 -2.30842,6.86604c-3.04852,1.44308 -8.60673,0.38133 -11.89718,0.40357c-2.24111,0.01515 -4.43401,0.66235 -6.64089,1.05287c-4.70385,0.83237 -10.58627,-0.04986 -15.35956,-0.04986c-2.57076,0.02861 -5.09839,0.67471 -7.64119,1.05392c-4.42073,0.65926 -9.22604,-0.43363 -13.69022,-0.03424c-2.01952,0.18068 -3.98246,0.81685 -6.0014,1.00389c-1.80123,0.16686 -3.65335,-0.28846 -5.42803,0.06192c-1.76106,0.34769 -3.25623,1.59811 -5.00413,2.00687c-2.35121,0.54985 -4.83601,-0.06423 -7.25065,-0.06423c-4.33333,0 -8.69959,0.01295 -13.03293,0.01295c-14.66667,0 -29.38144,-0.03424 -44.04811,-0.03424c-12.65871,0 -25.34524,-0.25271 -38.00178,-0.007c-1.28132,0.02487 -2.60281,0.50226 -3.84091,0.17135c-1.16109,-0.31033 -1.85011,-1.6525 -3.00022,-2.00137c-1.32781,-0.40278 -2.77174,-0.15455 -4.15919,-0.17203c-1.78636,-0.02252 -3.58448,-0.15258 -5.35932,0.05132c-0.14426,0.01657 -0.28588,0.31487 -0.35935,0.50164c1.11896,-3.37542 0.71823,-6.96013 0.71823,-10.55835c0,-1 0.11432,-2.00809 -0.00002,-3.00153c-0.04608,-0.40038 -0.71072,-0.78747 -0.4733,-1.11313c0.34995,-0.48002 1.12807,-0.37312 1.69211,-0.55953c0,0 1.37279,-0.91648 1.7673,-2.45293z" data-paper-data="{&quot;noHover&quot;:false,&quot;origItem&quot;:[&quot;Path&quot;,{&quot;applyMatrix&quot;:true,&quot;segments&quot;:[[[305.68049,142.03281],[0,0],[-0.39451,1.53646]],[[303.91323,144.48444],[0,0],[-0.56403,0.18641]],[[302.22113,145.04367],[0.34995,-0.48002],[-0.23742,0.32566]],[[302.69443,146.15623],[-0.04608,-0.40038],[0.11433,0.99344]],[[302.69443,149.15623],[0,-1],[0,3.59822]],[[301.97578,159.7093],[1.11896,-3.37542],[0.07347,-0.18677]],[[302.33516,159.20788],[-0.14426,0.01657],[1.77483,-0.2039]],[[307.69443,159.15623],[-1.78636,-0.02252],[1.38745,0.01749]],[[311.85356,159.32787],[-1.32781,-0.40278],[1.1501,0.34887]],[[314.85356,161.32787],[-1.16109,-0.31033],[1.23811,0.33091]],[[318.69443,161.15623],[-1.28132,0.02487],[12.65654,-0.24571]],[[356.69443,161.15623],[-12.65871,0],[14.66667,0]],[[400.69443,161.15623],[-14.66667,0],[4.33333,0]],[[413.69443,161.15623],[-4.33333,0],[2.41464,0]],[[420.938,161.22841],[-2.35121,0.54985],[1.7479,-0.40876]],[[425.938,159.22841],[-1.76106,0.34769],[1.77468,-0.35038]],[[431.36451,159.16986],[-1.80123,0.16686],[2.01894,-0.18703]],[[437.36451,158.16986],[-2.01952,0.18068],[4.46418,-0.39939]],[[451.0537,158.20788],[-4.42073,0.65926],[2.5428,-0.3792]],[[458.69443,157.15623],[-2.57076,0.02861],[4.77329,0]],[[474.0537,157.20788],[-4.70385,0.83237],[2.20688,-0.39052]],[[480.69443,156.15623],[-2.24111,0.01515],[3.29045,-0.02224]],[[492.5915,155.75363],[-3.04852,1.44308],[1.20051,-0.56828]],[[494.89969,148.89132],[-0.40421,1.21263],[1.5335,-4.6005]],[[498.71389,134.76208],[-0.86706,4.77252],[0.12718,-0.70001]],[[498.16369,131.85175],[1.44814,0.33351],[-1.45512,-0.33512]],[[493.69443,132.15623],[1.49321,0],[-2.59141,0]],[[485.33516,132.10458],[2.5474,-0.45077],[-3.68031,0.65125]],[[474.18316,134.12626],[3.75862,-0.40799],[-4.67139,0.50706]],[[460.02435,134.14261],[4.66816,-0.47616],[-5.33559,0.54424]],[[444.08858,136.13677],[5.31684,-0.47571],[-3.98408,0.35647]],[[432.08858,136.13677],[3.98301,-0.36824],[-3.79703,0.35104]],[[420.69443,137.15623],[3.81322,-0.00599],[-3.48175,0.00547]],[[410.24923,137.11757],[3.43173,-0.58809],[-2.39184,0.40988]],[[403.24923,139.11757],[2.39971,-0.36092],[-0.32243,0.04849]],[[391.69443,139.15623],[1.15971,0],[-18,0]],[[337.69443,139.15623],[18,0],[-5.24841,0]],[[321.33516,139.10458],[5.16473,-0.77021],[-1.04256,0.15548]],[[318.33516,140.10458],[1.04112,-0.16488],[-3.3074,0.52377]],[[309.81278,140.99672],[3.18246,-1.12559],[0,0]]],&quot;closed&quot;:true}]}" fill="#9b9b9b" stroke-width="0.5"/></g></g></svg>